<?xml version="1.0" encoding="UTF-8" standalone="no"?>
<!-- Created with Inkscape (http://www.inkscape.org/) -->

<svg
   xmlns:dc="http://purl.org/dc/elements/1.1/"
   xmlns:cc="http://creativecommons.org/ns#"
   xmlns:rdf="http://www.w3.org/1999/02/22-rdf-syntax-ns#"
   xmlns:svg="http://www.w3.org/2000/svg"
   xmlns="http://www.w3.org/2000/svg"
   xmlns:sodipodi="http://sodipodi.sourceforge.net/DTD/sodipodi-0.dtd"
   xmlns:inkscape="http://www.inkscape.org/namespaces/inkscape"
   width="800"
   height="600"
   viewBox="0 0 800.00001 600.00001"
   id="svg2"
   version="1.1"
   inkscape:version="0.91 r13725"
   sodipodi:docname="state_map.svg">
  <defs
     id="defs4" />
  <sodipodi:namedview
     id="base"
     pagecolor="#ffffff"
     bordercolor="#666666"
     borderopacity="1.0"
     inkscape:pageopacity="0.0"
     inkscape:pageshadow="2"
     inkscape:zoom="0.66705581"
     inkscape:cx="54.917237"
     inkscape:cy="409.72551"
     inkscape:document-units="px"
     inkscape:current-layer="layer1"
     showgrid="false"
     units="px"
     inkscape:window-width="1440"
     inkscape:window-height="852"
     inkscape:window-x="0"
     inkscape:window-y="0"
     inkscape:window-maximized="1" />
  <metadata
     id="metadata7">
    <rdf:RDF>
      <cc:Work
         rdf:about="">
        <dc:format>image/svg+xml</dc:format>
        <dc:type
           rdf:resource="http://purl.org/dc/dcmitype/StillImage" />
        <dc:title></dc:title>
      </cc:Work>
    </rdf:RDF>
  </metadata>
  <g
     inkscape:label="Layer 1"
     inkscape:groupmode="layer"
     id="layer1"
     transform="translate(0,-452.36216)">
    <path
       style="opacity:1;fill:#000000;fill-opacity:1;fill-rule:nonzero;stroke:#000000;stroke-width:0;stroke-linecap:butt;stroke-linejoin:miter;stroke-miterlimit:4;stroke-dasharray:none;stroke-dashoffset:0;stroke-opacity:1"
       id="path4144"
       d="m 565.31393,467.24171 c 26.18603,-0.11256 52.36594,0.55977 78.55301,0.46368 18.28433,-0.0671 28.36013,-0.34024 45.97043,-0.70572 0,0 -11.83512,4.72261 -11.83512,4.72261 l 0,0 c -17.80403,0.35931 -27.44807,0.61853 -45.98165,0.67748 -26.18055,0.0833 -52.35521,-0.6188 -78.53451,-0.41726 0,0 11.82784,-4.74079 11.82784,-4.74079 z"
       inkscape:connector-curvature="0" />
    <path
       style="opacity:1;fill:#000000;fill-opacity:1;fill-rule:nonzero;stroke:#000000;stroke-width:0;stroke-linecap:butt;stroke-linejoin:miter;stroke-miterlimit:4;stroke-dasharray:none;stroke-dashoffset:0;stroke-opacity:1"
       id="path4148"
       d="m 566.60064,469.25822 c -0.20725,18.39 -0.8386,36.7796 -0.7802,55.17217 0.0304,9.57669 0.28518,19.15136 0.42777,28.72704 0.5554,22.16539 1.618,44.3114 2.78481,66.45104 0,0 -12.41904,2.85312 -12.41904,2.85312 l 0,0 c -1.17022,-22.15525 -2.23508,-44.31689 -2.79548,-66.49789 -0.14499,-9.58636 -0.40294,-19.17167 -0.43496,-28.75907 -0.0614,-18.39504 0.57171,-36.78716 0.77854,-55.17963 0,0 12.43856,-2.76678 12.43856,-2.76678 z"
       inkscape:connector-curvature="0" />
    <path
       style="opacity:1;fill:#000000;fill-opacity:1;fill-rule:nonzero;stroke:#000000;stroke-width:0;stroke-linecap:butt;stroke-linejoin:miter;stroke-miterlimit:4;stroke-dasharray:none;stroke-dashoffset:0;stroke-opacity:1"
       id="path4154"
       d="m 566.80867,615.87657 c 19.77786,0.25233 39.52167,1.43753 59.30696,1.39972 7.19718,-0.0138 14.39253,-0.23209 21.58879,-0.34815 14.55222,-0.52216 29.10487,-1.25377 43.60793,-2.58642 1.79484,-0.16492 3.58634,-0.36598 5.37621,-0.57822 0.83914,-0.0995 3.3257,-0.57693 2.50981,-0.35694 -3.75509,1.01255 -7.56116,1.82562 -11.34173,2.73843 0.0485,0.14088 0.097,0.28177 0.14554,0.42265 0,0 12.49278,-2.51067 12.49278,-2.51067 l 0,0 c 0.0152,0.28852 0.0303,0.57704 0.0455,0.86556 -4.37425,1.11361 -8.72779,2.31195 -13.12274,3.34081 -0.82587,0.19334 -1.68104,0.22905 -2.52412,0.32213 -1.79419,0.19808 -3.58909,0.39219 -5.38716,0.5513 -14.51623,1.2846 -29.0762,2.02612 -43.63951,2.50791 -7.20077,0.10471 -14.40078,0.31062 -21.6023,0.31413 -19.78435,0.01 -39.53046,-1.1683 -59.30853,-1.4037 0,0 11.8526,-4.67854 11.8526,-4.67854 z"
       inkscape:connector-curvature="0" />
    <path
       inkscape:connector-curvature="0"
       d="m 693.37191,464.6344 c -0.20726,18.39001 -0.83861,36.77961 -0.78021,55.17218 0.0304,9.57669 0.28519,19.15136 0.42777,28.72704 0.5554,22.16539 1.61801,44.3114 2.78481,66.45104 0,0 -12.41904,2.85312 -12.41904,2.85312 l 0,0 c -1.17021,-22.15525 -2.23507,-44.31689 -2.79547,-66.4979 -0.14499,-9.58635 -0.40294,-19.17166 -0.43497,-28.75906 -0.0614,-18.39504 0.57172,-36.78716 0.77854,-55.17963 0,0 12.43857,-2.76679 12.43857,-2.76679 z"
       id="path4156"
       style="opacity:1;fill:#000000;fill-opacity:1;fill-rule:nonzero;stroke:#000000;stroke-width:0;stroke-linecap:butt;stroke-linejoin:miter;stroke-miterlimit:4;stroke-dasharray:none;stroke-dashoffset:0;stroke-opacity:1" />
    <path
       inkscape:connector-curvature="0"
       d="m 564.03729,498.70636 c 26.18603,-0.11256 52.36594,0.55977 78.55301,0.46368 18.28433,-0.0671 28.36012,-0.34024 45.97042,-0.70572 0,0 -11.83511,4.72261 -11.83511,4.72261 l 0,0 c -17.80403,0.35931 -27.44807,0.61854 -45.98165,0.67748 -26.18055,0.0833 -52.35521,-0.6188 -78.53451,-0.41725 0,0 11.82784,-4.7408 11.82784,-4.7408 z"
       id="path4158"
       style="opacity:1;fill:#000000;fill-opacity:1;fill-rule:nonzero;stroke:#000000;stroke-width:0;stroke-linecap:butt;stroke-linejoin:miter;stroke-miterlimit:4;stroke-dasharray:none;stroke-dashoffset:0;stroke-opacity:1" />
    <text
       xml:space="preserve"
       style="font-style:normal;font-weight:normal;font-size:30px;line-height:125%;font-family:sans-serif;letter-spacing:0px;word-spacing:0px;fill:#000000;fill-opacity:1;stroke:none;stroke-width:1px;stroke-linecap:butt;stroke-linejoin:miter;stroke-opacity:1"
       x="587.45319"
       y="480.77322"
       id="text4160"
       sodipodi:linespacing="125%"
       transform="matrix(0.99985978,0.01674588,-0.01674588,0.99985978,0,0)"><tspan
         sodipodi:role="line"
         id="tspan4162"
         x="587.45319"
         y="480.77322"
         style="font-size:15px">GameState</tspan></text>
    <path
       inkscape:connector-curvature="0"
       d="m 257.10155,467.01685 c 26.18603,-0.11256 52.36594,0.55977 78.55301,0.46368 18.28433,-0.0671 28.36012,-0.34024 45.97042,-0.70572 0,0 -11.83511,4.72261 -11.83511,4.72261 l 0,0 c -17.80403,0.35931 -27.44807,0.61853 -45.98165,0.67748 -26.18055,0.0833 -52.35521,-0.6188 -78.53451,-0.41726 0,0 11.82784,-4.74079 11.82784,-4.74079 z"
       id="path4164"
       style="opacity:1;fill:#000000;fill-opacity:1;fill-rule:nonzero;stroke:#000000;stroke-width:0;stroke-linecap:butt;stroke-linejoin:miter;stroke-miterlimit:4;stroke-dasharray:none;stroke-dashoffset:0;stroke-opacity:1" />
    <path
       inkscape:connector-curvature="0"
       d="m 258.38826,469.03336 c -0.20726,18.39 -0.8386,36.7796 -0.78021,55.17217 0.0304,9.57669 0.28519,19.15136 0.42777,28.72704 0.5554,22.16539 1.61801,44.3114 2.78481,66.45104 0,0 -12.41904,2.85312 -12.41904,2.85312 l 0,0 c -1.17021,-22.15525 -2.23507,-44.31689 -2.79547,-66.49789 -0.14499,-9.58636 -0.40294,-19.17167 -0.43497,-28.75907 -0.0614,-18.39504 0.57172,-36.78716 0.77854,-55.17963 0,0 12.43857,-2.76678 12.43857,-2.76678 z"
       id="path4166"
       style="opacity:1;fill:#000000;fill-opacity:1;fill-rule:nonzero;stroke:#000000;stroke-width:0;stroke-linecap:butt;stroke-linejoin:miter;stroke-miterlimit:4;stroke-dasharray:none;stroke-dashoffset:0;stroke-opacity:1" />
    <path
       inkscape:connector-curvature="0"
       d="m 258.59629,615.65171 c 19.77785,0.25233 39.52166,1.43753 59.30695,1.39972 7.19719,-0.0137 14.39254,-0.23209 21.5888,-0.34815 14.55221,-0.52216 29.10487,-1.25377 43.60793,-2.58642 1.79484,-0.16492 3.58634,-0.36598 5.3762,-0.57822 0.83915,-0.0995 3.32571,-0.57693 2.50982,-0.35694 -3.75509,1.01255 -7.56116,1.82562 -11.34174,2.73843 0.0485,0.14088 0.097,0.28177 0.14555,0.42265 0,0 12.49277,-2.51067 12.49277,-2.51067 l 0,0 c 0.0152,0.28852 0.0303,0.57704 0.0455,0.86556 -4.37425,1.11361 -8.72779,2.31195 -13.12273,3.34081 -0.82587,0.19334 -1.68104,0.22905 -2.52412,0.32213 -1.7942,0.19808 -3.58909,0.39219 -5.38717,0.5513 -14.51622,1.2846 -29.07619,2.02612 -43.6395,2.50791 -7.20078,0.10471 -14.40078,0.31062 -21.6023,0.31413 -19.78435,0.01 -39.53046,-1.1683 -59.30853,-1.4037 0,0 11.8526,-4.67854 11.8526,-4.67854 z"
       id="path4168"
       style="opacity:1;fill:#000000;fill-opacity:1;fill-rule:nonzero;stroke:#000000;stroke-width:0;stroke-linecap:butt;stroke-linejoin:miter;stroke-miterlimit:4;stroke-dasharray:none;stroke-dashoffset:0;stroke-opacity:1" />
    <path
       style="opacity:1;fill:#000000;fill-opacity:1;fill-rule:nonzero;stroke:#000000;stroke-width:0;stroke-linecap:butt;stroke-linejoin:miter;stroke-miterlimit:4;stroke-dasharray:none;stroke-dashoffset:0;stroke-opacity:1"
       id="path4170"
       d="m 385.15953,464.40954 c -0.20726,18.39001 -0.83861,36.77961 -0.78021,55.17218 0.0304,9.57669 0.28518,19.15136 0.42777,28.72704 0.5554,22.16539 1.618,44.3114 2.78481,66.45104 0,0 -12.41904,2.85312 -12.41904,2.85312 l 0,0 c -1.17021,-22.15525 -2.23508,-44.31689 -2.79548,-66.4979 -0.14498,-9.58635 -0.40294,-19.17166 -0.43496,-28.75906 -0.0614,-18.39504 0.57171,-36.78716 0.77854,-55.17963 0,0 12.43857,-2.76679 12.43857,-2.76679 z"
       inkscape:connector-curvature="0" />
    <path
       style="opacity:1;fill:#000000;fill-opacity:1;fill-rule:nonzero;stroke:#000000;stroke-width:0;stroke-linecap:butt;stroke-linejoin:miter;stroke-miterlimit:4;stroke-dasharray:none;stroke-dashoffset:0;stroke-opacity:1"
       id="path4172"
       d="m 255.82491,498.4815 c 26.18602,-0.11256 52.36593,0.55977 78.55301,0.46368 18.28432,-0.0671 28.36012,-0.34024 45.97042,-0.70572 0,0 -11.83511,4.72261 -11.83511,4.72261 l 0,0 c -17.80404,0.35931 -27.44807,0.61854 -45.98166,0.67748 -26.18054,0.0833 -52.35521,-0.6188 -78.5345,-0.41725 0,0 11.82784,-4.7408 11.82784,-4.7408 z"
       inkscape:connector-curvature="0" />
    <text
       sodipodi:linespacing="125%"
       id="text4174"
       y="485.70969"
       x="279.28024"
       style="font-style:normal;font-weight:normal;font-size:30px;line-height:125%;font-family:sans-serif;letter-spacing:0px;word-spacing:0px;fill:#000000;fill-opacity:1;stroke:none;stroke-width:1px;stroke-linecap:butt;stroke-linejoin:miter;stroke-opacity:1"
       xml:space="preserve"
       transform="matrix(0.99985978,0.01674588,-0.01674588,0.99985978,0,0)"><tspan
         style="font-size:15px"
         y="485.70969"
         x="279.28024"
         id="tspan4176"
         sodipodi:role="line">MenuState</tspan></text>
    <path
       style="opacity:1;fill:#000000;fill-opacity:1;fill-rule:nonzero;stroke:#000000;stroke-width:0;stroke-linecap:butt;stroke-linejoin:miter;stroke-miterlimit:4;stroke-dasharray:none;stroke-dashoffset:0;stroke-opacity:1"
       id="path4178"
       d="m -48.14671,475.7623 c 26.186027,-0.11256 52.3659392,0.55977 78.55301,0.46369 18.284328,-0.0671 28.360125,-0.34025 45.970427,-0.70573 0,0 -11.835113,4.72261 -11.835113,4.72261 l 0,0 c -17.804037,0.35931 -27.44807,0.61854 -45.981656,0.67749 -26.1805455,0.0832 -52.355209,-0.61881 -78.534505,-0.41726 0,0 11.827837,-4.7408 11.827837,-4.7408 z"
       inkscape:connector-curvature="0" />
    <path
       style="opacity:1;fill:#000000;fill-opacity:1;fill-rule:nonzero;stroke:#000000;stroke-width:0;stroke-linecap:butt;stroke-linejoin:miter;stroke-miterlimit:4;stroke-dasharray:none;stroke-dashoffset:0;stroke-opacity:1"
       id="path4180"
       d="m -46.859997,477.77881 c -0.207256,18.39001 -0.838605,36.7796 -0.780207,55.17217 0.0304,9.57669 0.285184,19.15136 0.427771,28.72704 0.555399,22.16539 1.618003,44.3114 2.784809,66.45105 0,0 -12.41904,2.85312 -12.41904,2.85312 l 0,0 c -1.170214,-22.15526 -2.235078,-44.3169 -2.795476,-66.4979 -0.144988,-9.58635 -0.40294,-19.17167 -0.434965,-28.75907 -0.06144,-18.39503 0.571714,-36.78715 0.778541,-55.17963 0,0 12.438567,-2.76678 12.438567,-2.76678 z"
       inkscape:connector-curvature="0" />
    <path
       style="opacity:1;fill:#000000;fill-opacity:1;fill-rule:nonzero;stroke:#000000;stroke-width:0;stroke-linecap:butt;stroke-linejoin:miter;stroke-miterlimit:4;stroke-dasharray:none;stroke-dashoffset:0;stroke-opacity:1"
       id="path4182"
       d="m -46.651972,624.39716 c 19.777858,0.25234 39.5216689,1.43753 59.306956,1.39973 7.19719,-0.0137 14.392535,-0.2321 21.588798,-0.34816 14.552214,-0.52215 29.104869,-1.25377 43.607929,-2.58642 1.794844,-0.16491 3.586342,-0.36597 5.376207,-0.57822 0.839144,-0.0995 3.325708,-0.57693 2.509819,-0.35693 -3.755092,1.01255 -7.561162,1.82562 -11.341737,2.73843 0.04855,0.14088 0.09703,0.28176 0.145542,0.42264 0,0 12.492775,-2.51067 12.492775,-2.51067 l 0,0 c 0.01517,0.28853 0.03034,0.57704 0.04551,0.86557 -4.374251,1.1136 -8.727789,2.31195 -13.122735,3.3408 -0.825873,0.19334 -1.681041,0.22905 -2.524118,0.32213 -1.794199,0.19808 -3.589091,0.39219 -5.387167,0.5513 -14.516231,1.28461 -29.0762,2.02612 -43.63951,2.50791 -7.200773,0.10472 -14.4007806,0.31062 -21.60229941,0.31414 -19.78434559,0.01 -39.53045859,-1.16831 -59.30852959,-1.4037 0,0 11.852598,-4.67855 11.852598,-4.67855 z"
       inkscape:connector-curvature="0" />
    <path
       inkscape:connector-curvature="0"
       d="m 79.911271,473.155 c -0.207256,18.39001 -0.838604,36.7796 -0.780206,55.17217 0.0304,9.57669 0.285184,19.15136 0.427771,28.72704 0.555399,22.16539 1.618003,44.3114 2.784809,66.45104 0,0 -12.41904,2.85313 -12.41904,2.85313 l 0,0 c -1.170215,-22.15526 -2.235078,-44.3169 -2.795476,-66.4979 -0.144988,-9.58635 -0.40294,-19.17167 -0.434965,-28.75907 -0.06144,-18.39504 0.571714,-36.78715 0.778541,-55.17963 0,0 12.438566,-2.76678 12.438566,-2.76678 z"
       id="path4184"
       style="opacity:1;fill:#000000;fill-opacity:1;fill-rule:nonzero;stroke:#000000;stroke-width:0;stroke-linecap:butt;stroke-linejoin:miter;stroke-miterlimit:4;stroke-dasharray:none;stroke-dashoffset:0;stroke-opacity:1" />
    <path
       inkscape:connector-curvature="0"
       d="m -49.423352,507.22695 c 26.186027,-0.11255 52.3659388,0.55978 78.55301,0.46369 18.284327,-0.0671 28.360124,-0.34024 45.970427,-0.70572 0,0 -11.835114,4.72261 -11.835114,4.72261 l 0,0 c -17.804036,0.3593 -27.44807,0.61853 -45.981656,0.67748 -26.1805449,0.0833 -52.355209,-0.6188 -78.534504,-0.41726 0,0 11.827837,-4.7408 11.827837,-4.7408 z"
       id="path4186"
       style="opacity:1;fill:#000000;fill-opacity:1;fill-rule:nonzero;stroke:#000000;stroke-width:0;stroke-linecap:butt;stroke-linejoin:miter;stroke-miterlimit:4;stroke-dasharray:none;stroke-dashoffset:0;stroke-opacity:1" />
    <text
       xml:space="preserve"
       style="font-style:normal;font-weight:normal;font-size:30px;line-height:125%;font-family:sans-serif;letter-spacing:0px;word-spacing:0px;fill:#000000;fill-opacity:1;stroke:none;stroke-width:1px;stroke-linecap:butt;stroke-linejoin:miter;stroke-opacity:1"
       x="-40.239956"
       y="499.56555"
       id="text4188"
       sodipodi:linespacing="125%"
       transform="matrix(0.99985978,0.01674588,-0.01674588,0.99985978,0,0)"><tspan
         sodipodi:role="line"
         id="tspan4190"
         x="-40.239956"
         y="499.56555"
         style="font-size:15px">MainMenuState</tspan></text>
    <path
       inkscape:connector-curvature="0"
       d="m 564.12336,252.53817 c 26.18603,-0.11255 52.36594,0.55978 78.55301,0.46369 18.28433,-0.0671 28.36013,-0.34025 45.97043,-0.70573 0,0 -11.83512,4.72262 -11.83512,4.72262 l 0,0 c -17.80403,0.3593 -27.44806,0.61853 -45.98165,0.67748 -26.18054,0.0832 -52.35521,-0.6188 -78.5345,-0.41726 0,0 11.82783,-4.7408 11.82783,-4.7408 z"
       id="path4192"
       style="opacity:1;fill:#000000;fill-opacity:1;fill-rule:nonzero;stroke:#000000;stroke-width:0;stroke-linecap:butt;stroke-linejoin:miter;stroke-miterlimit:4;stroke-dasharray:none;stroke-dashoffset:0;stroke-opacity:1" />
    <path
       inkscape:connector-curvature="0"
       d="m 565.41008,254.55468 c -0.20726,18.39001 -0.83861,36.77961 -0.78021,55.17217 0.0304,9.5767 0.28518,19.15136 0.42777,28.72705 0.5554,22.16538 1.618,44.31139 2.78481,66.45108 0,0 -12.41904,2.85313 -12.41904,2.85313 l 0,0 c -1.17021,-22.1553 -2.23508,-44.31694 -2.79548,-66.49795 -0.14498,-9.58635 -0.40294,-19.17166 -0.43496,-28.75906 -0.0614,-18.39504 0.57171,-36.78716 0.77854,-55.17963 0,0 12.43857,-2.76679 12.43857,-2.76679 z"
       id="path4194"
       style="opacity:1;fill:#000000;fill-opacity:1;fill-rule:nonzero;stroke:#000000;stroke-width:0;stroke-linecap:butt;stroke-linejoin:miter;stroke-miterlimit:4;stroke-dasharray:none;stroke-dashoffset:0;stroke-opacity:1" />
    <path
       inkscape:connector-curvature="0"
       d="m 565.6181,401.17304 c 19.77786,0.25233 39.52167,1.43752 59.30696,1.39972 7.19719,-0.0138 14.39253,-0.2321 21.5888,-0.34816 14.55221,-0.52215 29.10486,-1.25377 43.60792,-2.58642 1.79485,-0.16491 3.58634,-0.36597 5.37621,-0.57822 0.83914,-0.0995 3.32571,-0.57693 2.50982,-0.35693 -3.75509,1.01255 -7.56116,1.82562 -11.34174,2.73843 0.0485,0.14088 0.097,0.28176 0.14554,0.42264 0,0 12.49278,-2.51066 12.49278,-2.51066 l 0,0 c 0.0152,0.28852 0.0303,0.57703 0.0455,0.86556 -4.37425,1.1136 -8.72779,2.31195 -13.12273,3.34081 -0.82588,0.19333 -1.68105,0.22905 -2.52412,0.32212 -1.7942,0.19808 -3.58909,0.39224 -5.38717,0.55136 -14.51623,1.28459 -29.0762,2.02607 -43.63951,2.50787 -7.20077,0.10473 -14.40078,0.31059 -21.6023,0.31409 -19.78434,0.01 -39.53046,-1.16824 -59.30853,-1.40367 0,0 11.8526,-4.67854 11.8526,-4.67854 z"
       id="path4196"
       style="opacity:1;fill:#000000;fill-opacity:1;fill-rule:nonzero;stroke:#000000;stroke-width:0;stroke-linecap:butt;stroke-linejoin:miter;stroke-miterlimit:4;stroke-dasharray:none;stroke-dashoffset:0;stroke-opacity:1" />
    <path
       style="opacity:1;fill:#000000;fill-opacity:1;fill-rule:nonzero;stroke:#000000;stroke-width:0;stroke-linecap:butt;stroke-linejoin:miter;stroke-miterlimit:4;stroke-dasharray:none;stroke-dashoffset:0;stroke-opacity:1"
       id="path4198"
       d="m 692.18134,249.93087 c -0.20725,18.39001 -0.8386,36.77961 -0.7802,55.17217 0.0304,9.57669 0.28518,19.15136 0.42777,28.72704 0.5554,22.16539 1.618,44.3114 2.78481,66.45105 0,0 -12.41904,2.85312 -12.41904,2.85312 l 0,0 c -1.17022,-22.15525 -2.23508,-44.31689 -2.79548,-66.4979 -0.14499,-9.58635 -0.40294,-19.17167 -0.43496,-28.75907 -0.0614,-18.39503 0.57171,-36.78715 0.77854,-55.17963 0,0 12.43856,-2.76678 12.43856,-2.76678 z"
       inkscape:connector-curvature="0" />
    <path
       style="opacity:1;fill:#000000;fill-opacity:1;fill-rule:nonzero;stroke:#000000;stroke-width:0;stroke-linecap:butt;stroke-linejoin:miter;stroke-miterlimit:4;stroke-dasharray:none;stroke-dashoffset:0;stroke-opacity:1"
       id="path4200"
       d="m 562.84672,284.00283 c 26.18603,-0.11256 52.36594,0.55977 78.55301,0.46368 18.28433,-0.0671 28.36013,-0.34024 45.97043,-0.70572 0,0 -11.83512,4.72261 -11.83512,4.72261 l 0,0 c -17.80403,0.35931 -27.44806,0.61853 -45.98165,0.67748 -26.18055,0.0833 -52.35521,-0.6188 -78.53451,-0.41726 0,0 11.82784,-4.74079 11.82784,-4.74079 z"
       inkscape:connector-curvature="0" />
    <text
       sodipodi:linespacing="125%"
       id="text4202"
       y="266.11978"
       x="582.66742"
       style="font-style:normal;font-weight:normal;font-size:30px;line-height:125%;font-family:sans-serif;letter-spacing:0px;word-spacing:0px;fill:#000000;fill-opacity:1;stroke:none;stroke-width:1px;stroke-linecap:butt;stroke-linejoin:miter;stroke-opacity:1"
       xml:space="preserve"
       transform="matrix(0.99985978,0.01674588,-0.01674588,0.99985978,0,0)"><tspan
         style="font-size:15px"
         y="266.11978"
         x="582.66742"
         id="tspan4204"
         sodipodi:role="line">PauseState</tspan></text>
    <path
       style="opacity:1;fill:#000000;fill-opacity:1;fill-rule:nonzero;stroke:#000000;stroke-width:0;stroke-linecap:butt;stroke-linejoin:miter;stroke-miterlimit:4;stroke-dasharray:none;stroke-dashoffset:0;stroke-opacity:1"
       id="path4206"
       d="m 868.43395,471.55648 c 26.18603,-0.11255 52.36594,0.55978 78.55301,0.46369 18.28433,-0.0671 28.36012,-0.34024 45.97042,-0.70573 0,0 -11.83511,4.72262 -11.83511,4.72262 l 0,0 c -17.80403,0.3593 -27.44807,0.61853 -45.98165,0.67748 -26.18055,0.0833 -52.35521,-0.6188 -78.53451,-0.41726 0,0 11.82784,-4.7408 11.82784,-4.7408 z"
       inkscape:connector-curvature="0" />
    <path
       style="opacity:1;fill:#000000;fill-opacity:1;fill-rule:nonzero;stroke:#000000;stroke-width:0;stroke-linecap:butt;stroke-linejoin:miter;stroke-miterlimit:4;stroke-dasharray:none;stroke-dashoffset:0;stroke-opacity:1"
       id="path4208"
       d="m 869.72066,473.57299 c -0.20725,18.39001 -0.8386,36.77961 -0.7802,55.17217 0.0304,9.5767 0.28518,19.15137 0.42777,28.72705 0.5554,22.16538 1.618,44.31139 2.78481,66.45104 0,0 -12.41904,2.85313 -12.41904,2.85313 l 0,0 c -1.17022,-22.15526 -2.23508,-44.3169 -2.79548,-66.49791 -0.14499,-9.58635 -0.40294,-19.17166 -0.43496,-28.75906 -0.0614,-18.39504 0.57171,-36.78716 0.77854,-55.17963 0,0 12.43856,-2.76679 12.43856,-2.76679 z"
       inkscape:connector-curvature="0" />
    <path
       style="opacity:1;fill:#000000;fill-opacity:1;fill-rule:nonzero;stroke:#000000;stroke-width:0;stroke-linecap:butt;stroke-linejoin:miter;stroke-miterlimit:4;stroke-dasharray:none;stroke-dashoffset:0;stroke-opacity:1"
       id="path4210"
       d="m 869.92869,620.19135 c 19.77786,0.25233 39.52167,1.43752 59.30695,1.39972 7.19719,-0.0137 14.39254,-0.2321 21.5888,-0.34816 14.55222,-0.52215 29.10487,-1.25376 43.60793,-2.58641 1.79484,-0.16492 3.58637,-0.36598 5.37618,-0.57823 0.83915,-0.0995 3.32575,-0.57693 2.50985,-0.35693 -3.75511,1.01255 -7.56117,1.82562 -11.34174,2.73843 0.0485,0.14088 0.097,0.28176 0.14554,0.42265 0,0 12.4928,-2.51067 12.4928,-2.51067 l 0,0 c 0.015,0.28852 0.03,0.57703 0.045,0.86556 -4.37429,1.1136 -8.7278,2.31195 -13.12275,3.34081 -0.82587,0.19333 -1.68104,0.22905 -2.52412,0.32212 -1.7942,0.19809 -3.58909,0.3922 -5.38716,0.55131 -14.51623,1.2846 -29.0762,2.02608 -43.63951,2.50788 -7.20077,0.10473 -14.40078,0.31069 -21.6023,0.31419 -19.78435,0.01 -39.53046,-1.16834 -59.30853,-1.40377 0,0 11.8526,-4.6785 11.8526,-4.6785 z"
       inkscape:connector-curvature="0" />
    <path
       inkscape:connector-curvature="0"
       d="m 996.49193,468.94918 c -0.20726,18.39001 -0.83861,36.77961 -0.78021,55.17217 0.0304,9.5767 0.28519,19.15136 0.42777,28.72704 0.5554,22.16539 1.61801,44.3114 2.78478,66.45105 0,0 -12.41901,2.85312 -12.41901,2.85312 l 0,0 c -1.17021,-22.15525 -2.23508,-44.31689 -2.79547,-66.4979 -0.14499,-9.58635 -0.40294,-19.17166 -0.43497,-28.75906 -0.0614,-18.39504 0.57171,-36.78716 0.77854,-55.17963 0,0 12.43857,-2.76679 12.43857,-2.76679 z"
       id="path4212"
       style="opacity:1;fill:#000000;fill-opacity:1;fill-rule:nonzero;stroke:#000000;stroke-width:0;stroke-linecap:butt;stroke-linejoin:miter;stroke-miterlimit:4;stroke-dasharray:none;stroke-dashoffset:0;stroke-opacity:1" />
    <path
       inkscape:connector-curvature="0"
       d="m 867.15731,503.02114 c 26.18602,-0.11256 52.36594,0.55977 78.55301,0.46368 18.28433,-0.0671 28.36012,-0.34024 45.97042,-0.70572 0,0 -11.83511,4.72261 -11.83511,4.72261 l 0,0 c -17.80404,0.35931 -27.44807,0.61854 -45.98165,0.67748 -26.18055,0.0833 -52.35521,-0.6188 -78.53451,-0.41726 0,0 11.82784,-4.74079 11.82784,-4.74079 z"
       id="path4214"
       style="opacity:1;fill:#000000;fill-opacity:1;fill-rule:nonzero;stroke:#000000;stroke-width:0;stroke-linecap:butt;stroke-linejoin:miter;stroke-miterlimit:4;stroke-dasharray:none;stroke-dashoffset:0;stroke-opacity:1" />
    <text
       xml:space="preserve"
       style="font-style:normal;font-weight:normal;font-size:30px;line-height:125%;font-family:sans-serif;letter-spacing:0px;word-spacing:0px;fill:#000000;fill-opacity:1;stroke:none;stroke-width:1px;stroke-linecap:butt;stroke-linejoin:miter;stroke-opacity:1"
       x="890.60297"
       y="480.01141"
       id="text4216"
       sodipodi:linespacing="125%"
       transform="matrix(0.99985978,0.01674588,-0.01674588,0.99985978,0,0)"><tspan
         sodipodi:role="line"
         x="890.60297"
         y="480.01141"
         style="font-size:15px"
         id="tspan4266">DeathState</tspan></text>
    <path
       style="opacity:1;fill:#000000;fill-opacity:1;fill-rule:nonzero;stroke:#000000;stroke-width:0;stroke-linecap:butt;stroke-linejoin:miter;stroke-miterlimit:4;stroke-dasharray:none;stroke-dashoffset:0;stroke-opacity:1"
       id="path4244"
       d="m 616.59663,414.14688 c 2.43407,8.59613 2.949,17.59346 3.49123,26.46599 0.18849,4.01116 0.29878,8.02777 0.23112,12.04346 -0.0303,1.79655 -0.12682,3.49373 -0.38203,5.26767 -0.21932,1.07014 -0.10217,0.60063 -0.32702,1.41437 0,0 -4.42228,0.86024 -4.42228,0.86024 l 0,0 c 0.23783,-0.76952 0.11437,-0.32097 0.33923,-1.35382 0.27257,-1.78586 0.363,-3.39042 0.39529,-5.20627 0.0711,-4.00557 -0.0379,-8.01218 -0.22427,-12.01334 -0.53779,-8.85176 -1.04628,-17.82858 -3.47652,-26.40418 0,0 4.37525,-1.07412 4.37525,-1.07412 z"
       inkscape:connector-curvature="0" />
    <path
       style="opacity:1;fill:#000000;fill-opacity:1;fill-rule:nonzero;stroke:#000000;stroke-width:0;stroke-linecap:butt;stroke-linejoin:miter;stroke-miterlimit:4;stroke-dasharray:none;stroke-dashoffset:0;stroke-opacity:1"
       id="path4246"
       d="m 614.31919,415.45785 c -0.6555,5.02783 -2.0035,9.93884 -3.34464,14.81911 -0.67668,2.1323 -1.17088,4.36553 -2.2876,6.32575 -0.0175,0.0309 -0.0351,0.0618 -0.0527,0.0926 0,0 -4.44229,0.75012 -4.44229,0.75012 l 0,0 c 0.0179,-0.0291 0.0357,-0.0583 0.0536,-0.0874 0.2379,-0.41154 0.48835,-0.80614 0.67542,-1.2469 0.6815,-1.60563 1.10313,-3.31066 1.63264,-4.96709 1.34226,-4.86136 2.69528,-9.75399 3.35608,-14.76273 0,0 4.40951,-0.92345 4.40951,-0.92345 z"
       inkscape:connector-curvature="0" />
    <path
       style="opacity:1;fill:#000000;fill-opacity:1;fill-rule:nonzero;stroke:#000000;stroke-width:0;stroke-linecap:butt;stroke-linejoin:miter;stroke-miterlimit:4;stroke-dasharray:none;stroke-dashoffset:0;stroke-opacity:1"
       id="path4248"
       d="m 626.79898,412.00635 c 0.10105,0.4246 0.23261,0.84309 0.30316,1.27381 0.33083,2.01984 0.40957,3.98597 0.47443,6.04185 0.0538,1.70707 0.0737,3.41514 0.0873,5.12301 0.0349,4.38505 -0.0164,7.62344 -0.0589,12.02236 -0.0382,4.77502 -0.0542,9.55017 -0.0858,14.32523 -0.016,2.41289 -0.0575,4.82379 -0.022,7.23646 0.0154,0.39003 0.0275,0.78022 0.0462,1.17011 0.0118,0.24767 0.0174,0.4961 0.0456,0.74245 0.0138,0.12035 0.0382,0.2408 0.08,0.3545 0.0102,0.0279 0.0995,0.0486 0.0704,0.0544 -4.53603,0.9006 -4.91504,2.04108 -3.91784,0.1304 1.35824,-2.68628 3.19471,-5.09413 4.8003,-7.63088 1.02577,-1.62068 1.98548,-3.28226 2.98431,-4.91968 0.5993,-1.05442 1.25791,-2.07243 1.91196,-3.09298 0,0 4.44507,-0.73348 4.44507,-0.73348 l 0,0 c -0.65306,1.01831 -1.32784,2.02306 -1.91359,3.0832 -1.00234,1.64029 -1.95636,3.31023 -2.98157,4.93631 -1.59424,2.52863 -3.43544,4.91692 -4.80906,7.57913 -0.99832,2.02833 -0.23037,0.89461 -4.84901,1.89401 -0.0799,0.0173 -0.0885,-0.13938 -0.11397,-0.21701 -0.24816,-0.75574 -0.0803,-1.58669 -0.19334,-2.35812 -0.0387,-2.41582 0.004,-4.82966 0.0199,-7.24577 0.0318,-4.77564 0.0476,-9.55136 0.0855,-14.32696 0.0435,-4.41089 0.0945,-7.61447 0.0616,-12.01071 -0.0128,-1.70288 -0.032,-3.40597 -0.0839,-5.10812 -0.061,-1.99765 -0.13626,-3.98707 -0.45527,-5.96177 -0.0672,-0.41626 -0.19482,-0.82049 -0.29222,-1.23074 0,0 4.36091,-1.13096 4.36091,-1.13096 z"
       inkscape:connector-curvature="0" />
    <path
       style="opacity:1;fill:#000000;fill-opacity:1;fill-rule:nonzero;stroke:#000000;stroke-width:0;stroke-linecap:butt;stroke-linejoin:miter;stroke-miterlimit:4;stroke-dasharray:none;stroke-dashoffset:0;stroke-opacity:1"
       id="path4260"
       d="m 527.95223,551.53658 c -22.07717,2.20829 -45.23832,2.48599 -68.07734,2.79432 -10.32671,0.0827 -20.66955,0.087 -31.01469,-0.0866 -4.62826,-0.0777 -9.00227,-0.21908 -13.57822,-0.52121 -2.76218,-0.24766 -1.54977,-0.11807 -3.65169,-0.3645 0,0 -2.33245,-4.44694 -2.33245,-4.44694 l 0,0 c 1.98835,0.25824 0.82976,0.12289 3.49604,0.37511 4.60709,0.31982 8.7424,0.45264 13.42042,0.53287 10.31918,0.17683 20.63627,0.17352 30.9373,0.0927 22.78562,-0.30441 45.89414,-0.57623 67.9185,-2.78122 0,0 2.88213,4.40553 2.88213,4.40553 z"
       inkscape:connector-curvature="0" />
    <path
       style="opacity:1;fill:#000000;fill-opacity:1;fill-rule:nonzero;stroke:#000000;stroke-width:0;stroke-linecap:butt;stroke-linejoin:miter;stroke-miterlimit:4;stroke-dasharray:none;stroke-dashoffset:0;stroke-opacity:1"
       id="path4262"
       d="m 527.53728,551.71057 c -5.02783,-0.6555 -9.93885,-2.0035 -14.81911,-3.34464 -2.1323,-0.67668 -4.36554,-1.17088 -6.32575,-2.2876 -0.0309,-0.0175 -0.0618,-0.0351 -0.0926,-0.0527 0,0 -0.75012,-4.44229 -0.75012,-4.44229 l 0,0 c 0.0291,0.0179 0.0583,0.0357 0.0874,0.0536 0.41154,0.2379 0.80614,0.48834 1.2469,0.67542 1.60563,0.68149 3.31065,1.10313 4.96709,1.63264 4.86136,1.34225 9.75399,2.69528 14.76273,3.35607 0,0 0.92345,4.40952 0.92345,4.40952 z"
       inkscape:connector-curvature="0" />
    <path
       inkscape:connector-curvature="0"
       d="m 526.74664,547.90397 c -4.75749,1.75358 -9.24758,4.15654 -13.70921,6.546 -1.92928,1.13246 -3.99744,2.10934 -5.66139,3.63276 -0.0263,0.024 -0.0525,0.0479 -0.0786,0.0719 0,0 0.25314,4.49807 0.25314,4.49807 l 0,0 c 0.0244,-0.0239 0.049,-0.0477 0.0734,-0.0716 0.34858,-0.32321 0.67785,-0.65489 1.06619,-0.935 1.41463,-1.02043 2.98381,-1.80947 4.48168,-2.69295 4.44294,-2.38636 8.91401,-4.79015 13.6517,-6.54466 0,0 -0.0769,-4.50452 -0.0769,-4.50452 z"
       id="path4264"
       style="opacity:1;fill:#000000;fill-opacity:1;fill-rule:nonzero;stroke:#000000;stroke-width:0;stroke-linecap:butt;stroke-linejoin:miter;stroke-miterlimit:4;stroke-dasharray:none;stroke-dashoffset:0;stroke-opacity:1" />
    <path
       inkscape:connector-curvature="0"
       d="m 321.3743,618.37263 c -0.65549,5.02783 -2.00349,9.93885 -3.34463,14.81911 -0.67669,2.1323 -1.17088,4.36554 -2.2876,6.32575 -0.0175,0.0309 -0.0351,0.0618 -0.0527,0.0926 0,0 -4.4423,0.75012 -4.4423,0.75012 l 0,0 c 0.0179,-0.0291 0.0357,-0.0583 0.0536,-0.0874 0.23791,-0.41154 0.48835,-0.80614 0.67543,-1.2469 0.68149,-1.60562 1.10312,-3.31065 1.63264,-4.96709 1.34225,-4.86136 2.69527,-9.75399 3.35607,-14.76273 0,0 4.40951,-0.92345 4.40951,-0.92345 z"
       id="path4302"
       style="opacity:1;fill:#000000;fill-opacity:1;fill-rule:nonzero;stroke:#000000;stroke-width:0;stroke-linecap:butt;stroke-linejoin:miter;stroke-miterlimit:4;stroke-dasharray:none;stroke-dashoffset:0;stroke-opacity:1" />
    <path
       style="opacity:1;fill:#000000;fill-opacity:1;fill-rule:nonzero;stroke:#000000;stroke-width:0;stroke-linecap:butt;stroke-linejoin:miter;stroke-miterlimit:4;stroke-dasharray:none;stroke-dashoffset:0;stroke-opacity:1"
       id="path4304"
       d="m 317.56771,619.16327 c 1.75358,4.75749 4.15653,9.24758 6.546,13.70921 1.13246,1.92928 2.10934,3.99744 3.63276,5.66139 0.024,0.0263 0.0479,0.0525 0.0719,0.0786 0,0 4.49807,-0.25314 4.49807,-0.25314 l 0,0 c -0.0239,-0.0244 -0.0477,-0.049 -0.0716,-0.0734 -0.32321,-0.34858 -0.65488,-0.67785 -0.93499,-1.06618 -1.02043,-1.41464 -1.80947,-2.98381 -2.69295,-4.48169 -2.38637,-4.44294 -4.79015,-8.914 -6.54466,-13.6517 0,0 -4.50452,0.0769 -4.50452,0.0769 z"
       inkscape:connector-curvature="0" />
    <path
       style="opacity:1;fill:#000000;fill-opacity:1;fill-rule:nonzero;stroke:#000000;stroke-width:0;stroke-linecap:butt;stroke-linejoin:miter;stroke-miterlimit:4;stroke-dasharray:none;stroke-dashoffset:0;stroke-opacity:1"
       id="path4306"
       d="m 631.04324,618.47091 c -0.26229,9.2772 -0.11998,18.55787 -0.008,27.83804 0.15759,5.12973 -0.0487,10.26259 0.18357,15.39189 0.0332,0.7323 0.0778,1.46537 0.17766,2.19439 0.14225,1.03819 -0.15134,0.97096 0.46127,1.00475 0,0 -6.6235,1.61076 -6.6235,1.61076 l 0,0 c -0.10857,-0.11739 -0.26699,-0.215 -0.32571,-0.35217 -0.38574,-0.90112 -0.43121,-2.52778 -0.46651,-3.28525 -0.23917,-5.13092 -0.0242,-10.26567 -0.18509,-15.39703 -0.11193,-9.28414 -0.25831,-18.56883 0.005,-27.85001 0,0 6.78179,-1.15537 6.78179,-1.15537 z"
       inkscape:connector-curvature="0" />
    <path
       style="opacity:1;fill:#000000;fill-opacity:1;fill-rule:nonzero;stroke:#000000;stroke-width:0;stroke-linecap:butt;stroke-linejoin:miter;stroke-miterlimit:4;stroke-dasharray:none;stroke-dashoffset:0;stroke-opacity:1"
       id="path4312"
       d="m 919.32531,670.44621 c -40.53105,-0.84488 -81.0577,-2.25886 -121.59859,-2.7984 -13.16885,-0.17524 -26.33731,-0.15806 -39.50596,-0.23712 -46.24619,0.33564 -92.20853,3.43609 -138.45676,3.62267 -31.72121,-0.1982 -63.38396,-1.9172 -94.98936,-3.75564 -14.37816,-0.55481 -28.64984,-1.91832 -42.9952,-2.71147 -9.66507,-0.53441 -14.39174,-0.6382 -24.24016,-0.97095 -30.74288,-0.6315 -61.42697,-2.23215 -92.116,-3.62507 -13.84149,-0.46972 -27.69488,-1.36971 -41.55867,-1.34705 -15.02491,0.81713 30.30002,-5.29971 17.16303,-2.69059 -8.20992,1.18226 -16.3987,2.41814 -24.6298,3.54675 -0.46395,0.0635 -1.89091,0.0963 -1.42955,0.0264 7.36847,-1.11792 14.78161,-2.12807 22.17943,-3.17448 0.7624,-0.10797 -1.48052,0.31176 -2.24127,0.42371 -8.1666,1.20152 -16.34934,2.36343 -24.524,3.54515 -0.44277,0.004 -0.88552,0.007 -1.32826,0.01 0,0 22.47932,-5.52453 22.47932,-5.52453 l 0,0 c 0.4168,-0.0416 0.83361,-0.0832 1.25041,-0.12493 -73.32221,10.92306 57.31211,-8.5274 -15.98437,2.4568 9.89272,-1.15281 19.4133,-4.13474 29.62919,-3.89004 13.88675,0.15217 27.75392,0.89298 41.61858,1.43994 30.68313,1.40304 61.36475,2.93791 92.10058,3.60102 10.56324,0.38194 13.97163,0.44565 24.28412,1.03991 14.33673,0.82603 28.6156,2.10497 42.9846,2.6947 31.57209,1.82433 63.21086,3.49729 94.8966,3.61178 46.24263,-0.31081 92.21769,-3.35147 138.47423,-3.59591 13.17572,0.09 26.35146,0.0883 39.52719,0.2699 40.53914,0.55877 81.06162,1.97485 121.59261,2.78911 0,0 -22.58194,5.3685 -22.58194,5.3685 z"
       inkscape:connector-curvature="0" />
    <path
       style="opacity:1;fill:#000000;fill-opacity:1;fill-rule:nonzero;stroke:#000000;stroke-width:0;stroke-linecap:butt;stroke-linejoin:miter;stroke-miterlimit:4;stroke-dasharray:none;stroke-dashoffset:0;stroke-opacity:1"
       id="path4326"
       d="m 322.11885,615.66439 c 0.81162,2.89873 0.58239,5.79395 0.64172,8.68719 0.029,1.41521 0.0967,2.83093 0.14501,4.2464 0.13999,1.71797 0.26581,3.43585 0.41995,5.15395 0.1723,1.92044 0.38471,3.84117 0.55937,5.76161 0.49245,5.41448 0.91083,10.82847 1.25744,16.24163 0.0501,0.9777 0.0507,0.61006 0.0447,1.10361 0,0 -4.36165,0.22918 -4.36165,0.22918 l 0,0 c 0.0112,-0.4908 0.008,-0.12418 -0.0424,-1.10058 -0.34602,-5.41276 -0.76397,-10.82637 -1.25643,-16.24042 -0.1747,-1.92064 -0.38723,-3.84155 -0.55984,-5.76217 -0.15445,-1.71869 -0.28091,-3.43715 -0.42137,-5.15571 -0.0486,-1.41587 -0.11698,-2.83198 -0.14597,-4.24758 -0.0591,-2.88758 0.16876,-5.77674 -0.62729,-8.6698 0,0 4.34664,-0.24731 4.34664,-0.24731 z"
       inkscape:connector-curvature="0" />
    <path
       inkscape:connector-curvature="0"
       d="m 934.17773,622.03611 c -0.25951,9.11162 -0.11443,18.22678 4e-5,27.34145 0.15912,5.03826 -0.0456,10.07949 0.18818,15.11737 0.0335,0.71924 0.0782,1.43925 0.1783,2.15529 0.14257,1.01973 -0.15105,0.9536 0.46157,0.98696 0,0 -6.62299,1.58006 -6.62299,1.58006 l 0,0 c -0.1086,-0.11534 -0.26705,-0.21125 -0.32581,-0.346 -0.386,-0.88516 -0.43196,-2.48281 -0.46749,-3.22678 -0.2407,-5.03946 -0.0273,-10.08255 -0.18969,-15.12243 -0.1147,-9.11854 -0.26385,-18.23765 -0.004,-27.35318 0,0 6.7814,-1.13274 6.7814,-1.13274 z"
       id="path4330"
       style="opacity:1;fill:#000000;fill-opacity:1;fill-rule:nonzero;stroke:#000000;stroke-width:0;stroke-linecap:butt;stroke-linejoin:miter;stroke-miterlimit:4;stroke-dasharray:none;stroke-dashoffset:0;stroke-opacity:1" />
    <path
       inkscape:connector-curvature="0"
       d="m 607.37161,669.53658 c 5.04696,-0.48677 10.00036,-1.66955 14.9228,-2.84652 2.15376,-0.6049 4.4023,-1.02403 6.39881,-2.07449 0.0315,-0.0165 0.063,-0.0331 0.0943,-0.0495 0,0 0.89845,-4.41469 0.89845,-4.41469 l 0,0 c -0.0297,0.0169 -0.0595,0.0337 -0.0892,0.0506 -0.41928,0.22399 -0.82204,0.46108 -1.26882,0.63329 -1.62754,0.62734 -3.34573,0.99164 -5.01897,1.46539 -4.90359,1.17871 -9.83878,2.36713 -14.86684,2.85983 0,0 -1.07059,4.37612 -1.07059,4.37612 z"
       id="path4332"
       style="opacity:1;fill:#000000;fill-opacity:1;fill-rule:nonzero;stroke:#000000;stroke-width:0;stroke-linecap:butt;stroke-linejoin:miter;stroke-miterlimit:4;stroke-dasharray:none;stroke-dashoffset:0;stroke-opacity:1"
       inkscape:transform-center-x="11.884409"
       inkscape:transform-center-y="-6.58712" />
    <path
       style="opacity:1;fill:#000000;fill-opacity:1;fill-rule:nonzero;stroke:#000000;stroke-width:0;stroke-linecap:butt;stroke-linejoin:miter;stroke-miterlimit:4;stroke-dasharray:none;stroke-dashoffset:0;stroke-opacity:1"
       id="path4334"
       d="m 608.28928,665.75859 c 4.6961,1.91191 9.1032,4.46388 13.48231,7.00141 1.89028,1.19643 3.92457,2.24202 5.53656,3.82031 0.0255,0.0248 0.0509,0.0497 0.0762,0.0745 0,0 -0.40363,4.48707 -0.40363,4.48707 l 0,0 c -0.0236,-0.0247 -0.0474,-0.0493 -0.071,-0.074 -0.33756,-0.3347 -0.65554,-0.67722 -1.03428,-0.97018 -1.37967,-1.06722 -2.92154,-1.90837 -4.38899,-2.84152 -4.36054,-2.5338 -8.7486,-5.08596 -13.42488,-6.99814 0,0 0.22766,-4.49942 0.22766,-4.49942 z"
       inkscape:connector-curvature="0"
       inkscape:transform-center-x="12.690209"
       inkscape:transform-center-y="2.0191201" />
    <path
       style="opacity:1;fill:#000000;fill-opacity:1;fill-rule:nonzero;stroke:#000000;stroke-width:0;stroke-linecap:butt;stroke-linejoin:miter;stroke-miterlimit:4;stroke-dasharray:none;stroke-dashoffset:0;stroke-opacity:1"
       id="path4336"
       d="m -55.591418,259.51098 c 26.186022,-0.11256 52.3659344,0.55977 78.552995,0.46368 18.284328,-0.0671 28.360125,-0.34024 45.970424,-0.70572 0,0 -11.835113,4.72261 -11.835113,4.72261 l 0,0 c -17.804034,0.3593 -27.448067,0.61853 -45.981653,0.67748 -26.180535,0.0833 -52.355199,-0.6188 -78.53449,-0.41726 0,0 11.827837,-4.74079 11.827837,-4.74079 z"
       inkscape:connector-curvature="0" />
    <path
       style="opacity:1;fill:#000000;fill-opacity:1;fill-rule:nonzero;stroke:#000000;stroke-width:0;stroke-linecap:butt;stroke-linejoin:miter;stroke-miterlimit:4;stroke-dasharray:none;stroke-dashoffset:0;stroke-opacity:1"
       id="path4338"
       d="m -54.304705,261.52749 c -0.207256,18.39 -0.838605,36.7796 -0.780207,55.17218 0.0304,9.57669 0.285184,19.15136 0.427771,28.72704 0.555393,22.16539 1.617998,44.3114 2.784803,66.45108 0,0 -12.419035,2.85313 -12.419035,2.85313 l 0,0 c -1.170214,-22.1553 -2.235077,-44.31694 -2.795475,-66.49795 -0.144988,-9.58635 -0.40294,-19.17166 -0.434965,-28.75906 -0.06144,-18.39505 0.571714,-36.78717 0.778541,-55.17964 0,0 12.438567,-2.76678 12.438567,-2.76678 z"
       inkscape:connector-curvature="0" />
    <path
       style="opacity:1;fill:#000000;fill-opacity:1;fill-rule:nonzero;stroke:#000000;stroke-width:0;stroke-linecap:butt;stroke-linejoin:miter;stroke-miterlimit:4;stroke-dasharray:none;stroke-dashoffset:0;stroke-opacity:1"
       id="path4340"
       d="m -54.096685,408.14585 c 19.777857,0.25233 39.521669,1.43752 59.3069463,1.39972 7.1971897,-0.0137 14.3925347,-0.2321 21.5887977,-0.34815 14.552214,-0.52216 29.104866,-1.25377 43.607926,-2.58642 1.794844,-0.16492 3.586342,-0.36598 5.376207,-0.57823 0.839144,-0.0995 3.325708,-0.57692 2.509819,-0.35693 -3.755093,1.01255 -7.561162,1.82562 -11.341738,2.73843 0.04855,0.14088 0.09703,0.28176 0.145543,0.42265 0,0 12.492775,-2.51067 12.492775,-2.51067 l 0,0 c 0.01517,0.28852 0.03034,0.57704 0.04551,0.86556 -4.374252,1.11361 -8.727789,2.31195 -13.122735,3.34081 -0.825873,0.19333 -1.681041,0.22905 -2.524118,0.32212 -1.794199,0.19809 -3.589092,0.39225 -5.387168,0.55136 -14.516227,1.28459 -29.076196,2.02608 -43.639506,2.50787 -7.2007735,0.10473 -14.40078034,0.31059 -21.6022889,0.31409 -19.7843471,0.01 -39.5304601,-1.16823 -59.3085261,-1.40367 0,0 11.852594,-4.67854 11.852594,-4.67854 z"
       inkscape:connector-curvature="0" />
    <path
       inkscape:connector-curvature="0"
       d="m 72.466545,256.90367 c -0.207256,18.39001 -0.838604,36.77961 -0.780206,55.17218 0.0304,9.5767 0.285184,19.15137 0.42777,28.72705 0.555399,22.16538 1.618004,44.31139 2.78481,66.45104 0,0 -12.41904,2.85312 -12.41904,2.85312 l 0,0 c -1.170215,-22.15525 -2.235078,-44.31689 -2.795476,-66.4979 -0.144988,-9.58635 -0.40294,-19.17166 -0.434965,-28.75906 -0.06144,-18.39505 0.571714,-36.78717 0.778541,-55.17964 0,0 12.438566,-2.76679 12.438566,-2.76679 z"
       id="path4342"
       style="opacity:1;fill:#000000;fill-opacity:1;fill-rule:nonzero;stroke:#000000;stroke-width:0;stroke-linecap:butt;stroke-linejoin:miter;stroke-miterlimit:4;stroke-dasharray:none;stroke-dashoffset:0;stroke-opacity:1" />
    <path
       inkscape:connector-curvature="0"
       d="m -56.86806,290.97563 c 26.186022,-0.11256 52.365934,0.55977 78.552995,0.46368 18.284327,-0.0671 28.360124,-0.34024 45.970424,-0.70572 0,0 -11.835114,4.72261 -11.835114,4.72261 l 0,0 c -17.804033,0.35931 -27.448067,0.61854 -45.9816524,0.67748 -26.1805356,0.0833 -52.3551996,-0.6188 -78.5344896,-0.41725 0,0 11.827837,-4.7408 11.827837,-4.7408 z"
       id="path4344"
       style="opacity:1;fill:#000000;fill-opacity:1;fill-rule:nonzero;stroke:#000000;stroke-width:0;stroke-linecap:butt;stroke-linejoin:miter;stroke-miterlimit:4;stroke-dasharray:none;stroke-dashoffset:0;stroke-opacity:1" />
    <text
       xml:space="preserve"
       style="font-style:normal;font-weight:normal;font-size:30px;line-height:125%;font-family:sans-serif;letter-spacing:0px;word-spacing:0px;fill:#000000;fill-opacity:1;stroke:none;stroke-width:1px;stroke-linecap:butt;stroke-linejoin:miter;stroke-opacity:1"
       x="-36.843723"
       y="283.4693"
       id="text4346"
       sodipodi:linespacing="125%"
       transform="matrix(0.99985978,0.01674588,-0.01674588,0.99985978,0,0)"><tspan
         sodipodi:role="line"
         id="tspan4348"
         x="-36.843723"
         y="283.4693"
         style="font-size:15px">GunState</tspan></text>
    <path
       inkscape:connector-curvature="0"
       d="m 95.965168,257.93871 c 26.186022,-0.11255 52.365932,0.55978 78.553002,0.46369 18.28433,-0.0671 28.36013,-0.34024 45.97043,-0.70573 0,0 -11.83512,4.72262 -11.83512,4.72262 l 0,0 c -17.80403,0.3593 -27.44806,0.61853 -45.98165,0.67748 -26.18054,0.0833 -52.35521,-0.6188 -78.5345,-0.41726 0,0 11.827838,-4.7408 11.827838,-4.7408 z"
       id="path4350"
       style="opacity:1;fill:#000000;fill-opacity:1;fill-rule:nonzero;stroke:#000000;stroke-width:0;stroke-linecap:butt;stroke-linejoin:miter;stroke-miterlimit:4;stroke-dasharray:none;stroke-dashoffset:0;stroke-opacity:1" />
    <path
       inkscape:connector-curvature="0"
       d="m 97.25188,259.95522 c -0.207256,18.39001 -0.838605,36.77961 -0.780206,55.17218 0.0304,9.5767 0.285183,19.15137 0.42777,28.72705 0.555399,22.16539 1.618003,44.31139 2.784808,66.45108 0,0 -12.419039,2.85313 -12.419039,2.85313 l 0,0 c -1.170214,-22.1553 -2.235077,-44.31694 -2.795475,-66.49795 -0.144989,-9.58635 -0.40294,-19.17166 -0.434965,-28.75906 -0.06144,-18.39505 0.571713,-36.78717 0.778541,-55.17964 0,0 12.438566,-2.76679 12.438566,-2.76679 z"
       id="path4352"
       style="opacity:1;fill:#000000;fill-opacity:1;fill-rule:nonzero;stroke:#000000;stroke-width:0;stroke-linecap:butt;stroke-linejoin:miter;stroke-miterlimit:4;stroke-dasharray:none;stroke-dashoffset:0;stroke-opacity:1" />
    <path
       inkscape:connector-curvature="0"
       d="m 97.459905,406.57359 c 19.777855,0.25233 39.521665,1.43752 59.306955,1.39972 7.19719,-0.0138 14.39253,-0.2321 21.58879,-0.34816 14.55222,-0.52215 29.10487,-1.25376 43.60793,-2.58641 1.79484,-0.16492 3.58634,-0.36598 5.37621,-0.57823 0.83914,-0.0995 3.32571,-0.57693 2.50982,-0.35693 -3.7551,1.01255 -7.56117,1.82562 -11.34174,2.73843 0.0486,0.14088 0.097,0.28176 0.14554,0.42265 0,0 12.49278,-2.51067 12.49278,-2.51067 l 0,0 c 0.0152,0.28852 0.0303,0.57704 0.0455,0.86556 -4.37425,1.11361 -8.72779,2.31195 -13.12274,3.34081 -0.82587,0.19333 -1.68104,0.22905 -2.52411,0.32212 -1.7942,0.19809 -3.5891,0.39225 -5.38717,0.55136 -14.51623,1.28459 -29.0762,2.02607 -43.63951,2.50787 -7.20077,0.10473 -14.40078,0.31059 -21.6023,0.31409 -19.78434,0.01 -39.53046,-1.16823 -59.308523,-1.40367 0,0 11.852598,-4.67854 11.852598,-4.67854 z"
       id="path4354"
       style="opacity:1;fill:#000000;fill-opacity:1;fill-rule:nonzero;stroke:#000000;stroke-width:0;stroke-linecap:butt;stroke-linejoin:miter;stroke-miterlimit:4;stroke-dasharray:none;stroke-dashoffset:0;stroke-opacity:1" />
    <path
       style="opacity:1;fill:#000000;fill-opacity:1;fill-rule:nonzero;stroke:#000000;stroke-width:0;stroke-linecap:butt;stroke-linejoin:miter;stroke-miterlimit:4;stroke-dasharray:none;stroke-dashoffset:0;stroke-opacity:1"
       id="path4356"
       d="m 224.02314,255.33141 c -0.20726,18.39001 -0.8386,36.77961 -0.78021,55.17217 0.0304,9.57671 0.28519,19.15137 0.42777,28.72705 0.5554,22.16539 1.61801,44.3114 2.78481,66.45105 0,0 -12.41904,2.85312 -12.41904,2.85312 l 0,0 c -1.17021,-22.15525 -2.23507,-44.31689 -2.79547,-66.4979 -0.14499,-9.58635 -0.40294,-19.17166 -0.43497,-28.75906 -0.0614,-18.39505 0.57172,-36.78717 0.77854,-55.17964 0,0 12.43857,-2.76679 12.43857,-2.76679 z"
       inkscape:connector-curvature="0" />
    <path
       style="opacity:1;fill:#000000;fill-opacity:1;fill-rule:nonzero;stroke:#000000;stroke-width:0;stroke-linecap:butt;stroke-linejoin:miter;stroke-miterlimit:4;stroke-dasharray:none;stroke-dashoffset:0;stroke-opacity:1"
       id="path4358"
       d="m 94.688525,289.40337 c 26.186025,-0.11256 52.365935,0.55977 78.553005,0.46368 18.28433,-0.0671 28.36012,-0.34024 45.97042,-0.70572 0,0 -11.83511,4.72261 -11.83511,4.72261 l 0,0 c -17.80403,0.35931 -27.44807,0.61854 -45.98165,0.67748 -26.18055,0.0833 -52.35521,-0.6188 -78.534502,-0.41726 0,0 11.827837,-4.74079 11.827837,-4.74079 z"
       inkscape:connector-curvature="0" />
    <text
       sodipodi:linespacing="125%"
       id="text4360"
       y="279.35931"
       x="114.66528"
       style="font-style:normal;font-weight:normal;font-size:30px;line-height:125%;font-family:sans-serif;letter-spacing:0px;word-spacing:0px;fill:#000000;fill-opacity:1;stroke:none;stroke-width:1px;stroke-linecap:butt;stroke-linejoin:miter;stroke-opacity:1"
       xml:space="preserve"
       transform="matrix(0.99985978,0.01674588,-0.01674588,0.99985978,0,0)"><tspan
         style="font-size:15px"
         y="279.35931"
         x="114.66528"
         id="tspan4362"
         sodipodi:role="line">GemState</tspan></text>
    <path
       inkscape:connector-curvature="0"
       d="m 248.52084,257.21117 c 26.18601,-0.11255 52.36593,0.55978 78.553,0.46369 18.28432,-0.0671 28.36012,-0.34024 45.97042,-0.70572 0,0 -11.83511,4.72261 -11.83511,4.72261 l 0,0 c -17.80404,0.3593 -27.44807,0.61853 -45.98166,0.67748 -26.18054,0.0833 -52.3552,-0.6188 -78.53449,-0.41726 0,0 11.82784,-4.7408 11.82784,-4.7408 z"
       id="path4364"
       style="opacity:1;fill:#000000;fill-opacity:1;fill-rule:nonzero;stroke:#000000;stroke-width:0;stroke-linecap:butt;stroke-linejoin:miter;stroke-miterlimit:4;stroke-dasharray:none;stroke-dashoffset:0;stroke-opacity:1" />
    <path
       inkscape:connector-curvature="0"
       d="m 249.80755,259.22768 c -0.20726,18.39001 -0.83861,36.77961 -0.78021,55.17218 0.0304,9.5767 0.28519,19.15137 0.42777,28.72705 0.5554,22.16539 1.61801,44.3114 2.78481,66.45108 0,0 -12.41904,2.85313 -12.41904,2.85313 l 0,0 c -1.17021,-22.1553 -2.23508,-44.31694 -2.79547,-66.49795 -0.14499,-9.58635 -0.40294,-19.17166 -0.43497,-28.75906 -0.0614,-18.39505 0.57171,-36.78717 0.77854,-55.17964 0,0 12.43857,-2.76679 12.43857,-2.76679 z"
       id="path4366"
       style="opacity:1;fill:#000000;fill-opacity:1;fill-rule:nonzero;stroke:#000000;stroke-width:0;stroke-linecap:butt;stroke-linejoin:miter;stroke-miterlimit:4;stroke-dasharray:none;stroke-dashoffset:0;stroke-opacity:1" />
    <path
       inkscape:connector-curvature="0"
       d="m 250.01557,405.84605 c 19.77786,0.25233 39.52166,1.43752 59.30695,1.39972 7.19719,-0.0138 14.39254,-0.2321 21.5888,-0.34815 14.55221,-0.52216 29.10486,-1.25377 43.60792,-2.58642 1.79485,-0.16492 3.58635,-0.36598 5.37621,-0.57823 0.83915,-0.0995 3.32571,-0.57692 2.50982,-0.35693 -3.75509,1.01255 -7.56116,1.82562 -11.34174,2.73843 0.0485,0.14088 0.097,0.28176 0.14555,0.42265 0,0 12.49277,-2.51067 12.49277,-2.51067 l 0,0 c 0.0152,0.28852 0.0303,0.57704 0.0455,0.86556 -4.37425,1.11361 -8.72779,2.31195 -13.12273,3.34081 -0.82588,0.19333 -1.68104,0.22905 -2.52412,0.32212 -1.7942,0.19809 -3.58909,0.39225 -5.38717,0.55136 -14.51623,1.28459 -29.07619,2.02608 -43.63951,2.50787 -7.20077,0.10473 -14.40078,0.31059 -21.60229,0.31409 -19.78435,0.01 -39.53045,-1.16823 -59.30852,-1.40367 0,0 11.85259,-4.67854 11.85259,-4.67854 z"
       id="path4368"
       style="opacity:1;fill:#000000;fill-opacity:1;fill-rule:nonzero;stroke:#000000;stroke-width:0;stroke-linecap:butt;stroke-linejoin:miter;stroke-miterlimit:4;stroke-dasharray:none;stroke-dashoffset:0;stroke-opacity:1" />
    <path
       style="opacity:1;fill:#000000;fill-opacity:1;fill-rule:nonzero;stroke:#000000;stroke-width:0;stroke-linecap:butt;stroke-linejoin:miter;stroke-miterlimit:4;stroke-dasharray:none;stroke-dashoffset:0;stroke-opacity:1"
       id="path4370"
       d="m 376.5788,254.60387 c -0.20725,18.39001 -0.8386,36.77961 -0.7802,55.17217 0.0304,9.57671 0.28518,19.15138 0.42777,28.72706 0.5554,22.16538 1.618,44.31139 2.78481,66.45104 0,0 -12.41904,2.85312 -12.41904,2.85312 l 0,0 c -1.17022,-22.15525 -2.23508,-44.31689 -2.79548,-66.4979 -0.14499,-9.58635 -0.40294,-19.17166 -0.43496,-28.75907 -0.0614,-18.39504 0.57171,-36.78716 0.77854,-55.17963 0,0 12.43856,-2.76679 12.43856,-2.76679 z"
       inkscape:connector-curvature="0" />
    <path
       style="opacity:1;fill:#000000;fill-opacity:1;fill-rule:nonzero;stroke:#000000;stroke-width:0;stroke-linecap:butt;stroke-linejoin:miter;stroke-miterlimit:4;stroke-dasharray:none;stroke-dashoffset:0;stroke-opacity:1"
       id="path4372"
       d="m 247.24419,288.67583 c 26.18603,-0.11256 52.36593,0.55977 78.553,0.46368 18.28433,-0.0671 28.36013,-0.34024 45.97043,-0.70572 0,0 -11.83512,4.72261 -11.83512,4.72261 l 0,0 c -17.80403,0.35931 -27.44806,0.61854 -45.98165,0.67748 -26.18054,0.0833 -52.3552,-0.6188 -78.53449,-0.41725 0,0 11.82783,-4.7408 11.82783,-4.7408 z"
       inkscape:connector-curvature="0" />
    <text
       sodipodi:linespacing="125%"
       id="text4374"
       y="276.07718"
       x="267.18735"
       style="font-style:normal;font-weight:normal;font-size:30px;line-height:125%;font-family:sans-serif;letter-spacing:0px;word-spacing:0px;fill:#000000;fill-opacity:1;stroke:none;stroke-width:1px;stroke-linecap:butt;stroke-linejoin:miter;stroke-opacity:1"
       xml:space="preserve"
       transform="matrix(0.99985978,0.01674588,-0.01674588,0.99985978,0,0)"><tspan
         style="font-size:15px"
         y="276.07718"
         x="267.18735"
         id="tspan4376"
         sodipodi:role="line">AbilityState</tspan></text>
    <path
       style="opacity:1;fill:#000000;fill-opacity:1;fill-rule:nonzero;stroke:#000000;stroke-width:0;stroke-linecap:butt;stroke-linejoin:miter;stroke-miterlimit:4;stroke-dasharray:none;stroke-dashoffset:0;stroke-opacity:1"
       id="path4378"
       d="m 404.03384,252.75821 c 26.18603,-0.11255 52.36594,0.55978 78.55301,0.46369 18.28433,-0.0671 28.36013,-0.34024 45.97043,-0.70573 0,0 -11.83512,4.72262 -11.83512,4.72262 l 0,0 c -17.80403,0.3593 -27.44806,0.61853 -45.98165,0.67748 -26.18055,0.0833 -52.35521,-0.6188 -78.53451,-0.41726 0,0 11.82784,-4.7408 11.82784,-4.7408 z"
       inkscape:connector-curvature="0" />
    <path
       style="opacity:1;fill:#000000;fill-opacity:1;fill-rule:nonzero;stroke:#000000;stroke-width:0;stroke-linecap:butt;stroke-linejoin:miter;stroke-miterlimit:4;stroke-dasharray:none;stroke-dashoffset:0;stroke-opacity:1"
       id="path4380"
       d="m 405.32055,254.77472 c -0.20725,18.39001 -0.8386,36.77961 -0.7802,55.17217 0.0304,9.57671 0.28518,19.15137 0.42777,28.72705 0.5554,22.16538 1.618,44.31139 2.78481,66.45108 0,0 -12.41904,2.85313 -12.41904,2.85313 l 0,0 c -1.17022,-22.1553 -2.23508,-44.31694 -2.79548,-66.49795 -0.14499,-9.58635 -0.40294,-19.17166 -0.43496,-28.75906 -0.0614,-18.39504 0.57171,-36.78716 0.77854,-55.17963 0,0 12.43856,-2.76679 12.43856,-2.76679 z"
       inkscape:connector-curvature="0" />
    <path
       style="opacity:1;fill:#000000;fill-opacity:1;fill-rule:nonzero;stroke:#000000;stroke-width:0;stroke-linecap:butt;stroke-linejoin:miter;stroke-miterlimit:4;stroke-dasharray:none;stroke-dashoffset:0;stroke-opacity:1"
       id="path4382"
       d="m 405.52858,401.39308 c 19.77786,0.25233 39.52167,1.43752 59.30696,1.39972 7.19719,-0.0138 14.39253,-0.2321 21.58879,-0.34816 14.55222,-0.52215 29.10487,-1.25377 43.60793,-2.58642 1.79484,-0.16491 3.58634,-0.36597 5.37621,-0.57822 0.83914,-0.0995 3.3257,-0.57693 2.50982,-0.35693 -3.7551,1.01255 -7.56117,1.82562 -11.34174,2.73843 0.0485,0.14088 0.097,0.28176 0.14554,0.42265 0,0 12.49278,-2.51067 12.49278,-2.51067 l 0,0 c 0.0152,0.28852 0.0303,0.57703 0.0455,0.86556 -4.37425,1.1136 -8.72779,2.31195 -13.12274,3.34081 -0.82587,0.19333 -1.68104,0.22905 -2.52412,0.32212 -1.79419,0.19808 -3.58909,0.39224 -5.38716,0.55136 -14.51623,1.28459 -29.0762,2.02607 -43.63951,2.50787 -7.20077,0.10473 -14.40078,0.31059 -21.6023,0.31409 -19.78435,0.01 -39.53046,-1.16824 -59.30853,-1.40367 0,0 11.8526,-4.67854 11.8526,-4.67854 z"
       inkscape:connector-curvature="0" />
    <path
       inkscape:connector-curvature="0"
       d="m 532.09182,250.15091 c -0.20726,18.39001 -0.8386,36.77961 -0.78021,55.17217 0.0304,9.57669 0.28519,19.15136 0.42777,28.72704 0.5554,22.16539 1.61801,44.3114 2.78481,66.45105 0,0 -12.41904,2.85312 -12.41904,2.85312 l 0,0 c -1.17021,-22.15525 -2.23507,-44.31689 -2.79547,-66.4979 -0.14499,-9.58635 -0.40294,-19.17166 -0.43497,-28.75907 -0.0614,-18.39503 0.57172,-36.78715 0.77854,-55.17963 0,0 12.43857,-2.76678 12.43857,-2.76678 z"
       id="path4384"
       style="opacity:1;fill:#000000;fill-opacity:1;fill-rule:nonzero;stroke:#000000;stroke-width:0;stroke-linecap:butt;stroke-linejoin:miter;stroke-miterlimit:4;stroke-dasharray:none;stroke-dashoffset:0;stroke-opacity:1" />
    <path
       inkscape:connector-curvature="0"
       d="m 402.7572,284.22287 c 26.18603,-0.11256 52.36594,0.55977 78.55301,0.46368 18.28433,-0.0671 28.36012,-0.34024 45.97042,-0.70572 0,0 -11.83511,4.72261 -11.83511,4.72261 l 0,0 c -17.80403,0.35931 -27.44807,0.61854 -45.98165,0.67748 -26.18055,0.0833 -52.35521,-0.6188 -78.53451,-0.41726 0,0 11.82784,-4.74079 11.82784,-4.74079 z"
       id="path4386"
       style="opacity:1;fill:#000000;fill-opacity:1;fill-rule:nonzero;stroke:#000000;stroke-width:0;stroke-linecap:butt;stroke-linejoin:miter;stroke-miterlimit:4;stroke-dasharray:none;stroke-dashoffset:0;stroke-opacity:1" />
    <text
       xml:space="preserve"
       style="font-style:normal;font-weight:normal;font-size:30px;line-height:125%;font-family:sans-serif;letter-spacing:0px;word-spacing:0px;fill:#000000;fill-opacity:1;stroke:none;stroke-width:1px;stroke-linecap:butt;stroke-linejoin:miter;stroke-opacity:1"
       x="422.60403"
       y="269.02063"
       id="text4388"
       sodipodi:linespacing="125%"
       transform="matrix(0.99985978,0.01674588,-0.01674588,0.99985978,0,0)"><tspan
         sodipodi:role="line"
         id="tspan4390"
         x="422.60403"
         y="269.02063"
         style="font-size:15px">EquipState</tspan></text>
    <path
       inkscape:connector-curvature="0"
       d="m -204.90026,265.20339 c 26.18603,-0.11256 52.36594,0.55977 78.55301,0.46368 18.28433,-0.0671 28.360131,-0.34024 45.970434,-0.70572 0,0 -11.835118,4.72261 -11.835118,4.72261 l 0,0 c -17.804036,0.35931 -27.448066,0.61853 -45.981656,0.67748 -26.18055,0.0833 -52.35521,-0.6188 -78.53451,-0.41726 0,0 11.82784,-4.74079 11.82784,-4.74079 z"
       id="path7944"
       style="opacity:1;fill:#000000;fill-opacity:1;fill-rule:nonzero;stroke:#000000;stroke-width:0;stroke-linecap:butt;stroke-linejoin:miter;stroke-miterlimit:4;stroke-dasharray:none;stroke-dashoffset:0;stroke-opacity:1" />
    <path
       inkscape:connector-curvature="0"
       d="m -203.61355,267.2199 c -0.20725,18.39 -0.8386,36.7796 -0.7802,55.17217 0.0304,9.57669 0.28518,19.15136 0.42777,28.72704 0.5554,22.16539 1.618,44.3114 2.78481,66.45108 0,0 -12.41904,2.85313 -12.41904,2.85313 l 0,0 c -1.17022,-22.1553 -2.23508,-44.31694 -2.79548,-66.49795 -0.14499,-9.58635 -0.40294,-19.17167 -0.43496,-28.75906 -0.0614,-18.39504 0.57171,-36.78716 0.77854,-55.17963 0,0 12.43856,-2.76678 12.43856,-2.76678 z"
       id="path7946"
       style="opacity:1;fill:#000000;fill-opacity:1;fill-rule:nonzero;stroke:#000000;stroke-width:0;stroke-linecap:butt;stroke-linejoin:miter;stroke-miterlimit:4;stroke-dasharray:none;stroke-dashoffset:0;stroke-opacity:1" />
    <path
       inkscape:connector-curvature="0"
       d="m -203.40552,413.83825 c 19.77786,0.25233 39.52167,1.43752 59.30696,1.39972 7.19719,-0.0138 14.39253,-0.2321 21.58879,-0.34815 14.55222,-0.52216 29.104878,-1.25377 43.607938,-2.58642 1.794843,-0.16492 3.586341,-0.36598 5.376206,-0.57823 0.839144,-0.0995 3.325708,-0.57692 2.509819,-0.35693 -3.755092,1.01255 -7.561161,1.82562 -11.341737,2.73843 0.04855,0.14088 0.09703,0.28176 0.145542,0.42265 0,0 12.492776,-2.51067 12.492776,-2.51067 l 0,0 c 0.01517,0.28852 0.03034,0.57704 0.04551,0.86556 -4.374251,1.11361 -8.727789,2.31195 -13.122734,3.34081 -0.825874,0.19333 -1.681042,0.22905 -2.524119,0.32212 -1.794198,0.19809 -3.589091,0.39225 -5.387168,0.55136 -14.516233,1.28459 -29.076203,2.02608 -43.639513,2.50787 -7.20077,0.10473 -14.40078,0.31059 -21.6023,0.31409 -19.78435,0.01 -39.53046,-1.16823 -59.30853,-1.40367 0,0 11.8526,-4.67854 11.8526,-4.67854 z"
       id="path7948"
       style="opacity:1;fill:#000000;fill-opacity:1;fill-rule:nonzero;stroke:#000000;stroke-width:0;stroke-linecap:butt;stroke-linejoin:miter;stroke-miterlimit:4;stroke-dasharray:none;stroke-dashoffset:0;stroke-opacity:1" />
    <path
       style="opacity:1;fill:#000000;fill-opacity:1;fill-rule:nonzero;stroke:#000000;stroke-width:0;stroke-linecap:butt;stroke-linejoin:miter;stroke-miterlimit:4;stroke-dasharray:none;stroke-dashoffset:0;stroke-opacity:1"
       id="path7950"
       d="m -76.842272,262.59608 c -0.207256,18.39001 -0.838605,36.77961 -0.780206,55.17217 0.0304,9.5767 0.285183,19.15137 0.42777,28.72705 0.555399,22.16538 1.618003,44.31139 2.784809,66.45104 0,0 -12.41904,2.85312 -12.41904,2.85312 l 0,0 c -1.170214,-22.15525 -2.235077,-44.31689 -2.795476,-66.4979 -0.144988,-9.58635 -0.40294,-19.17166 -0.434965,-28.75906 -0.06144,-18.39504 0.571714,-36.78716 0.778541,-55.17963 0,0 12.438567,-2.76679 12.438567,-2.76679 z"
       inkscape:connector-curvature="0" />
    <path
       style="opacity:1;fill:#000000;fill-opacity:1;fill-rule:nonzero;stroke:#000000;stroke-width:0;stroke-linecap:butt;stroke-linejoin:miter;stroke-miterlimit:4;stroke-dasharray:none;stroke-dashoffset:0;stroke-opacity:1"
       id="path7952"
       d="m -206.1769,296.66804 c 26.18603,-0.11256 52.36594,0.55977 78.55301,0.46368 18.28433,-0.0671 28.360125,-0.34024 45.970431,-0.70572 0,0 -11.835118,4.72261 -11.835118,4.72261 l 0,0 c -17.804033,0.35931 -27.448073,0.61854 -45.981653,0.67748 -26.18055,0.0833 -52.35521,-0.6188 -78.53451,-0.41725 0,0 11.82784,-4.7408 11.82784,-4.7408 z"
       inkscape:connector-curvature="0" />
    <text
       sodipodi:linespacing="125%"
       id="text7954"
       y="291.66122"
       x="-199.52841"
       style="font-style:normal;font-weight:normal;font-size:30px;line-height:125%;font-family:sans-serif;letter-spacing:0px;word-spacing:0px;fill:#000000;fill-opacity:1;stroke:none;stroke-width:1px;stroke-linecap:butt;stroke-linejoin:miter;stroke-opacity:1"
       xml:space="preserve"
       transform="matrix(0.99985978,0.01674588,-0.01674588,0.99985978,0,0)"><tspan
         style="font-size:15px"
         y="291.66122"
         x="-199.52841"
         id="tspan7956"
         sodipodi:role="line">CharacterState</tspan></text>
    <path
       inkscape:connector-curvature="0"
       d="m 226.58251,551.73685 c -22.07717,2.20829 -45.23833,2.48599 -68.07734,2.79431 -10.32671,0.0827 -20.66955,0.0871 -31.01469,-0.0866 -4.62826,-0.0777 -9.00227,-0.21908 -13.57823,-0.52121 -2.76218,-0.24766 -1.54977,-0.11807 -3.65168,-0.36449 0,0 -2.33245,-4.44694 -2.33245,-4.44694 l 0,0 c 1.98835,0.25824 0.82976,0.12289 3.49604,0.3751 4.60709,0.31983 8.7424,0.45265 13.42041,0.53287 10.31919,0.17683 20.63628,0.17352 30.93731,0.0927 22.78561,-0.30442 45.89414,-0.57623 67.9185,-2.78122 0,0 2.88213,4.40553 2.88213,4.40553 z"
       id="path7958"
       style="opacity:1;fill:#000000;fill-opacity:1;fill-rule:nonzero;stroke:#000000;stroke-width:0;stroke-linecap:butt;stroke-linejoin:miter;stroke-miterlimit:4;stroke-dasharray:none;stroke-dashoffset:0;stroke-opacity:1" />
    <path
       inkscape:connector-curvature="0"
       d="m 226.16756,551.91083 c -5.02783,-0.65549 -9.93885,-2.00349 -14.81911,-3.34464 -2.1323,-0.67668 -4.36554,-1.17087 -6.32575,-2.2876 -0.0309,-0.0175 -0.0618,-0.0351 -0.0926,-0.0526 0,0 -0.75012,-4.4423 -0.75012,-4.4423 l 0,0 c 0.0291,0.0179 0.0583,0.0357 0.0874,0.0536 0.41154,0.23791 0.80614,0.48835 1.2469,0.67543 1.60562,0.68149 3.31065,1.10312 4.96709,1.63263 4.86136,1.34226 9.75399,2.69528 14.76273,3.35608 0,0 0.92345,4.40951 0.92345,4.40951 z"
       id="path7960"
       style="opacity:1;fill:#000000;fill-opacity:1;fill-rule:nonzero;stroke:#000000;stroke-width:0;stroke-linecap:butt;stroke-linejoin:miter;stroke-miterlimit:4;stroke-dasharray:none;stroke-dashoffset:0;stroke-opacity:1" />
    <path
       style="opacity:1;fill:#000000;fill-opacity:1;fill-rule:nonzero;stroke:#000000;stroke-width:0;stroke-linecap:butt;stroke-linejoin:miter;stroke-miterlimit:4;stroke-dasharray:none;stroke-dashoffset:0;stroke-opacity:1"
       id="path7962"
       d="m 225.37692,548.10424 c -4.75749,1.75358 -9.24758,4.15653 -13.70921,6.54599 -1.92929,1.13247 -3.99744,2.10935 -5.66139,3.63277 -0.0263,0.024 -0.0525,0.0479 -0.0786,0.0719 0,0 0.25314,4.49807 0.25314,4.49807 l 0,0 c 0.0244,-0.0239 0.049,-0.0477 0.0734,-0.0716 0.34858,-0.32321 0.67785,-0.65488 1.06618,-0.935 1.41464,-1.02042 2.98381,-1.80946 4.48169,-2.69294 4.44294,-2.38637 8.914,-4.79015 13.6517,-6.54466 0,0 -0.0769,-4.50452 -0.0769,-4.50452 z"
       inkscape:connector-curvature="0" />
    <path
       inkscape:connector-curvature="0"
       d="m 829.3345,550.58686 c -22.07716,2.20829 -45.23832,2.48599 -68.07733,2.79432 -10.32672,0.0827 -20.66955,0.087 -31.01469,-0.0866 -4.62826,-0.0777 -9.00228,-0.21909 -13.57823,-0.52122 -2.76218,-0.24766 -1.54977,-0.11806 -3.65169,-0.36449 0,0 -2.33245,-4.44694 -2.33245,-4.44694 l 0,0 c 1.98836,0.25824 0.82976,0.12289 3.49604,0.37511 4.60709,0.31982 8.74241,0.45264 13.42042,0.53287 10.31919,0.17683 20.63628,0.17352 30.93731,0.0927 22.78561,-0.30441 45.89413,-0.57623 67.91849,-2.78122 0,0 2.88213,4.40553 2.88213,4.40553 z"
       id="path7964"
       style="opacity:1;fill:#000000;fill-opacity:1;fill-rule:nonzero;stroke:#000000;stroke-width:0;stroke-linecap:butt;stroke-linejoin:miter;stroke-miterlimit:4;stroke-dasharray:none;stroke-dashoffset:0;stroke-opacity:1" />
    <path
       inkscape:connector-curvature="0"
       d="m 828.91955,550.76085 c -5.02783,-0.6555 -9.93884,-2.0035 -14.81911,-3.34464 -2.13229,-0.67668 -4.36553,-1.17088 -6.32575,-2.2876 -0.0309,-0.0175 -0.0618,-0.0351 -0.0926,-0.0527 0,0 -0.75011,-4.4423 -0.75011,-4.4423 l 0,0 c 0.0291,0.0179 0.0583,0.0357 0.0874,0.0536 0.41155,0.2379 0.80615,0.48834 1.24691,0.67542 1.60562,0.68149 3.31065,1.10313 4.96708,1.63264 4.86137,1.34225 9.754,2.69528 14.76273,3.35607 0,0 0.92345,4.40952 0.92345,4.40952 z"
       id="path7966"
       style="opacity:1;fill:#000000;fill-opacity:1;fill-rule:nonzero;stroke:#000000;stroke-width:0;stroke-linecap:butt;stroke-linejoin:miter;stroke-miterlimit:4;stroke-dasharray:none;stroke-dashoffset:0;stroke-opacity:1" />
    <path
       style="opacity:1;fill:#000000;fill-opacity:1;fill-rule:nonzero;stroke:#000000;stroke-width:0;stroke-linecap:butt;stroke-linejoin:miter;stroke-miterlimit:4;stroke-dasharray:none;stroke-dashoffset:0;stroke-opacity:1"
       id="path7968"
       d="m 828.12892,546.95425 c -4.7575,1.75358 -9.24759,4.15654 -13.70921,6.546 -1.92929,1.13246 -3.99745,2.10934 -5.66139,3.63276 -0.0263,0.024 -0.0525,0.0479 -0.0786,0.0719 0,0 0.25314,4.49807 0.25314,4.49807 l 0,0 c 0.0244,-0.0239 0.049,-0.0477 0.0734,-0.0716 0.34858,-0.3232 0.67785,-0.65488 1.06619,-0.93499 1.41464,-1.02043 2.98381,-1.80947 4.48168,-2.69295 4.44295,-2.38636 8.91401,-4.79015 13.6517,-6.54466 0,0 -0.0769,-4.50452 -0.0769,-4.50452 z"
       inkscape:connector-curvature="0" />
    <path
       style="opacity:1;fill:#000000;fill-opacity:1;fill-rule:nonzero;stroke:#000000;stroke-width:0;stroke-linecap:butt;stroke-linejoin:miter;stroke-miterlimit:4;stroke-dasharray:none;stroke-dashoffset:0;stroke-opacity:1"
       id="path8006"
       d="m -152.49552,442.56869 c 24.31229,-0.71352 48.64669,-0.56458 72.967873,-0.58695 42.22477,2.9e-4 84.4495321,0.0318 126.6743,0.046 4.238635,0.10191 8.480046,0.12159 12.715906,0.30574 7.864954,0.34192 11.453669,0.82024 19.072853,1.58621 4.518282,0.45422 10.528988,1.1399 15.144365,1.25957 1.910074,0.0495 3.820566,-0.0814 5.730846,-0.12204 2.144267,-0.1716 4.293007,-0.29426 6.432797,-0.51479 18.22785,-1.87859 -1.8881,-0.30618 21.69808,-2.27666 19.87932,-1.6608 39.79848,-2.9056 59.69832,-4.28919 5.79999,-0.36034 11.59981,-0.72351 17.39997,-1.08103 9.2574,-0.57062 16.81487,-1.08103 25.99025,-1.43593 11.01186,-0.42593 22.02467,-0.45076 33.04254,-0.46382 20.28878,-0.28565 40.57797,-0.43956 60.86863,-0.48457 13.80141,0.30806 27.49474,-1.60625 41.23224,-2.54312 9.73677,-0.66403 13.13909,-0.7111 22.94504,-1.0716 20.97409,-0.53718 41.95747,-0.31861 62.93522,-0.18461 6.53406,0.20158 12.93925,-1.27198 19.4358,-1.49908 1.67525,-0.0419 3.35073,-0.0235 5.02586,0.007 0,0 -11.77839,4.86234 -11.77839,4.86234 l 0,0 c -1.66562,-0.009 -3.33171,-0.0116 -4.99621,0.0641 -6.49136,0.40594 -12.92592,1.6485 -19.46273,1.43444 -20.97063,-0.13149 -41.94752,-0.34378 -62.91363,0.23651 -10.10069,0.39236 -12.90106,0.42192 -22.9238,1.12203 -13.74666,0.96024 -27.45928,2.77438 -41.27085,2.45099 -20.29075,0.05 -40.57979,0.22308 -60.8689,0.48392 -11.01118,0.0263 -22.01493,0.0757 -33.0194,0.5193 -8.89215,0.35844 -17.06057,0.8987 -25.98365,1.4516 -5.79905,0.35932 -11.59762,0.72629 -17.39643,1.08944 -19.89602,1.38493 -39.8122,2.62827 -59.68539,4.31968 -35.551718,3.02581 4.64467,-0.24467 -21.708684,2.25165 -2.149735,0.20363 -4.308606,0.29533 -6.462909,0.44299 -1.923185,0.009 -3.847603,0.0973 -5.769557,0.0279 -4.692085,-0.16956 -10.548839,-0.84446 -15.159679,-1.29743 -7.529113,-0.73966 -11.276049,-1.18458 -19.036379,-1.49661 -4.232564,-0.17019 -8.469925,-0.18604 -12.704887,-0.27905 -42.2245528,-0.0145 -84.449101,-0.0467 -126.673657,-0.0445 -12.957998,0.0135 -22.547108,0.0114 -35.374968,0.0688 -11.26862,0.0505 -22.56143,0.017 -33.82569,0.42265 -1.23912,0.0446 -2.47534,0.14954 -3.71302,0.2243 0,0 11.71792,-5.00633 11.71792,-5.00633 z"
       inkscape:connector-curvature="0" />
    <path
       inkscape:connector-curvature="0"
       d="m 307.02732,440.22523 c 2.43407,4.95814 2.949,10.14769 3.49123,15.26526 0.18849,2.31359 0.29878,4.63032 0.23112,6.94652 -0.0303,1.03622 -0.12682,2.01514 -0.38203,3.03832 -0.21932,0.61725 -0.10217,0.34644 -0.32702,0.8158 0,0 -4.42228,0.49617 -4.42228,0.49617 l 0,0 c 0.23783,-0.44385 0.11437,-0.18513 0.33923,-0.78087 0.27257,-1.03006 0.363,-1.95555 0.39529,-3.00291 0.0711,-2.31036 -0.0379,-4.62132 -0.22427,-6.92914 -0.53779,-5.10559 -1.04628,-10.28331 -3.47652,-15.22961 0,0 4.37525,-0.61954 4.37525,-0.61954 z"
       id="path8020"
       style="opacity:1;fill:#000000;fill-opacity:1;fill-rule:nonzero;stroke:#000000;stroke-width:0;stroke-linecap:butt;stroke-linejoin:miter;stroke-miterlimit:4;stroke-dasharray:none;stroke-dashoffset:0;stroke-opacity:1" />
    <path
       inkscape:connector-curvature="0"
       d="m 304.74988,440.98138 c -0.6555,2.89999 -2.0035,5.7326 -3.34464,8.54748 -0.67668,1.22989 -1.17088,2.51799 -2.2876,3.64862 -0.0175,0.0178 -0.0351,0.0356 -0.0527,0.0534 0,0 -4.44229,0.43266 -4.44229,0.43266 l 0,0 c 0.0179,-0.0168 0.0357,-0.0336 0.0536,-0.0504 0.2379,-0.23738 0.48835,-0.46498 0.67542,-0.7192 0.6815,-0.92611 1.10313,-1.90955 1.63264,-2.86496 1.34226,-2.80397 2.69528,-5.62598 3.35608,-8.51496 0,0 4.40951,-0.53263 4.40951,-0.53263 z"
       id="path8022"
       style="opacity:1;fill:#000000;fill-opacity:1;fill-rule:nonzero;stroke:#000000;stroke-width:0;stroke-linecap:butt;stroke-linejoin:miter;stroke-miterlimit:4;stroke-dasharray:none;stroke-dashoffset:0;stroke-opacity:1" />
    <path
       inkscape:connector-curvature="0"
       d="m 317.22967,438.9906 c 0.10105,0.2449 0.23261,0.48628 0.30316,0.73472 0.33083,1.16501 0.40957,2.29905 0.47443,3.48486 0.0538,0.98462 0.0737,1.96981 0.0873,2.95489 0.0349,2.52924 -0.0164,4.39711 -0.0589,6.93435 -0.0382,2.75417 -0.0542,5.50842 -0.0858,8.26262 -0.016,1.39172 -0.0575,2.7823 -0.022,4.1739 0.0154,0.22496 0.0275,0.45002 0.0462,0.6749 0.0118,0.14286 0.0174,0.28615 0.0456,0.42824 0.0138,0.0694 0.0382,0.13889 0.08,0.20447 0.0102,0.0161 0.0995,0.028 0.0704,0.0314 -4.53603,0.51945 -4.91504,1.17727 -3.91784,0.0752 1.35824,-1.54941 3.19471,-2.93823 4.8003,-4.4014 1.02577,-0.93479 1.98548,-1.89316 2.98431,-2.83761 0.5993,-0.60818 1.25791,-1.19535 1.91196,-1.78399 0,0 4.44507,-0.42306 4.44507,-0.42306 l 0,0 c -0.65306,0.58734 -1.32784,1.16687 -1.91359,1.77835 -1.00234,0.9461 -1.95636,1.9093 -2.98157,2.8472 -1.59424,1.45848 -3.43544,2.83602 -4.80906,4.37155 -0.99832,1.16992 -0.23037,0.516 -4.84901,1.09244 -0.0799,0.01 -0.0885,-0.0804 -0.11397,-0.12517 -0.24816,-0.4359 -0.0803,-0.91518 -0.19334,-1.36013 -0.0387,-1.39342 0.004,-2.78569 0.0199,-4.17927 0.0318,-2.75453 0.0476,-5.50911 0.0855,-8.26362 0.0435,-2.54414 0.0945,-4.39193 0.0616,-6.92763 -0.0128,-0.9822 -0.032,-1.96452 -0.0839,-2.9463 -0.061,-1.15222 -0.13626,-2.29969 -0.45527,-3.43867 -0.0672,-0.2401 -0.19482,-0.47325 -0.29222,-0.70988 0,0 4.36091,-0.65232 4.36091,-0.65232 z"
       id="path8024"
       style="opacity:1;fill:#000000;fill-opacity:1;fill-rule:nonzero;stroke:#000000;stroke-width:0;stroke-linecap:butt;stroke-linejoin:miter;stroke-miterlimit:4;stroke-dasharray:none;stroke-dashoffset:0;stroke-opacity:1" />
    <path
       inkscape:connector-curvature="0"
       d="m 0.45626909,413.99055 c 2.43406971,5.74962 2.94899961,11.76759 3.49122961,17.70209 0.18849,2.68291 0.29878,5.36947 0.23112,8.05541 -0.0303,1.20163 -0.12682,2.33682 -0.38203,3.52333 -0.21932,0.71579 -0.10217,0.40175 -0.32702,0.94603 0,0 -4.42227946,0.57538 -4.42227946,0.57538 l 0,0 c 0.23782997,-0.51471 0.11436999,-0.21469 0.33922996,-0.90553 0.27256997,-1.19449 0.36299996,-2.26772 0.39528996,-3.48227 0.0711,-2.67917 -0.0379,-5.35903 -0.22426998,-8.03525 -0.53778994,-5.92061 -1.04627988,-11.92486 -3.47651968,-17.66075 0,0 4.37524959,-0.71844 4.37524959,-0.71844 z"
       id="path8032"
       style="opacity:1;fill:#000000;fill-opacity:1;fill-rule:nonzero;stroke:#000000;stroke-width:0;stroke-linecap:butt;stroke-linejoin:miter;stroke-miterlimit:4;stroke-dasharray:none;stroke-dashoffset:0;stroke-opacity:1" />
    <path
       style="opacity:1;fill:#000000;fill-opacity:1;fill-rule:nonzero;stroke:#000000;stroke-width:0;stroke-linecap:butt;stroke-linejoin:miter;stroke-miterlimit:4;stroke-dasharray:none;stroke-dashoffset:0;stroke-opacity:1"
       id="path8038"
       d="m -153.9536,417.73836 c 2.43407,4.95814 2.949,10.14769 3.49123,15.26526 0.18849,2.31359 0.29878,4.63032 0.23112,6.94652 -0.0303,1.03622 -0.12682,2.01514 -0.38203,3.03832 -0.21932,0.61725 -0.10217,0.34644 -0.32702,0.8158 0,0 -4.42228,0.49617 -4.42228,0.49617 l 0,0 c 0.23783,-0.44385 0.11437,-0.18513 0.33923,-0.78087 0.27257,-1.03006 0.363,-1.95555 0.39529,-3.00291 0.0711,-2.31036 -0.0379,-4.62132 -0.22427,-6.92914 -0.53779,-5.10559 -1.04628,-10.28331 -3.47652,-15.22961 0,0 4.37525,-0.61954 4.37525,-0.61954 z"
       inkscape:connector-curvature="0" />
    <path
       style="opacity:1;fill:#000000;fill-opacity:1;fill-rule:nonzero;stroke:#000000;stroke-width:0;stroke-linecap:butt;stroke-linejoin:miter;stroke-miterlimit:4;stroke-dasharray:none;stroke-dashoffset:0;stroke-opacity:1"
       id="path8557"
       d="m 308.92832,408.69034 c 2.43407,5.74962 2.949,11.76759 3.49123,17.70209 0.18849,2.68291 0.29878,5.36947 0.23112,8.05541 -0.0303,1.20163 -0.12682,2.33682 -0.38203,3.52333 -0.21932,0.71579 -0.10217,0.40175 -0.32702,0.94603 0,0 -4.42228,0.57538 -4.42228,0.57538 l 0,0 c 0.23783,-0.51471 0.11437,-0.21469 0.33923,-0.90553 0.27257,-1.19449 0.363,-2.26772 0.39529,-3.48227 0.0711,-2.67917 -0.0379,-5.35903 -0.22427,-8.03525 -0.53779,-5.92061 -1.04628,-11.92486 -3.47652,-17.66075 0,0 4.37525,-0.71844 4.37525,-0.71844 z"
       inkscape:connector-curvature="0" />
    <path
       inkscape:connector-curvature="0"
       d="m 154.51845,412.43815 c 2.43407,5.55175 2.949,11.36261 3.49123,17.09288 0.18849,2.59058 0.29878,5.18468 0.23112,7.77819 -0.0303,1.16028 -0.12682,2.2564 -0.38203,3.40208 -0.21932,0.69115 -0.10217,0.38792 -0.32702,0.91347 0,0 -4.42228,0.55557 -4.42228,0.55557 l 0,0 c 0.23783,-0.49699 0.11437,-0.20729 0.33923,-0.87436 0.27257,-1.15338 0.363,-2.18967 0.39529,-3.36243 0.0711,-2.58696 -0.0379,-5.1746 -0.22427,-7.75872 -0.53779,-5.71686 -1.04628,-11.51447 -3.47652,-17.05297 0,0 4.37525,-0.69371 4.37525,-0.69371 z"
       id="path8559"
       style="opacity:1;fill:#000000;fill-opacity:1;fill-rule:nonzero;stroke:#000000;stroke-width:0;stroke-linecap:butt;stroke-linejoin:miter;stroke-miterlimit:4;stroke-dasharray:none;stroke-dashoffset:0;stroke-opacity:1" />
    <path
       style="opacity:1;fill:#000000;fill-opacity:1;fill-rule:nonzero;stroke:#000000;stroke-width:0;stroke-linecap:butt;stroke-linejoin:miter;stroke-miterlimit:4;stroke-dasharray:none;stroke-dashoffset:0;stroke-opacity:1"
       id="path8561"
       d="m 468.29071,402.89778 c 2.43407,5.55175 2.949,11.36261 3.49123,17.09288 0.18849,2.59058 0.29878,5.18468 0.23112,7.77819 -0.0303,1.16028 -0.12682,2.2564 -0.38203,3.40208 -0.21932,0.69115 -0.10217,0.38792 -0.32702,0.91347 0,0 -4.42228,0.55557 -4.42228,0.55557 l 0,0 c 0.23783,-0.49699 0.11437,-0.20729 0.33923,-0.87436 0.27257,-1.15338 0.363,-2.18967 0.39529,-3.36243 0.0711,-2.58696 -0.0379,-5.1746 -0.22427,-7.75872 -0.53779,-5.71686 -1.04628,-11.51447 -3.47652,-17.05297 0,0 4.37525,-0.69371 4.37525,-0.69371 z"
       inkscape:connector-curvature="0" />
  </g>
</svg>
