<?xml version="1.0" encoding="UTF-8" standalone="no"?>
<!-- Created with Inkscape (http://www.inkscape.org/) -->

<svg
   xmlns:dc="http://purl.org/dc/elements/1.1/"
   xmlns:cc="http://creativecommons.org/ns#"
   xmlns:rdf="http://www.w3.org/1999/02/22-rdf-syntax-ns#"
   xmlns:svg="http://www.w3.org/2000/svg"
   xmlns="http://www.w3.org/2000/svg"
   xmlns:sodipodi="http://sodipodi.sourceforge.net/DTD/sodipodi-0.dtd"
   xmlns:inkscape="http://www.inkscape.org/namespaces/inkscape"
   width="800"
   height="600"
   viewBox="0 0 800.00001 600.00001"
   id="svg2"
   version="1.1"
   inkscape:version="0.91 r13725"
   sodipodi:docname="state_map.svg">
  <defs
     id="defs4">
    <clipPath
       clipPathUnits="userSpaceOnUse"
       id="clipPath9264">
      <rect
         style="opacity:1;fill:#000000;fill-opacity:1;fill-rule:nonzero;stroke:#000000;stroke-width:0;stroke-linecap:butt;stroke-linejoin:miter;stroke-miterlimit:4;stroke-dasharray:none;stroke-dashoffset:0;stroke-opacity:1"
         id="rect9266"
         width="285.15115"
         height="332.853"
         x="103.88406"
         y="1267.5505" />
    </clipPath>
  </defs>
  <sodipodi:namedview
     id="base"
     pagecolor="#ffffff"
     bordercolor="#666666"
     borderopacity="1.0"
     inkscape:pageopacity="0.0"
     inkscape:pageshadow="2"
     inkscape:zoom="0.66705581"
     inkscape:cx="348.98819"
     inkscape:cy="370.97469"
     inkscape:document-units="px"
     inkscape:current-layer="layer1"
     showgrid="false"
     units="px"
     inkscape:window-width="1440"
     inkscape:window-height="852"
     inkscape:window-x="0"
     inkscape:window-y="0"
     inkscape:window-maximized="1" />
  <metadata
     id="metadata7">
    <rdf:RDF>
      <cc:Work
         rdf:about="">
        <dc:format>image/svg+xml</dc:format>
        <dc:type
           rdf:resource="http://purl.org/dc/dcmitype/StillImage" />
        <dc:title></dc:title>
      </cc:Work>
    </rdf:RDF>
  </metadata>
  <g
     inkscape:label="Layer 1"
     inkscape:groupmode="layer"
     id="layer1"
     transform="translate(0,-452.36216)">
    <path
       style="opacity:1;fill:#000000;fill-opacity:1;fill-rule:nonzero;stroke:#000000;stroke-width:0;stroke-linecap:butt;stroke-linejoin:miter;stroke-miterlimit:4;stroke-dasharray:none;stroke-dashoffset:0;stroke-opacity:1"
       id="path4144"
       d="m 582.27459,668.64958 c 26.18603,-0.11256 52.36594,0.55977 78.55301,0.46368 18.28433,-0.0671 28.36013,-0.34024 45.97043,-0.70572 0,0 -11.83512,4.72261 -11.83512,4.72261 l 0,0 c -17.80403,0.35931 -27.44807,0.61853 -45.98165,0.67748 -26.18055,0.0833 -52.35521,-0.6188 -78.53451,-0.41726 0,0 11.82784,-4.74079 11.82784,-4.74079 z"
       inkscape:connector-curvature="0" />
    <path
       style="opacity:1;fill:#000000;fill-opacity:1;fill-rule:nonzero;stroke:#000000;stroke-width:0;stroke-linecap:butt;stroke-linejoin:miter;stroke-miterlimit:4;stroke-dasharray:none;stroke-dashoffset:0;stroke-opacity:1"
       id="path4148"
       d="m 583.5613,670.66609 c -0.20725,18.39 -0.8386,36.7796 -0.7802,55.17217 0.0304,9.57669 0.28518,19.15136 0.42777,28.72704 0.5554,22.16539 1.618,44.3114 2.78481,66.45104 0,0 -12.41904,2.85312 -12.41904,2.85312 l 0,0 c -1.17022,-22.15525 -2.23508,-44.31689 -2.79548,-66.49789 -0.14499,-9.58636 -0.40294,-19.17167 -0.43496,-28.75907 -0.0614,-18.39504 0.57171,-36.78716 0.77854,-55.17963 0,0 12.43856,-2.76678 12.43856,-2.76678 z"
       inkscape:connector-curvature="0" />
    <path
       style="opacity:1;fill:#000000;fill-opacity:1;fill-rule:nonzero;stroke:#000000;stroke-width:0;stroke-linecap:butt;stroke-linejoin:miter;stroke-miterlimit:4;stroke-dasharray:none;stroke-dashoffset:0;stroke-opacity:1"
       id="path4154"
       d="m 583.76933,817.28444 c 19.77786,0.25233 39.52167,1.43753 59.30696,1.39972 7.19718,-0.0138 14.39253,-0.23209 21.58879,-0.34815 14.55222,-0.52216 29.10487,-1.25377 43.60793,-2.58642 1.79484,-0.16492 3.58634,-0.36598 5.37621,-0.57822 0.83914,-0.0995 3.3257,-0.57693 2.50981,-0.35694 -3.75509,1.01255 -7.56116,1.82562 -11.34173,2.73843 0.0485,0.14088 0.097,0.28177 0.14554,0.42265 0,0 12.49278,-2.51067 12.49278,-2.51067 l 0,0 c 0.0152,0.28852 0.0303,0.57704 0.0455,0.86556 -4.37425,1.11361 -8.72779,2.31195 -13.12274,3.34081 -0.82587,0.19334 -1.68104,0.22905 -2.52412,0.32213 -1.79419,0.19808 -3.58909,0.39219 -5.38716,0.5513 -14.51623,1.2846 -29.0762,2.02612 -43.63951,2.50791 -7.20077,0.10471 -14.40078,0.31062 -21.6023,0.31413 -19.78435,0.01 -39.53046,-1.1683 -59.30853,-1.4037 0,0 11.8526,-4.67854 11.8526,-4.67854 z"
       inkscape:connector-curvature="0" />
    <path
       inkscape:connector-curvature="0"
       d="m 710.33257,666.04227 c -0.20726,18.39001 -0.83861,36.77961 -0.78021,55.17218 0.0304,9.57669 0.28519,19.15136 0.42777,28.72704 0.5554,22.16539 1.61801,44.3114 2.78481,66.45104 0,0 -12.41904,2.85312 -12.41904,2.85312 l 0,0 c -1.17021,-22.15525 -2.23507,-44.31689 -2.79547,-66.4979 -0.14499,-9.58635 -0.40294,-19.17166 -0.43497,-28.75906 -0.0614,-18.39504 0.57172,-36.78716 0.77854,-55.17963 0,0 12.43857,-2.76679 12.43857,-2.76679 z"
       id="path4156"
       style="opacity:1;fill:#000000;fill-opacity:1;fill-rule:nonzero;stroke:#000000;stroke-width:0;stroke-linecap:butt;stroke-linejoin:miter;stroke-miterlimit:4;stroke-dasharray:none;stroke-dashoffset:0;stroke-opacity:1" />
    <path
       inkscape:connector-curvature="0"
       d="m 580.99795,700.11423 c 26.18603,-0.11256 52.36594,0.55977 78.55301,0.46368 18.28433,-0.0671 28.36012,-0.34024 45.97042,-0.70572 0,0 -11.83511,4.72261 -11.83511,4.72261 l 0,0 c -17.80403,0.35931 -27.44807,0.61854 -45.98165,0.67748 -26.18055,0.0833 -52.35521,-0.6188 -78.53451,-0.41725 0,0 11.82784,-4.7408 11.82784,-4.7408 z"
       id="path4158"
       style="opacity:1;fill:#000000;fill-opacity:1;fill-rule:nonzero;stroke:#000000;stroke-width:0;stroke-linecap:butt;stroke-linejoin:miter;stroke-miterlimit:4;stroke-dasharray:none;stroke-dashoffset:0;stroke-opacity:1" />
    <text
       xml:space="preserve"
       style="font-style:normal;font-weight:normal;font-size:30px;line-height:125%;font-family:sans-serif;letter-spacing:0px;word-spacing:0px;fill:#000000;fill-opacity:1;stroke:none;stroke-width:1px;stroke-linecap:butt;stroke-linejoin:miter;stroke-opacity:1"
       x="607.78424"
       y="681.86884"
       id="text4160"
       sodipodi:linespacing="125%"
       transform="matrix(0.99985978,0.01674588,-0.01674588,0.99985978,0,0)"><tspan
         sodipodi:role="line"
         id="tspan4162"
         x="607.78424"
         y="681.86884"
         style="font-size:15px">GameState</tspan></text>
    <path
       inkscape:connector-curvature="0"
       d="m 274.06221,668.42472 c 26.18603,-0.11256 52.36594,0.55977 78.55301,0.46368 18.28433,-0.0671 28.36012,-0.34024 45.97042,-0.70572 0,0 -11.83511,4.72261 -11.83511,4.72261 l 0,0 c -17.80403,0.35931 -27.44807,0.61853 -45.98165,0.67748 -26.18055,0.0833 -52.35521,-0.6188 -78.53451,-0.41726 0,0 11.82784,-4.74079 11.82784,-4.74079 z"
       id="path4164"
       style="opacity:1;fill:#000000;fill-opacity:1;fill-rule:nonzero;stroke:#000000;stroke-width:0;stroke-linecap:butt;stroke-linejoin:miter;stroke-miterlimit:4;stroke-dasharray:none;stroke-dashoffset:0;stroke-opacity:1" />
    <path
       inkscape:connector-curvature="0"
       d="m 275.34892,670.44123 c -0.20726,18.39 -0.8386,36.7796 -0.78021,55.17217 0.0304,9.57669 0.28519,19.15136 0.42777,28.72704 0.5554,22.16539 1.61801,44.3114 2.78481,66.45104 0,0 -12.41904,2.85312 -12.41904,2.85312 l 0,0 c -1.17021,-22.15525 -2.23507,-44.31689 -2.79547,-66.49789 -0.14499,-9.58636 -0.40294,-19.17167 -0.43497,-28.75907 -0.0614,-18.39504 0.57172,-36.78716 0.77854,-55.17963 0,0 12.43857,-2.76678 12.43857,-2.76678 z"
       id="path4166"
       style="opacity:1;fill:#000000;fill-opacity:1;fill-rule:nonzero;stroke:#000000;stroke-width:0;stroke-linecap:butt;stroke-linejoin:miter;stroke-miterlimit:4;stroke-dasharray:none;stroke-dashoffset:0;stroke-opacity:1" />
    <path
       inkscape:connector-curvature="0"
       d="m 275.55695,817.05958 c 19.77785,0.25233 39.52166,1.43753 59.30695,1.39972 7.19719,-0.0137 14.39254,-0.23209 21.5888,-0.34815 14.55221,-0.52216 29.10487,-1.25377 43.60793,-2.58642 1.79484,-0.16492 3.58634,-0.36598 5.3762,-0.57822 0.83915,-0.0995 3.32571,-0.57693 2.50982,-0.35694 -3.75509,1.01255 -7.56116,1.82562 -11.34174,2.73843 0.0485,0.14088 0.097,0.28177 0.14555,0.42265 0,0 12.49277,-2.51067 12.49277,-2.51067 l 0,0 c 0.0152,0.28852 0.0303,0.57704 0.0455,0.86556 -4.37425,1.11361 -8.72779,2.31195 -13.12273,3.34081 -0.82587,0.19334 -1.68104,0.22905 -2.52412,0.32213 -1.7942,0.19808 -3.58909,0.39219 -5.38717,0.5513 -14.51622,1.2846 -29.07619,2.02612 -43.6395,2.50791 -7.20078,0.10471 -14.40078,0.31062 -21.6023,0.31413 -19.78435,0.01 -39.53046,-1.1683 -59.30853,-1.4037 0,0 11.8526,-4.67854 11.8526,-4.67854 z"
       id="path4168"
       style="opacity:1;fill:#000000;fill-opacity:1;fill-rule:nonzero;stroke:#000000;stroke-width:0;stroke-linecap:butt;stroke-linejoin:miter;stroke-miterlimit:4;stroke-dasharray:none;stroke-dashoffset:0;stroke-opacity:1" />
    <path
       style="opacity:1;fill:#000000;fill-opacity:1;fill-rule:nonzero;stroke:#000000;stroke-width:0;stroke-linecap:butt;stroke-linejoin:miter;stroke-miterlimit:4;stroke-dasharray:none;stroke-dashoffset:0;stroke-opacity:1"
       id="path4170"
       d="m 402.12019,665.81741 c -0.20726,18.39001 -0.83861,36.77961 -0.78021,55.17218 0.0304,9.57669 0.28518,19.15136 0.42777,28.72704 0.5554,22.16539 1.618,44.3114 2.78481,66.45104 0,0 -12.41904,2.85312 -12.41904,2.85312 l 0,0 c -1.17021,-22.15525 -2.23508,-44.31689 -2.79548,-66.4979 -0.14498,-9.58635 -0.40294,-19.17166 -0.43496,-28.75906 -0.0614,-18.39504 0.57171,-36.78716 0.77854,-55.17963 0,0 12.43857,-2.76679 12.43857,-2.76679 z"
       inkscape:connector-curvature="0" />
    <path
       style="opacity:1;fill:#000000;fill-opacity:1;fill-rule:nonzero;stroke:#000000;stroke-width:0;stroke-linecap:butt;stroke-linejoin:miter;stroke-miterlimit:4;stroke-dasharray:none;stroke-dashoffset:0;stroke-opacity:1"
       id="path4172"
       d="m 272.78557,699.88937 c 26.18602,-0.11256 52.36593,0.55977 78.55301,0.46368 18.28432,-0.0671 28.36012,-0.34024 45.97042,-0.70572 0,0 -11.83511,4.72261 -11.83511,4.72261 l 0,0 c -17.80404,0.35931 -27.44807,0.61854 -45.98166,0.67748 -26.18054,0.0833 -52.35521,-0.6188 -78.5345,-0.41725 0,0 11.82784,-4.7408 11.82784,-4.7408 z"
       inkscape:connector-curvature="0" />
    <text
       sodipodi:linespacing="125%"
       id="text4174"
       y="686.8053"
       x="299.61127"
       style="font-style:normal;font-weight:normal;font-size:30px;line-height:125%;font-family:sans-serif;letter-spacing:0px;word-spacing:0px;fill:#000000;fill-opacity:1;stroke:none;stroke-width:1px;stroke-linecap:butt;stroke-linejoin:miter;stroke-opacity:1"
       xml:space="preserve"
       transform="matrix(0.99985978,0.01674588,-0.01674588,0.99985978,0,0)"><tspan
         style="font-size:15px"
         y="686.8053"
         x="299.61127"
         id="tspan4176"
         sodipodi:role="line">MenuState</tspan></text>
    <path
       style="opacity:1;fill:#000000;fill-opacity:1;fill-rule:nonzero;stroke:#000000;stroke-width:0;stroke-linecap:butt;stroke-linejoin:miter;stroke-miterlimit:4;stroke-dasharray:none;stroke-dashoffset:0;stroke-opacity:1"
       id="path4178"
       d="m -31.186047,677.17017 c 26.1860265,-0.11256 52.365939,0.55977 78.55301,0.46369 18.284328,-0.0671 28.360125,-0.34025 45.970427,-0.70573 0,0 -11.835113,4.72261 -11.835113,4.72261 l 0,0 c -17.804037,0.35931 -27.44807,0.61854 -45.981656,0.67749 -26.180546,0.0832 -52.355209,-0.61881 -78.534505,-0.41726 0,0 11.827837,-4.7408 11.827837,-4.7408 z"
       inkscape:connector-curvature="0" />
    <path
       style="opacity:1;fill:#000000;fill-opacity:1;fill-rule:nonzero;stroke:#000000;stroke-width:0;stroke-linecap:butt;stroke-linejoin:miter;stroke-miterlimit:4;stroke-dasharray:none;stroke-dashoffset:0;stroke-opacity:1"
       id="path4180"
       d="m -29.899334,679.18668 c -0.207256,18.39001 -0.838605,36.7796 -0.780207,55.17217 0.0304,9.57669 0.285184,19.15136 0.427771,28.72704 0.555399,22.16539 1.618003,44.3114 2.784809,66.45105 0,0 -12.41904,2.85312 -12.41904,2.85312 l 0,0 c -1.170214,-22.15526 -2.235078,-44.3169 -2.795476,-66.4979 -0.144988,-9.58635 -0.40294,-19.17167 -0.434965,-28.75907 -0.06144,-18.39503 0.571714,-36.78715 0.778541,-55.17963 0,0 12.438567,-2.76678 12.438567,-2.76678 z"
       inkscape:connector-curvature="0" />
    <path
       style="opacity:1;fill:#000000;fill-opacity:1;fill-rule:nonzero;stroke:#000000;stroke-width:0;stroke-linecap:butt;stroke-linejoin:miter;stroke-miterlimit:4;stroke-dasharray:none;stroke-dashoffset:0;stroke-opacity:1"
       id="path4182"
       d="m -29.691309,825.80503 c 19.7778575,0.25234 39.5216684,1.43753 59.306956,1.39973 7.19719,-0.0137 14.392535,-0.2321 21.588798,-0.34816 14.552214,-0.52215 29.104869,-1.25377 43.607929,-2.58642 1.794844,-0.16491 3.586342,-0.36597 5.376206,-0.57822 0.83914,-0.0995 3.32571,-0.57693 2.50982,-0.35693 -3.755092,1.01255 -7.561162,1.82562 -11.341737,2.73843 0.04855,0.14088 0.09703,0.28176 0.145542,0.42264 0,0 12.492775,-2.51067 12.492775,-2.51067 l 0,0 c 0.0152,0.28853 0.0303,0.57704 0.0455,0.86557 -4.374251,1.1136 -8.727789,2.31195 -13.122735,3.3408 -0.825873,0.19334 -1.681041,0.22905 -2.524118,0.32213 -1.794199,0.19808 -3.589091,0.39219 -5.387167,0.5513 -14.516231,1.28461 -29.0762,2.02612 -43.63951,2.50791 -7.200773,0.10472 -14.400781,0.31062 -21.6023,0.31414 -19.7843455,0.01 -39.530458,-1.16831 -59.308529,-1.4037 0,0 11.852598,-4.67855 11.852598,-4.67855 z"
       inkscape:connector-curvature="0" />
    <path
       inkscape:connector-curvature="0"
       d="m 96.871934,674.56287 c -0.207256,18.39001 -0.838604,36.7796 -0.780206,55.17217 0.0304,9.57669 0.285184,19.15136 0.427771,28.72704 0.555399,22.16539 1.618003,44.3114 2.784809,66.45104 0,0 -12.41904,2.85313 -12.41904,2.85313 l 0,0 c -1.170215,-22.15526 -2.235078,-44.3169 -2.795476,-66.4979 -0.144988,-9.58635 -0.40294,-19.17167 -0.434965,-28.75907 -0.06144,-18.39504 0.571714,-36.78715 0.778541,-55.17963 0,0 12.438566,-2.76678 12.438566,-2.76678 z"
       id="path4184"
       style="opacity:1;fill:#000000;fill-opacity:1;fill-rule:nonzero;stroke:#000000;stroke-width:0;stroke-linecap:butt;stroke-linejoin:miter;stroke-miterlimit:4;stroke-dasharray:none;stroke-dashoffset:0;stroke-opacity:1" />
    <path
       inkscape:connector-curvature="0"
       d="m -32.462689,708.63482 c 26.1860265,-0.11255 52.365938,0.55978 78.55301,0.46369 18.284327,-0.0671 28.360124,-0.34024 45.970427,-0.70572 0,0 -11.835114,4.72261 -11.835114,4.72261 l 0,0 c -17.804036,0.3593 -27.44807,0.61853 -45.981656,0.67748 -26.1805454,0.0833 -52.355209,-0.6188 -78.534504,-0.41726 0,0 11.827837,-4.7408 11.827837,-4.7408 z"
       id="path4186"
       style="opacity:1;fill:#000000;fill-opacity:1;fill-rule:nonzero;stroke:#000000;stroke-width:0;stroke-linecap:butt;stroke-linejoin:miter;stroke-miterlimit:4;stroke-dasharray:none;stroke-dashoffset:0;stroke-opacity:1" />
    <text
       xml:space="preserve"
       style="font-style:normal;font-weight:normal;font-size:30px;line-height:125%;font-family:sans-serif;letter-spacing:0px;word-spacing:0px;fill:#000000;fill-opacity:1;stroke:none;stroke-width:1px;stroke-linecap:butt;stroke-linejoin:miter;stroke-opacity:1"
       x="-19.90892"
       y="700.66113"
       id="text4188"
       sodipodi:linespacing="125%"
       transform="matrix(0.99985978,0.01674588,-0.01674588,0.99985978,0,0)"><tspan
         sodipodi:role="line"
         id="tspan4190"
         x="-19.90892"
         y="700.66113"
         style="font-size:15px">MainMenuState</tspan></text>
    <path
       inkscape:connector-curvature="0"
       d="m 581.08402,453.94604 c 26.18603,-0.11255 52.36594,0.55978 78.55301,0.46369 18.28433,-0.0671 28.36013,-0.34025 45.97043,-0.70573 0,0 -11.83512,4.72262 -11.83512,4.72262 l 0,0 c -17.80403,0.3593 -27.44806,0.61853 -45.98165,0.67748 -26.18054,0.0832 -52.35521,-0.6188 -78.5345,-0.41726 0,0 11.82783,-4.7408 11.82783,-4.7408 z"
       id="path4192"
       style="opacity:1;fill:#000000;fill-opacity:1;fill-rule:nonzero;stroke:#000000;stroke-width:0;stroke-linecap:butt;stroke-linejoin:miter;stroke-miterlimit:4;stroke-dasharray:none;stroke-dashoffset:0;stroke-opacity:1" />
    <path
       inkscape:connector-curvature="0"
       d="m 582.37074,455.96255 c -0.20726,18.39001 -0.83861,36.77961 -0.78021,55.17217 0.0304,9.5767 0.28518,19.15136 0.42777,28.72705 0.5554,22.16538 1.618,44.31139 2.78481,66.45108 0,0 -12.41904,2.85313 -12.41904,2.85313 l 0,0 c -1.17021,-22.1553 -2.23508,-44.31694 -2.79548,-66.49795 -0.14498,-9.58635 -0.40294,-19.17166 -0.43496,-28.75906 -0.0614,-18.39504 0.57171,-36.78716 0.77854,-55.17963 0,0 12.43857,-2.76679 12.43857,-2.76679 z"
       id="path4194"
       style="opacity:1;fill:#000000;fill-opacity:1;fill-rule:nonzero;stroke:#000000;stroke-width:0;stroke-linecap:butt;stroke-linejoin:miter;stroke-miterlimit:4;stroke-dasharray:none;stroke-dashoffset:0;stroke-opacity:1" />
    <path
       inkscape:connector-curvature="0"
       d="m 582.57876,602.58091 c 19.77786,0.25233 39.52167,1.43752 59.30696,1.39972 7.19719,-0.0138 14.39253,-0.2321 21.5888,-0.34816 14.55221,-0.52215 29.10486,-1.25377 43.60792,-2.58642 1.79485,-0.16491 3.58634,-0.36597 5.37621,-0.57822 0.83914,-0.0995 3.32571,-0.57693 2.50982,-0.35693 -3.75509,1.01255 -7.56116,1.82562 -11.34174,2.73843 0.0485,0.14088 0.097,0.28176 0.14554,0.42264 0,0 12.49278,-2.51066 12.49278,-2.51066 l 0,0 c 0.0152,0.28852 0.0303,0.57703 0.0455,0.86556 -4.37425,1.1136 -8.72779,2.31195 -13.12273,3.34081 -0.82588,0.19333 -1.68105,0.22905 -2.52412,0.32212 -1.7942,0.19808 -3.58909,0.39224 -5.38717,0.55136 -14.51623,1.28459 -29.0762,2.02607 -43.63951,2.50787 -7.20077,0.10473 -14.40078,0.31059 -21.6023,0.31409 -19.78434,0.01 -39.53046,-1.16824 -59.30853,-1.40367 0,0 11.8526,-4.67854 11.8526,-4.67854 z"
       id="path4196"
       style="opacity:1;fill:#000000;fill-opacity:1;fill-rule:nonzero;stroke:#000000;stroke-width:0;stroke-linecap:butt;stroke-linejoin:miter;stroke-miterlimit:4;stroke-dasharray:none;stroke-dashoffset:0;stroke-opacity:1" />
    <path
       style="opacity:1;fill:#000000;fill-opacity:1;fill-rule:nonzero;stroke:#000000;stroke-width:0;stroke-linecap:butt;stroke-linejoin:miter;stroke-miterlimit:4;stroke-dasharray:none;stroke-dashoffset:0;stroke-opacity:1"
       id="path4198"
       d="m 709.142,451.33874 c -0.20725,18.39001 -0.8386,36.77961 -0.7802,55.17217 0.0304,9.57669 0.28518,19.15136 0.42777,28.72704 0.5554,22.16539 1.618,44.3114 2.78481,66.45105 0,0 -12.41904,2.85312 -12.41904,2.85312 l 0,0 c -1.17022,-22.15525 -2.23508,-44.31689 -2.79548,-66.4979 -0.14499,-9.58635 -0.40294,-19.17167 -0.43496,-28.75907 -0.0614,-18.39503 0.57171,-36.78715 0.77854,-55.17963 0,0 12.43856,-2.76678 12.43856,-2.76678 z"
       inkscape:connector-curvature="0" />
    <path
       style="opacity:1;fill:#000000;fill-opacity:1;fill-rule:nonzero;stroke:#000000;stroke-width:0;stroke-linecap:butt;stroke-linejoin:miter;stroke-miterlimit:4;stroke-dasharray:none;stroke-dashoffset:0;stroke-opacity:1"
       id="path4200"
       d="m 579.80738,485.4107 c 26.18603,-0.11256 52.36594,0.55977 78.55301,0.46368 18.28433,-0.0671 28.36013,-0.34024 45.97043,-0.70572 0,0 -11.83512,4.72261 -11.83512,4.72261 l 0,0 c -17.80403,0.35931 -27.44806,0.61853 -45.98165,0.67748 -26.18055,0.0833 -52.35521,-0.6188 -78.53451,-0.41726 0,0 11.82784,-4.74079 11.82784,-4.74079 z"
       inkscape:connector-curvature="0" />
    <text
       sodipodi:linespacing="125%"
       id="text4202"
       y="467.21539"
       x="602.99847"
       style="font-style:normal;font-weight:normal;font-size:30px;line-height:125%;font-family:sans-serif;letter-spacing:0px;word-spacing:0px;fill:#000000;fill-opacity:1;stroke:none;stroke-width:1px;stroke-linecap:butt;stroke-linejoin:miter;stroke-opacity:1"
       xml:space="preserve"
       transform="matrix(0.99985978,0.01674588,-0.01674588,0.99985978,0,0)"><tspan
         style="font-size:15px"
         y="467.21539"
         x="602.99847"
         id="tspan4204"
         sodipodi:role="line">PauseState</tspan></text>
    <path
       style="opacity:1;fill:#000000;fill-opacity:1;fill-rule:nonzero;stroke:#000000;stroke-width:0;stroke-linecap:butt;stroke-linejoin:miter;stroke-miterlimit:4;stroke-dasharray:none;stroke-dashoffset:0;stroke-opacity:1"
       id="path4206"
       d="m 879.39811,888.83834 c 26.18603,-0.11255 52.36594,0.55978 78.55301,0.46369 18.28433,-0.0671 28.36012,-0.34024 45.97038,-0.70573 0,0 -11.83507,4.72262 -11.83507,4.72262 l 0,0 c -17.80403,0.3593 -27.44807,0.61853 -45.98165,0.67748 -26.18055,0.0833 -52.35521,-0.6188 -78.53451,-0.41726 0,0 11.82784,-4.7408 11.82784,-4.7408 z"
       inkscape:connector-curvature="0" />
    <path
       style="opacity:1;fill:#000000;fill-opacity:1;fill-rule:nonzero;stroke:#000000;stroke-width:0;stroke-linecap:butt;stroke-linejoin:miter;stroke-miterlimit:4;stroke-dasharray:none;stroke-dashoffset:0;stroke-opacity:1"
       id="path4208"
       d="m 880.68482,890.85485 c -0.20725,18.39001 -0.8386,36.77961 -0.7802,55.17217 0.0304,9.5767 0.28518,19.15137 0.42777,28.72705 0.5554,22.16538 1.618,44.31143 2.78481,66.45103 0,0 -12.41904,2.8531 -12.41904,2.8531 l 0,0 c -1.17022,-22.1552 -2.23508,-44.31686 -2.79548,-66.49787 -0.14499,-9.58635 -0.40294,-19.17166 -0.43496,-28.75906 -0.0614,-18.39504 0.57171,-36.78716 0.77854,-55.17963 0,0 12.43856,-2.76679 12.43856,-2.76679 z"
       inkscape:connector-curvature="0" />
    <path
       style="opacity:1;fill:#000000;fill-opacity:1;fill-rule:nonzero;stroke:#000000;stroke-width:0;stroke-linecap:butt;stroke-linejoin:miter;stroke-miterlimit:4;stroke-dasharray:none;stroke-dashoffset:0;stroke-opacity:1"
       id="path4210"
       d="m 880.89285,1037.4732 c 19.77786,0.2523 39.52167,1.4375 59.30695,1.3997 7.19719,-0.014 14.39254,-0.2321 21.5888,-0.3481 14.55222,-0.5222 29.10487,-1.2538 43.6079,-2.5864 1.7949,-0.165 3.5864,-0.366 5.3762,-0.5783 0.8392,-0.1 3.3258,-0.5769 2.5099,-0.3569 -3.7551,1.0125 -7.5612,1.8256 -11.3418,2.7384 0.048,0.1409 0.097,0.2818 0.1456,0.4227 0,0 12.4928,-2.5107 12.4928,-2.5107 l 0,0 c 0.015,0.2885 0.03,0.577 0.045,0.8656 -4.3743,1.1136 -8.7278,2.3119 -13.1228,3.3408 -0.8259,0.1933 -1.68103,0.229 -2.52411,0.3221 -1.7942,0.1981 -3.58909,0.3922 -5.38716,0.5513 -14.51623,1.2846 -29.0762,2.0261 -43.63951,2.5079 -7.20077,0.1047 -14.40078,0.3107 -21.6023,0.3142 -19.78435,0.01 -39.53046,-1.1684 -59.30853,-1.4038 0,0 11.8526,-4.6785 11.8526,-4.6785 z"
       inkscape:connector-curvature="0" />
    <path
       inkscape:connector-curvature="0"
       d="m 1007.4561,886.23104 c -0.2073,18.39001 -0.8386,36.77961 -0.7802,55.17217 0.03,9.5767 0.2852,19.15136 0.4278,28.72704 0.5554,22.16539 1.618,44.31135 2.7847,66.45105 0,0 -12.41898,2.8531 -12.41898,2.8531 l 0,0 c -1.17021,-22.1552 -2.23508,-44.31687 -2.79547,-66.49788 -0.14499,-9.58635 -0.40294,-19.17166 -0.43497,-28.75906 -0.0614,-18.39504 0.57171,-36.78716 0.77854,-55.17963 0,0 12.43858,-2.76679 12.43858,-2.76679 z"
       id="path4212"
       style="opacity:1;fill:#000000;fill-opacity:1;fill-rule:nonzero;stroke:#000000;stroke-width:0;stroke-linecap:butt;stroke-linejoin:miter;stroke-miterlimit:4;stroke-dasharray:none;stroke-dashoffset:0;stroke-opacity:1" />
    <path
       inkscape:connector-curvature="0"
       d="m 878.12147,920.303 c 26.18602,-0.11256 52.36594,0.55977 78.55301,0.46368 18.28433,-0.0671 28.36012,-0.34024 45.97042,-0.70572 0,0 -11.83511,4.72261 -11.83511,4.72261 l 0,0 c -17.80404,0.35931 -27.44807,0.61854 -45.98165,0.67748 -26.18055,0.0833 -52.35521,-0.6188 -78.53451,-0.41726 0,0 11.82784,-4.74079 11.82784,-4.74079 z"
       id="path4214"
       style="opacity:1;fill:#000000;fill-opacity:1;fill-rule:nonzero;stroke:#000000;stroke-width:0;stroke-linecap:butt;stroke-linejoin:miter;stroke-miterlimit:4;stroke-dasharray:none;stroke-dashoffset:0;stroke-opacity:1" />
    <text
       xml:space="preserve"
       style="font-style:normal;font-weight:normal;font-size:30px;line-height:125%;font-family:sans-serif;letter-spacing:0px;word-spacing:0px;fill:#000000;fill-opacity:1;stroke:none;stroke-width:1px;stroke-linecap:butt;stroke-linejoin:miter;stroke-opacity:1"
       x="908.55334"
       y="897.05115"
       id="text4216"
       sodipodi:linespacing="125%"
       transform="matrix(0.99985978,0.01674588,-0.01674588,0.99985978,0,0)"><tspan
         sodipodi:role="line"
         x="908.55334"
         y="897.05115"
         style="font-size:15px"
         id="tspan4266">DeathState</tspan></text>
    <path
       style="opacity:1;fill:#000000;fill-opacity:1;fill-rule:nonzero;stroke:#000000;stroke-width:0;stroke-linecap:butt;stroke-linejoin:miter;stroke-miterlimit:4;stroke-dasharray:none;stroke-dashoffset:0;stroke-opacity:1"
       id="path4244"
       d="m 633.55729,615.55475 c 2.43407,8.59613 2.949,17.59346 3.49123,26.46599 0.18849,4.01116 0.29878,8.02777 0.23112,12.04346 -0.0303,1.79655 -0.12682,3.49373 -0.38203,5.26767 -0.21932,1.07014 -0.10217,0.60063 -0.32702,1.41437 0,0 -4.42228,0.86024 -4.42228,0.86024 l 0,0 c 0.23783,-0.76952 0.11437,-0.32097 0.33923,-1.35382 0.27257,-1.78586 0.363,-3.39042 0.39529,-5.20627 0.0711,-4.00557 -0.0379,-8.01218 -0.22427,-12.01334 -0.53779,-8.85176 -1.04628,-17.82858 -3.47652,-26.40418 0,0 4.37525,-1.07412 4.37525,-1.07412 z"
       inkscape:connector-curvature="0" />
    <path
       style="opacity:1;fill:#000000;fill-opacity:1;fill-rule:nonzero;stroke:#000000;stroke-width:0;stroke-linecap:butt;stroke-linejoin:miter;stroke-miterlimit:4;stroke-dasharray:none;stroke-dashoffset:0;stroke-opacity:1"
       id="path4246"
       d="m 631.27985,616.86572 c -0.6555,5.02783 -2.0035,9.93884 -3.34464,14.81911 -0.67668,2.1323 -1.17088,4.36553 -2.2876,6.32575 -0.0175,0.0309 -0.0351,0.0618 -0.0527,0.0926 0,0 -4.44229,0.75012 -4.44229,0.75012 l 0,0 c 0.0179,-0.0291 0.0357,-0.0583 0.0536,-0.0874 0.2379,-0.41154 0.48835,-0.80614 0.67542,-1.2469 0.6815,-1.60563 1.10313,-3.31066 1.63264,-4.96709 1.34226,-4.86136 2.69528,-9.75399 3.35608,-14.76273 0,0 4.40951,-0.92345 4.40951,-0.92345 z"
       inkscape:connector-curvature="0" />
    <path
       style="opacity:1;fill:#000000;fill-opacity:1;fill-rule:nonzero;stroke:#000000;stroke-width:0;stroke-linecap:butt;stroke-linejoin:miter;stroke-miterlimit:4;stroke-dasharray:none;stroke-dashoffset:0;stroke-opacity:1"
       id="path4248"
       d="m 643.75964,613.41422 c 0.10105,0.4246 0.23261,0.84309 0.30316,1.27381 0.33083,2.01984 0.40957,3.98597 0.47443,6.04185 0.0538,1.70707 0.0737,3.41514 0.0873,5.12301 0.0349,4.38505 -0.0164,7.62344 -0.0589,12.02236 -0.0382,4.77502 -0.0542,9.55017 -0.0858,14.32523 -0.016,2.41289 -0.0575,4.82379 -0.022,7.23646 0.0154,0.39003 0.0275,0.78022 0.0462,1.17011 0.0118,0.24767 0.0174,0.4961 0.0456,0.74245 0.0138,0.12035 0.0382,0.2408 0.08,0.3545 0.0102,0.0279 0.0995,0.0486 0.0704,0.0544 -4.53603,0.9006 -4.91504,2.04108 -3.91784,0.1304 1.35824,-2.68628 3.19471,-5.09413 4.8003,-7.63088 1.02577,-1.62068 1.98548,-3.28226 2.98431,-4.91968 0.5993,-1.05442 1.25791,-2.07243 1.91196,-3.09298 0,0 4.44507,-0.73348 4.44507,-0.73348 l 0,0 c -0.65306,1.01831 -1.32784,2.02306 -1.91359,3.0832 -1.00234,1.64029 -1.95636,3.31023 -2.98157,4.93631 -1.59424,2.52863 -3.43544,4.91692 -4.80906,7.57913 -0.99832,2.02833 -0.23037,0.89461 -4.84901,1.89401 -0.0799,0.0173 -0.0885,-0.13938 -0.11397,-0.21701 -0.24816,-0.75574 -0.0803,-1.58669 -0.19334,-2.35812 -0.0387,-2.41582 0.004,-4.82966 0.0199,-7.24577 0.0318,-4.77564 0.0476,-9.55136 0.0855,-14.32696 0.0435,-4.41089 0.0945,-7.61447 0.0616,-12.01071 -0.0128,-1.70288 -0.032,-3.40597 -0.0839,-5.10812 -0.061,-1.99765 -0.13626,-3.98707 -0.45527,-5.96177 -0.0672,-0.41626 -0.19482,-0.82049 -0.29222,-1.23074 0,0 4.36091,-1.13096 4.36091,-1.13096 z"
       inkscape:connector-curvature="0" />
    <path
       style="opacity:1;fill:#000000;fill-opacity:1;fill-rule:nonzero;stroke:#000000;stroke-width:0;stroke-linecap:butt;stroke-linejoin:miter;stroke-miterlimit:4;stroke-dasharray:none;stroke-dashoffset:0;stroke-opacity:1"
       id="path4260"
       d="m 544.91289,752.94445 c -22.07717,2.20829 -45.23832,2.48599 -68.07734,2.79432 -10.32671,0.0827 -20.66955,0.087 -31.01469,-0.0866 -4.62826,-0.0777 -9.00227,-0.21908 -13.57822,-0.52121 -2.76218,-0.24766 -1.54977,-0.11807 -3.65169,-0.3645 0,0 -2.33245,-4.44694 -2.33245,-4.44694 l 0,0 c 1.98835,0.25824 0.82976,0.12289 3.49604,0.37511 4.60709,0.31982 8.7424,0.45264 13.42042,0.53287 10.31918,0.17683 20.63627,0.17352 30.9373,0.0927 22.78562,-0.30441 45.89414,-0.57623 67.9185,-2.78122 0,0 2.88213,4.40553 2.88213,4.40553 z"
       inkscape:connector-curvature="0" />
    <path
       style="opacity:1;fill:#000000;fill-opacity:1;fill-rule:nonzero;stroke:#000000;stroke-width:0;stroke-linecap:butt;stroke-linejoin:miter;stroke-miterlimit:4;stroke-dasharray:none;stroke-dashoffset:0;stroke-opacity:1"
       id="path4262"
       d="m 544.49794,753.11844 c -5.02783,-0.6555 -9.93885,-2.0035 -14.81911,-3.34464 -2.1323,-0.67668 -4.36554,-1.17088 -6.32575,-2.2876 -0.0309,-0.0175 -0.0618,-0.0351 -0.0926,-0.0527 0,0 -0.75012,-4.44229 -0.75012,-4.44229 l 0,0 c 0.0291,0.0179 0.0583,0.0357 0.0874,0.0536 0.41154,0.2379 0.80614,0.48834 1.2469,0.67542 1.60563,0.68149 3.31065,1.10313 4.96709,1.63264 4.86136,1.34225 9.75399,2.69528 14.76273,3.35607 0,0 0.92345,4.40952 0.92345,4.40952 z"
       inkscape:connector-curvature="0" />
    <path
       inkscape:connector-curvature="0"
       d="m 543.7073,749.31184 c -4.75749,1.75358 -9.24758,4.15654 -13.70921,6.546 -1.92928,1.13246 -3.99744,2.10934 -5.66139,3.63276 -0.0263,0.024 -0.0525,0.0479 -0.0786,0.0719 0,0 0.25314,4.49807 0.25314,4.49807 l 0,0 c 0.0244,-0.0239 0.049,-0.0477 0.0734,-0.0716 0.34858,-0.32321 0.67785,-0.65489 1.06619,-0.935 1.41463,-1.02043 2.98381,-1.80947 4.48168,-2.69295 4.44294,-2.38636 8.91401,-4.79015 13.6517,-6.54466 0,0 -0.0769,-4.50452 -0.0769,-4.50452 z"
       id="path4264"
       style="opacity:1;fill:#000000;fill-opacity:1;fill-rule:nonzero;stroke:#000000;stroke-width:0;stroke-linecap:butt;stroke-linejoin:miter;stroke-miterlimit:4;stroke-dasharray:none;stroke-dashoffset:0;stroke-opacity:1" />
    <path
       inkscape:connector-curvature="0"
       d="m 338.33496,819.7805 c -0.65549,5.02783 -2.00349,9.93885 -3.34463,14.81911 -0.67669,2.1323 -1.17088,4.36554 -2.2876,6.32575 -0.0175,0.0309 -0.0351,0.0618 -0.0527,0.0926 0,0 -4.4423,0.75012 -4.4423,0.75012 l 0,0 c 0.0179,-0.0291 0.0357,-0.0583 0.0536,-0.0874 0.23791,-0.41154 0.48835,-0.80614 0.67543,-1.2469 0.68149,-1.60562 1.10312,-3.31065 1.63264,-4.96709 1.34225,-4.86136 2.69527,-9.75399 3.35607,-14.76273 0,0 4.40951,-0.92345 4.40951,-0.92345 z"
       id="path4302"
       style="opacity:1;fill:#000000;fill-opacity:1;fill-rule:nonzero;stroke:#000000;stroke-width:0;stroke-linecap:butt;stroke-linejoin:miter;stroke-miterlimit:4;stroke-dasharray:none;stroke-dashoffset:0;stroke-opacity:1" />
    <path
       style="opacity:1;fill:#000000;fill-opacity:1;fill-rule:nonzero;stroke:#000000;stroke-width:0;stroke-linecap:butt;stroke-linejoin:miter;stroke-miterlimit:4;stroke-dasharray:none;stroke-dashoffset:0;stroke-opacity:1"
       id="path4304"
       d="m 334.52837,820.57114 c 1.75358,4.75749 4.15653,9.24758 6.546,13.70921 1.13246,1.92928 2.10934,3.99744 3.63276,5.66139 0.024,0.0263 0.0479,0.0525 0.0719,0.0786 0,0 4.49807,-0.25314 4.49807,-0.25314 l 0,0 c -0.0239,-0.0244 -0.0477,-0.049 -0.0716,-0.0734 -0.32321,-0.34858 -0.65488,-0.67785 -0.93499,-1.06618 -1.02043,-1.41464 -1.80947,-2.98381 -2.69295,-4.48169 -2.38637,-4.44294 -4.79015,-8.914 -6.54466,-13.6517 0,0 -4.50452,0.0769 -4.50452,0.0769 z"
       inkscape:connector-curvature="0" />
    <path
       style="opacity:1;fill:#000000;fill-opacity:1;fill-rule:nonzero;stroke:#000000;stroke-width:0;stroke-linecap:butt;stroke-linejoin:miter;stroke-miterlimit:4;stroke-dasharray:none;stroke-dashoffset:0;stroke-opacity:1"
       id="path4306"
       d="m 648.0039,819.87878 c -0.26229,9.2772 -0.11998,18.55787 -0.008,27.83804 0.15759,5.12973 -0.0487,10.26259 0.18357,15.39189 0.0332,0.7323 0.0778,1.46537 0.17766,2.19439 0.14225,1.03819 -0.15134,0.97096 0.46127,1.00475 0,0 -6.6235,1.61076 -6.6235,1.61076 l 0,0 c -0.10857,-0.11739 -0.26699,-0.215 -0.32571,-0.35217 -0.38574,-0.90112 -0.43121,-2.52778 -0.46651,-3.28525 -0.23917,-5.13092 -0.0242,-10.26567 -0.18509,-15.39703 -0.11193,-9.28414 -0.25831,-18.56883 0.005,-27.85001 0,0 6.78179,-1.15537 6.78179,-1.15537 z"
       inkscape:connector-curvature="0" />
    <path
       style="opacity:1;fill:#000000;fill-opacity:1;fill-rule:nonzero;stroke:#000000;stroke-width:0;stroke-linecap:butt;stroke-linejoin:miter;stroke-miterlimit:4;stroke-dasharray:none;stroke-dashoffset:0;stroke-opacity:1"
       id="path4312"
       d="m 639.84327,871.85408 c -20.84286,-0.84488 -41.68346,-2.25886 -62.53138,-2.7984 -6.772,-0.17524 -13.54381,-0.15806 -20.31571,-0.23712 -23.78184,0.33564 -47.41771,3.43609 -71.20059,3.62267 -16.31245,-0.1982 -32.59484,-1.9172 -48.84774,-3.75564 -7.39388,-0.55481 -14.73301,-1.91832 -22.11003,-2.71147 -4.97021,-0.53441 -7.40087,-0.6382 -12.46537,-0.97095 -15.80934,-0.6315 -31.58846,-2.23215 -47.37012,-3.62507 -7.11791,-0.46972 -14.24193,-1.36971 -21.37131,-1.34705 -7.72647,0.81713 15.58161,-5.29971 8.82599,-2.69059 -4.2219,1.18226 -8.43293,2.41814 -12.66573,3.54675 -0.23858,0.0635 -0.97239,0.0963 -0.73514,0.0264 3.7892,-1.11792 7.60136,-2.12807 11.40565,-3.17448 0.39206,-0.10797 -0.76135,0.31176 -1.15256,0.42371 -4.19963,1.20152 -8.40756,2.36343 -12.61133,3.54515 -0.22769,0.004 -0.45537,0.007 -0.68305,0.01 0,0 11.55986,-5.52453 11.55986,-5.52453 l 0,0 c 0.21434,-0.0416 0.42868,-0.0832 0.64302,-0.12493 -37.70553,10.92306 29.47242,-8.5274 -8.21987,2.4568 5.08727,-1.15281 9.98317,-4.13474 15.23664,-3.89004 7.14118,0.15217 14.27229,0.89298 21.40211,1.43994 15.77863,1.40304 31.55647,2.93791 47.3622,3.60102 5.43208,0.38194 7.18483,0.44565 12.48797,1.03991 7.37258,0.82603 14.7154,2.10497 22.10458,2.6947 16.23577,1.82433 32.50582,3.49729 48.80003,3.61178 23.78001,-0.31081 47.42242,-3.35147 71.20958,-3.59591 6.77554,0.09 13.55109,0.0883 20.32663,0.2699 20.84702,0.55877 41.68547,1.97485 62.5283,2.78911 0,0 -11.61263,5.3685 -11.61263,5.3685 z"
       inkscape:connector-curvature="0" />
    <path
       style="opacity:1;fill:#000000;fill-opacity:1;fill-rule:nonzero;stroke:#000000;stroke-width:0;stroke-linecap:butt;stroke-linejoin:miter;stroke-miterlimit:4;stroke-dasharray:none;stroke-dashoffset:0;stroke-opacity:1"
       id="path4326"
       d="m 339.07951,817.07226 c 0.81162,2.89873 0.58239,5.79395 0.64172,8.68719 0.029,1.41521 0.0967,2.83093 0.14501,4.2464 0.13999,1.71797 0.26581,3.43585 0.41995,5.15395 0.1723,1.92044 0.38471,3.84117 0.55937,5.76161 0.49245,5.41448 0.91083,10.82847 1.25744,16.24163 0.0501,0.9777 0.0507,0.61006 0.0447,1.10361 0,0 -4.36165,0.22918 -4.36165,0.22918 l 0,0 c 0.0112,-0.4908 0.008,-0.12418 -0.0424,-1.10058 -0.34602,-5.41276 -0.76397,-10.82637 -1.25643,-16.24042 -0.1747,-1.92064 -0.38723,-3.84155 -0.55984,-5.76217 -0.15445,-1.71869 -0.28091,-3.43715 -0.42137,-5.15571 -0.0486,-1.41587 -0.11698,-2.83198 -0.14597,-4.24758 -0.0591,-2.88758 0.16876,-5.77674 -0.62729,-8.6698 0,0 4.34664,-0.24731 4.34664,-0.24731 z"
       inkscape:connector-curvature="0" />
    <path
       inkscape:connector-curvature="0"
       d="m 485.28844,869.44532 c 5.04696,-0.48677 10.00036,-1.66955 14.9228,-2.84652 2.15376,-0.6049 4.4023,-1.02403 6.39881,-2.07449 0.0315,-0.0165 0.063,-0.0331 0.0943,-0.0495 0,0 0.89845,-4.41469 0.89845,-4.41469 l 0,0 c -0.0297,0.0169 -0.0595,0.0337 -0.0892,0.0506 -0.41928,0.22399 -0.82204,0.46108 -1.26882,0.63329 -1.62754,0.62734 -3.34573,0.99164 -5.01897,1.46539 -4.90359,1.17871 -9.83878,2.36713 -14.86684,2.85983 0,0 -1.07059,4.37612 -1.07059,4.37612 z"
       id="path4332"
       style="opacity:1;fill:#000000;fill-opacity:1;fill-rule:nonzero;stroke:#000000;stroke-width:0;stroke-linecap:butt;stroke-linejoin:miter;stroke-miterlimit:4;stroke-dasharray:none;stroke-dashoffset:0;stroke-opacity:1"
       inkscape:transform-center-x="11.884409"
       inkscape:transform-center-y="-6.58712" />
    <path
       style="opacity:1;fill:#000000;fill-opacity:1;fill-rule:nonzero;stroke:#000000;stroke-width:0;stroke-linecap:butt;stroke-linejoin:miter;stroke-miterlimit:4;stroke-dasharray:none;stroke-dashoffset:0;stroke-opacity:1"
       id="path4334"
       d="m 486.20611,865.66733 c 4.6961,1.91191 9.1032,4.46388 13.48231,7.00141 1.89028,1.19643 3.92457,2.24202 5.53656,3.82031 0.0255,0.0248 0.0509,0.0497 0.0762,0.0745 0,0 -0.40363,4.48707 -0.40363,4.48707 l 0,0 c -0.0236,-0.0247 -0.0474,-0.0493 -0.071,-0.074 -0.33756,-0.3347 -0.65554,-0.67722 -1.03428,-0.97018 -1.37967,-1.06722 -2.92154,-1.90837 -4.38899,-2.84152 -4.36054,-2.5338 -8.7486,-5.08596 -13.42488,-6.99814 0,0 0.22766,-4.49942 0.22766,-4.49942 z"
       inkscape:connector-curvature="0"
       inkscape:transform-center-x="12.690209"
       inkscape:transform-center-y="2.0191201" />
    <path
       style="opacity:1;fill:#000000;fill-opacity:1;fill-rule:nonzero;stroke:#000000;stroke-width:0;stroke-linecap:butt;stroke-linejoin:miter;stroke-miterlimit:4;stroke-dasharray:none;stroke-dashoffset:0;stroke-opacity:1"
       id="path4336"
       d="m -38.630755,460.91885 c 26.186022,-0.11256 52.365934,0.55977 78.552995,0.46368 18.284328,-0.0671 28.360125,-0.34024 45.970424,-0.70572 0,0 -11.835113,4.72261 -11.835113,4.72261 l 0,0 c -17.804034,0.3593 -27.448067,0.61853 -45.981653,0.67748 -26.1805355,0.0833 -52.355199,-0.6188 -78.53449,-0.41726 0,0 11.827837,-4.74079 11.827837,-4.74079 z"
       inkscape:connector-curvature="0" />
    <path
       style="opacity:1;fill:#000000;fill-opacity:1;fill-rule:nonzero;stroke:#000000;stroke-width:0;stroke-linecap:butt;stroke-linejoin:miter;stroke-miterlimit:4;stroke-dasharray:none;stroke-dashoffset:0;stroke-opacity:1"
       id="path4338"
       d="m -37.344042,462.93536 c -0.207256,18.39 -0.838605,36.7796 -0.780207,55.17218 0.0304,9.57669 0.285184,19.15136 0.427771,28.72704 0.555393,22.16539 1.617998,44.3114 2.784803,66.45108 0,0 -12.419035,2.85313 -12.419035,2.85313 l 0,0 c -1.170214,-22.1553 -2.235077,-44.31694 -2.795475,-66.49795 -0.144988,-9.58635 -0.40294,-19.17166 -0.434965,-28.75906 -0.06144,-18.39505 0.571714,-36.78717 0.778541,-55.17964 0,0 12.438567,-2.76678 12.438567,-2.76678 z"
       inkscape:connector-curvature="0" />
    <path
       style="opacity:1;fill:#000000;fill-opacity:1;fill-rule:nonzero;stroke:#000000;stroke-width:0;stroke-linecap:butt;stroke-linejoin:miter;stroke-miterlimit:4;stroke-dasharray:none;stroke-dashoffset:0;stroke-opacity:1"
       id="path4340"
       d="m -37.136022,609.55372 c 19.777857,0.25233 39.5216685,1.43752 59.306946,1.39972 7.19719,-0.0137 14.392535,-0.2321 21.588798,-0.34815 14.552214,-0.52216 29.104866,-1.25377 43.607926,-2.58642 1.794844,-0.16492 3.586342,-0.36598 5.376207,-0.57823 0.839144,-0.0995 3.325708,-0.57692 2.509819,-0.35693 -3.755093,1.01255 -7.561162,1.82562 -11.341738,2.73843 0.04855,0.14088 0.09703,0.28176 0.145543,0.42265 0,0 12.492775,-2.51067 12.492775,-2.51067 l 0,0 c 0.01517,0.28852 0.03034,0.57704 0.04551,0.86556 -4.374252,1.11361 -8.727789,2.31195 -13.122735,3.34081 -0.825873,0.19333 -1.681041,0.22905 -2.524118,0.32212 -1.794199,0.19809 -3.589092,0.39225 -5.387168,0.55136 -14.516227,1.28459 -29.076196,2.02608 -43.639506,2.50787 -7.200774,0.10473 -14.400781,0.31059 -21.602289,0.31409 -19.7843475,0.01 -39.53046,-1.16823 -59.308526,-1.40367 0,0 11.852594,-4.67854 11.852594,-4.67854 z"
       inkscape:connector-curvature="0" />
    <path
       inkscape:connector-curvature="0"
       d="m 89.427208,458.31154 c -0.207256,18.39001 -0.838604,36.77961 -0.780206,55.17218 0.0304,9.5767 0.285184,19.15137 0.42777,28.72705 0.555399,22.16538 1.618004,44.31139 2.78481,66.45104 0,0 -12.41904,2.85312 -12.41904,2.85312 l 0,0 c -1.170215,-22.15525 -2.235078,-44.31689 -2.795476,-66.4979 -0.144988,-9.58635 -0.40294,-19.17166 -0.434965,-28.75906 -0.06144,-18.39505 0.571714,-36.78717 0.778541,-55.17964 0,0 12.438566,-2.76679 12.438566,-2.76679 z"
       id="path4342"
       style="opacity:1;fill:#000000;fill-opacity:1;fill-rule:nonzero;stroke:#000000;stroke-width:0;stroke-linecap:butt;stroke-linejoin:miter;stroke-miterlimit:4;stroke-dasharray:none;stroke-dashoffset:0;stroke-opacity:1" />
    <path
       inkscape:connector-curvature="0"
       d="m -39.907397,492.3835 c 26.186022,-0.11256 52.365934,0.55977 78.552995,0.46368 18.284327,-0.0671 28.360124,-0.34024 45.970424,-0.70572 0,0 -11.835114,4.72261 -11.835114,4.72261 l 0,0 c -17.804033,0.35931 -27.448067,0.61854 -45.981653,0.67748 -26.18053548,0.0833 -52.355199,-0.6188 -78.534489,-0.41725 0,0 11.827837,-4.7408 11.827837,-4.7408 z"
       id="path4344"
       style="opacity:1;fill:#000000;fill-opacity:1;fill-rule:nonzero;stroke:#000000;stroke-width:0;stroke-linecap:butt;stroke-linejoin:miter;stroke-miterlimit:4;stroke-dasharray:none;stroke-dashoffset:0;stroke-opacity:1" />
    <text
       xml:space="preserve"
       style="font-style:normal;font-weight:normal;font-size:30px;line-height:125%;font-family:sans-serif;letter-spacing:0px;word-spacing:0px;fill:#000000;fill-opacity:1;stroke:none;stroke-width:1px;stroke-linecap:butt;stroke-linejoin:miter;stroke-opacity:1"
       x="-16.512688"
       y="484.56491"
       id="text4346"
       sodipodi:linespacing="125%"
       transform="matrix(0.99985978,0.01674588,-0.01674588,0.99985978,0,0)"><tspan
         sodipodi:role="line"
         id="tspan4348"
         x="-16.512688"
         y="484.56491"
         style="font-size:15px">ArmorState</tspan></text>
    <path
       inkscape:connector-curvature="0"
       d="m 112.92583,459.34658 c 26.18602,-0.11255 52.36593,0.55978 78.553,0.46369 18.28433,-0.0671 28.36013,-0.34024 45.97043,-0.70573 0,0 -11.83512,4.72262 -11.83512,4.72262 l 0,0 c -17.80403,0.3593 -27.44806,0.61853 -45.98165,0.67748 -26.18054,0.0833 -52.35521,-0.6188 -78.5345,-0.41726 0,0 11.82784,-4.7408 11.82784,-4.7408 z"
       id="path4350"
       style="opacity:1;fill:#000000;fill-opacity:1;fill-rule:nonzero;stroke:#000000;stroke-width:0;stroke-linecap:butt;stroke-linejoin:miter;stroke-miterlimit:4;stroke-dasharray:none;stroke-dashoffset:0;stroke-opacity:1" />
    <path
       inkscape:connector-curvature="0"
       d="m 114.21254,461.36309 c -0.20725,18.39001 -0.8386,36.77961 -0.7802,55.17218 0.0304,9.5767 0.28518,19.15137 0.42777,28.72705 0.5554,22.16539 1.618,44.31139 2.7848,66.45108 0,0 -12.41903,2.85313 -12.41903,2.85313 l 0,0 c -1.17022,-22.1553 -2.23508,-44.31694 -2.79548,-66.49795 -0.14499,-9.58635 -0.40294,-19.17166 -0.43496,-28.75906 -0.0614,-18.39505 0.57171,-36.78717 0.77854,-55.17964 0,0 12.43856,-2.76679 12.43856,-2.76679 z"
       id="path4352"
       style="opacity:1;fill:#000000;fill-opacity:1;fill-rule:nonzero;stroke:#000000;stroke-width:0;stroke-linecap:butt;stroke-linejoin:miter;stroke-miterlimit:4;stroke-dasharray:none;stroke-dashoffset:0;stroke-opacity:1" />
    <path
       inkscape:connector-curvature="0"
       d="m 114.42057,607.98146 c 19.77785,0.25233 39.52166,1.43752 59.30695,1.39972 7.19719,-0.0138 14.39253,-0.2321 21.58879,-0.34816 14.55222,-0.52215 29.10487,-1.25376 43.60793,-2.58641 1.79484,-0.16492 3.58634,-0.36598 5.37621,-0.57823 0.83914,-0.0995 3.32571,-0.57693 2.50982,-0.35693 -3.7551,1.01255 -7.56117,1.82562 -11.34174,2.73843 0.0486,0.14088 0.097,0.28176 0.14554,0.42265 0,0 12.49278,-2.51067 12.49278,-2.51067 l 0,0 c 0.0152,0.28852 0.0303,0.57704 0.0455,0.86556 -4.37425,1.11361 -8.72779,2.31195 -13.12274,3.34081 -0.82587,0.19333 -1.68104,0.22905 -2.52411,0.32212 -1.7942,0.19809 -3.5891,0.39225 -5.38717,0.55136 -14.51623,1.28459 -29.0762,2.02607 -43.63951,2.50787 -7.20077,0.10473 -14.40078,0.31059 -21.6023,0.31409 -19.78434,0.01 -39.53046,-1.16823 -59.30852,-1.40367 0,0 11.8526,-4.67854 11.8526,-4.67854 z"
       id="path4354"
       style="opacity:1;fill:#000000;fill-opacity:1;fill-rule:nonzero;stroke:#000000;stroke-width:0;stroke-linecap:butt;stroke-linejoin:miter;stroke-miterlimit:4;stroke-dasharray:none;stroke-dashoffset:0;stroke-opacity:1" />
    <path
       style="opacity:1;fill:#000000;fill-opacity:1;fill-rule:nonzero;stroke:#000000;stroke-width:0;stroke-linecap:butt;stroke-linejoin:miter;stroke-miterlimit:4;stroke-dasharray:none;stroke-dashoffset:0;stroke-opacity:1"
       id="path4356"
       d="m 240.9838,456.73928 c -0.20726,18.39001 -0.8386,36.77961 -0.78021,55.17217 0.0304,9.57671 0.28519,19.15137 0.42777,28.72705 0.5554,22.16539 1.61801,44.3114 2.78481,66.45105 0,0 -12.41904,2.85312 -12.41904,2.85312 l 0,0 c -1.17021,-22.15525 -2.23507,-44.31689 -2.79547,-66.4979 -0.14499,-9.58635 -0.40294,-19.17166 -0.43497,-28.75906 -0.0614,-18.39505 0.57172,-36.78717 0.77854,-55.17964 0,0 12.43857,-2.76679 12.43857,-2.76679 z"
       inkscape:connector-curvature="0" />
    <path
       style="opacity:1;fill:#000000;fill-opacity:1;fill-rule:nonzero;stroke:#000000;stroke-width:0;stroke-linecap:butt;stroke-linejoin:miter;stroke-miterlimit:4;stroke-dasharray:none;stroke-dashoffset:0;stroke-opacity:1"
       id="path4358"
       d="m 111.64919,490.81124 c 26.18602,-0.11256 52.36593,0.55977 78.553,0.46368 18.28433,-0.0671 28.36012,-0.34024 45.97042,-0.70572 0,0 -11.83511,4.72261 -11.83511,4.72261 l 0,0 c -17.80403,0.35931 -27.44807,0.61854 -45.98165,0.67748 -26.18055,0.0833 -52.35521,-0.6188 -78.534499,-0.41726 0,0 11.827839,-4.74079 11.827839,-4.74079 z"
       inkscape:connector-curvature="0" />
    <text
       sodipodi:linespacing="125%"
       id="text4360"
       y="480.45493"
       x="134.99632"
       style="font-style:normal;font-weight:normal;font-size:30px;line-height:125%;font-family:sans-serif;letter-spacing:0px;word-spacing:0px;fill:#000000;fill-opacity:1;stroke:none;stroke-width:1px;stroke-linecap:butt;stroke-linejoin:miter;stroke-opacity:1"
       xml:space="preserve"
       transform="matrix(0.99985978,0.01674588,-0.01674588,0.99985978,0,0)"><tspan
         style="font-size:15px"
         y="480.45493"
         x="134.99632"
         id="tspan4362"
         sodipodi:role="line">GemState</tspan></text>
    <path
       inkscape:connector-curvature="0"
       d="m 265.4815,458.61904 c 26.18601,-0.11255 52.36593,0.55978 78.553,0.46369 18.28432,-0.0671 28.36012,-0.34024 45.97042,-0.70572 0,0 -11.83511,4.72261 -11.83511,4.72261 l 0,0 c -17.80404,0.3593 -27.44807,0.61853 -45.98166,0.67748 -26.18054,0.0833 -52.3552,-0.6188 -78.53449,-0.41726 0,0 11.82784,-4.7408 11.82784,-4.7408 z"
       id="path4364"
       style="opacity:1;fill:#000000;fill-opacity:1;fill-rule:nonzero;stroke:#000000;stroke-width:0;stroke-linecap:butt;stroke-linejoin:miter;stroke-miterlimit:4;stroke-dasharray:none;stroke-dashoffset:0;stroke-opacity:1" />
    <path
       inkscape:connector-curvature="0"
       d="m 266.76821,460.63555 c -0.20726,18.39001 -0.83861,36.77961 -0.78021,55.17218 0.0304,9.5767 0.28519,19.15137 0.42777,28.72705 0.5554,22.16539 1.61801,44.3114 2.78481,66.45108 0,0 -12.41904,2.85313 -12.41904,2.85313 l 0,0 c -1.17021,-22.1553 -2.23508,-44.31694 -2.79547,-66.49795 -0.14499,-9.58635 -0.40294,-19.17166 -0.43497,-28.75906 -0.0614,-18.39505 0.57171,-36.78717 0.77854,-55.17964 0,0 12.43857,-2.76679 12.43857,-2.76679 z"
       id="path4366"
       style="opacity:1;fill:#000000;fill-opacity:1;fill-rule:nonzero;stroke:#000000;stroke-width:0;stroke-linecap:butt;stroke-linejoin:miter;stroke-miterlimit:4;stroke-dasharray:none;stroke-dashoffset:0;stroke-opacity:1" />
    <path
       inkscape:connector-curvature="0"
       d="m 266.97623,607.25392 c 19.77786,0.25233 39.52166,1.43752 59.30695,1.39972 7.19719,-0.0138 14.39254,-0.2321 21.5888,-0.34815 14.55221,-0.52216 29.10486,-1.25377 43.60792,-2.58642 1.79485,-0.16492 3.58635,-0.36598 5.37621,-0.57823 0.83915,-0.0995 3.32571,-0.57692 2.50982,-0.35693 -3.75509,1.01255 -7.56116,1.82562 -11.34174,2.73843 0.0485,0.14088 0.097,0.28176 0.14555,0.42265 0,0 12.49277,-2.51067 12.49277,-2.51067 l 0,0 c 0.0152,0.28852 0.0303,0.57704 0.0455,0.86556 -4.37425,1.11361 -8.72779,2.31195 -13.12273,3.34081 -0.82588,0.19333 -1.68104,0.22905 -2.52412,0.32212 -1.7942,0.19809 -3.58909,0.39225 -5.38717,0.55136 -14.51623,1.28459 -29.07619,2.02608 -43.63951,2.50787 -7.20077,0.10473 -14.40078,0.31059 -21.60229,0.31409 -19.78435,0.01 -39.53045,-1.16823 -59.30852,-1.40367 0,0 11.85259,-4.67854 11.85259,-4.67854 z"
       id="path4368"
       style="opacity:1;fill:#000000;fill-opacity:1;fill-rule:nonzero;stroke:#000000;stroke-width:0;stroke-linecap:butt;stroke-linejoin:miter;stroke-miterlimit:4;stroke-dasharray:none;stroke-dashoffset:0;stroke-opacity:1" />
    <path
       style="opacity:1;fill:#000000;fill-opacity:1;fill-rule:nonzero;stroke:#000000;stroke-width:0;stroke-linecap:butt;stroke-linejoin:miter;stroke-miterlimit:4;stroke-dasharray:none;stroke-dashoffset:0;stroke-opacity:1"
       id="path4370"
       d="m 393.53946,456.01174 c -0.20725,18.39001 -0.8386,36.77961 -0.7802,55.17217 0.0304,9.57671 0.28518,19.15138 0.42777,28.72706 0.5554,22.16538 1.618,44.31139 2.78481,66.45104 0,0 -12.41904,2.85312 -12.41904,2.85312 l 0,0 c -1.17022,-22.15525 -2.23508,-44.31689 -2.79548,-66.4979 -0.14499,-9.58635 -0.40294,-19.17166 -0.43496,-28.75907 -0.0614,-18.39504 0.57171,-36.78716 0.77854,-55.17963 0,0 12.43856,-2.76679 12.43856,-2.76679 z"
       inkscape:connector-curvature="0" />
    <path
       style="opacity:1;fill:#000000;fill-opacity:1;fill-rule:nonzero;stroke:#000000;stroke-width:0;stroke-linecap:butt;stroke-linejoin:miter;stroke-miterlimit:4;stroke-dasharray:none;stroke-dashoffset:0;stroke-opacity:1"
       id="path4372"
       d="m 264.20485,490.0837 c 26.18603,-0.11256 52.36593,0.55977 78.553,0.46368 18.28433,-0.0671 28.36013,-0.34024 45.97043,-0.70572 0,0 -11.83512,4.72261 -11.83512,4.72261 l 0,0 c -17.80403,0.35931 -27.44806,0.61854 -45.98165,0.67748 -26.18054,0.0833 -52.3552,-0.6188 -78.53449,-0.41725 0,0 11.82783,-4.7408 11.82783,-4.7408 z"
       inkscape:connector-curvature="0" />
    <text
       sodipodi:linespacing="125%"
       id="text4374"
       y="477.17279"
       x="287.51837"
       style="font-style:normal;font-weight:normal;font-size:30px;line-height:125%;font-family:sans-serif;letter-spacing:0px;word-spacing:0px;fill:#000000;fill-opacity:1;stroke:none;stroke-width:1px;stroke-linecap:butt;stroke-linejoin:miter;stroke-opacity:1"
       xml:space="preserve"
       transform="matrix(0.99985978,0.01674588,-0.01674588,0.99985978,0,0)"><tspan
         style="font-size:15px"
         y="477.17279"
         x="287.51837"
         id="tspan4376"
         sodipodi:role="line">AbilityState</tspan></text>
    <path
       style="opacity:1;fill:#000000;fill-opacity:1;fill-rule:nonzero;stroke:#000000;stroke-width:0;stroke-linecap:butt;stroke-linejoin:miter;stroke-miterlimit:4;stroke-dasharray:none;stroke-dashoffset:0;stroke-opacity:1"
       id="path4378"
       d="m 420.9945,454.16608 c 26.18603,-0.11255 52.36594,0.55978 78.55301,0.46369 18.28433,-0.0671 28.36013,-0.34024 45.97043,-0.70573 0,0 -11.83512,4.72262 -11.83512,4.72262 l 0,0 c -17.80403,0.3593 -27.44806,0.61853 -45.98165,0.67748 -26.18055,0.0833 -52.35521,-0.6188 -78.53451,-0.41726 0,0 11.82784,-4.7408 11.82784,-4.7408 z"
       inkscape:connector-curvature="0" />
    <path
       style="opacity:1;fill:#000000;fill-opacity:1;fill-rule:nonzero;stroke:#000000;stroke-width:0;stroke-linecap:butt;stroke-linejoin:miter;stroke-miterlimit:4;stroke-dasharray:none;stroke-dashoffset:0;stroke-opacity:1"
       id="path4380"
       d="m 422.28121,456.18259 c -0.20725,18.39001 -0.8386,36.77961 -0.7802,55.17217 0.0304,9.57671 0.28518,19.15137 0.42777,28.72705 0.5554,22.16538 1.618,44.31139 2.78481,66.45108 0,0 -12.41904,2.85313 -12.41904,2.85313 l 0,0 c -1.17022,-22.1553 -2.23508,-44.31694 -2.79548,-66.49795 -0.14499,-9.58635 -0.40294,-19.17166 -0.43496,-28.75906 -0.0614,-18.39504 0.57171,-36.78716 0.77854,-55.17963 0,0 12.43856,-2.76679 12.43856,-2.76679 z"
       inkscape:connector-curvature="0" />
    <path
       style="opacity:1;fill:#000000;fill-opacity:1;fill-rule:nonzero;stroke:#000000;stroke-width:0;stroke-linecap:butt;stroke-linejoin:miter;stroke-miterlimit:4;stroke-dasharray:none;stroke-dashoffset:0;stroke-opacity:1"
       id="path4382"
       d="m 422.48924,602.80095 c 19.77786,0.25233 39.52167,1.43752 59.30696,1.39972 7.19719,-0.0138 14.39253,-0.2321 21.58879,-0.34816 14.55222,-0.52215 29.10487,-1.25377 43.60793,-2.58642 1.79484,-0.16491 3.58634,-0.36597 5.37621,-0.57822 0.83914,-0.0995 3.3257,-0.57693 2.50982,-0.35693 -3.7551,1.01255 -7.56117,1.82562 -11.34174,2.73843 0.0485,0.14088 0.097,0.28176 0.14554,0.42265 0,0 12.49278,-2.51067 12.49278,-2.51067 l 0,0 c 0.0152,0.28852 0.0303,0.57703 0.0455,0.86556 -4.37425,1.1136 -8.72779,2.31195 -13.12274,3.34081 -0.82587,0.19333 -1.68104,0.22905 -2.52412,0.32212 -1.79419,0.19808 -3.58909,0.39224 -5.38716,0.55136 -14.51623,1.28459 -29.0762,2.02607 -43.63951,2.50787 -7.20077,0.10473 -14.40078,0.31059 -21.6023,0.31409 -19.78435,0.01 -39.53046,-1.16824 -59.30853,-1.40367 0,0 11.8526,-4.67854 11.8526,-4.67854 z"
       inkscape:connector-curvature="0" />
    <path
       inkscape:connector-curvature="0"
       d="m 549.05248,451.55878 c -0.20726,18.39001 -0.8386,36.77961 -0.78021,55.17217 0.0304,9.57669 0.28519,19.15136 0.42777,28.72704 0.5554,22.16539 1.61801,44.3114 2.78481,66.45105 0,0 -12.41904,2.85312 -12.41904,2.85312 l 0,0 c -1.17021,-22.15525 -2.23507,-44.31689 -2.79547,-66.4979 -0.14499,-9.58635 -0.40294,-19.17166 -0.43497,-28.75907 -0.0614,-18.39503 0.57172,-36.78715 0.77854,-55.17963 0,0 12.43857,-2.76678 12.43857,-2.76678 z"
       id="path4384"
       style="opacity:1;fill:#000000;fill-opacity:1;fill-rule:nonzero;stroke:#000000;stroke-width:0;stroke-linecap:butt;stroke-linejoin:miter;stroke-miterlimit:4;stroke-dasharray:none;stroke-dashoffset:0;stroke-opacity:1" />
    <path
       inkscape:connector-curvature="0"
       d="m 419.71786,485.63074 c 26.18603,-0.11256 52.36594,0.55977 78.55301,0.46368 18.28433,-0.0671 28.36012,-0.34024 45.97042,-0.70572 0,0 -11.83511,4.72261 -11.83511,4.72261 l 0,0 c -17.80403,0.35931 -27.44807,0.61854 -45.98165,0.67748 -26.18055,0.0833 -52.35521,-0.6188 -78.53451,-0.41726 0,0 11.82784,-4.74079 11.82784,-4.74079 z"
       id="path4386"
       style="opacity:1;fill:#000000;fill-opacity:1;fill-rule:nonzero;stroke:#000000;stroke-width:0;stroke-linecap:butt;stroke-linejoin:miter;stroke-miterlimit:4;stroke-dasharray:none;stroke-dashoffset:0;stroke-opacity:1" />
    <text
       xml:space="preserve"
       style="font-style:normal;font-weight:normal;font-size:30px;line-height:125%;font-family:sans-serif;letter-spacing:0px;word-spacing:0px;fill:#000000;fill-opacity:1;stroke:none;stroke-width:1px;stroke-linecap:butt;stroke-linejoin:miter;stroke-opacity:1"
       x="442.93506"
       y="470.11624"
       id="text4388"
       sodipodi:linespacing="125%"
       transform="matrix(0.99985978,0.01674588,-0.01674588,0.99985978,0,0)"><tspan
         sodipodi:role="line"
         id="tspan4390"
         x="442.93506"
         y="470.11624"
         style="font-size:15px">EquipState</tspan></text>
    <path
       inkscape:connector-curvature="0"
       d="m -187.9396,466.61126 c 26.18603,-0.11256 52.36594,0.55977 78.55301,0.46368 18.284333,-0.0671 28.360134,-0.34024 45.970437,-0.70572 0,0 -11.835118,4.72261 -11.835118,4.72261 l 0,0 c -17.804036,0.35931 -27.448069,0.61853 -45.981659,0.67748 -26.18055,0.0833 -52.35521,-0.6188 -78.53451,-0.41726 0,0 11.82784,-4.74079 11.82784,-4.74079 z"
       id="path7944"
       style="opacity:1;fill:#000000;fill-opacity:1;fill-rule:nonzero;stroke:#000000;stroke-width:0;stroke-linecap:butt;stroke-linejoin:miter;stroke-miterlimit:4;stroke-dasharray:none;stroke-dashoffset:0;stroke-opacity:1" />
    <path
       inkscape:connector-curvature="0"
       d="m -186.65289,468.62777 c -0.20725,18.39 -0.8386,36.7796 -0.7802,55.17217 0.0304,9.57669 0.28518,19.15136 0.42777,28.72704 0.5554,22.16539 1.618,44.3114 2.78481,66.45108 0,0 -12.41904,2.85313 -12.41904,2.85313 l 0,0 c -1.17022,-22.1553 -2.23508,-44.31694 -2.79548,-66.49795 -0.14499,-9.58635 -0.40294,-19.17167 -0.43496,-28.75906 -0.0614,-18.39504 0.57171,-36.78716 0.77854,-55.17963 0,0 12.43856,-2.76678 12.43856,-2.76678 z"
       id="path7946"
       style="opacity:1;fill:#000000;fill-opacity:1;fill-rule:nonzero;stroke:#000000;stroke-width:0;stroke-linecap:butt;stroke-linejoin:miter;stroke-miterlimit:4;stroke-dasharray:none;stroke-dashoffset:0;stroke-opacity:1" />
    <path
       inkscape:connector-curvature="0"
       d="m -186.44486,615.24612 c 19.77786,0.25233 39.52167,1.43752 59.30696,1.39972 7.19719,-0.0138 14.39253,-0.2321 21.58879,-0.34815 14.552223,-0.52216 29.104881,-1.25377 43.607941,-2.58642 1.794843,-0.16492 3.586341,-0.36598 5.376206,-0.57823 0.839144,-0.0995 3.325708,-0.57692 2.509819,-0.35693 -3.755092,1.01255 -7.561161,1.82562 -11.341737,2.73843 0.04855,0.14088 0.09703,0.28176 0.145542,0.42265 0,0 12.492776,-2.51067 12.492776,-2.51067 l 0,0 c 0.01517,0.28852 0.03034,0.57704 0.04551,0.86556 -4.374251,1.11361 -8.727789,2.31195 -13.122734,3.34081 -0.825874,0.19333 -1.681042,0.22905 -2.524119,0.32212 -1.794198,0.19809 -3.589091,0.39225 -5.387168,0.55136 -14.516233,1.28459 -29.076206,2.02608 -43.639516,2.50787 -7.20077,0.10473 -14.40078,0.31059 -21.6023,0.31409 -19.78435,0.01 -39.53046,-1.16823 -59.30853,-1.40367 0,0 11.8526,-4.67854 11.8526,-4.67854 z"
       id="path7948"
       style="opacity:1;fill:#000000;fill-opacity:1;fill-rule:nonzero;stroke:#000000;stroke-width:0;stroke-linecap:butt;stroke-linejoin:miter;stroke-miterlimit:4;stroke-dasharray:none;stroke-dashoffset:0;stroke-opacity:1" />
    <path
       style="opacity:1;fill:#000000;fill-opacity:1;fill-rule:nonzero;stroke:#000000;stroke-width:0;stroke-linecap:butt;stroke-linejoin:miter;stroke-miterlimit:4;stroke-dasharray:none;stroke-dashoffset:0;stroke-opacity:1"
       id="path7950"
       d="m -59.881609,464.00395 c -0.207256,18.39001 -0.838605,36.77961 -0.780206,55.17217 0.0304,9.5767 0.285183,19.15137 0.42777,28.72705 0.555399,22.16538 1.618003,44.31139 2.784809,66.45104 0,0 -12.41904,2.85312 -12.41904,2.85312 l 0,0 c -1.170214,-22.15525 -2.235077,-44.31689 -2.795476,-66.4979 -0.144988,-9.58635 -0.40294,-19.17166 -0.434965,-28.75906 -0.06144,-18.39504 0.571714,-36.78716 0.778541,-55.17963 0,0 12.438567,-2.76679 12.438567,-2.76679 z"
       inkscape:connector-curvature="0" />
    <path
       style="opacity:1;fill:#000000;fill-opacity:1;fill-rule:nonzero;stroke:#000000;stroke-width:0;stroke-linecap:butt;stroke-linejoin:miter;stroke-miterlimit:4;stroke-dasharray:none;stroke-dashoffset:0;stroke-opacity:1"
       id="path7952"
       d="m -189.21624,498.07591 c 26.18603,-0.11256 52.36594,0.55977 78.55301,0.46368 18.284333,-0.0671 28.360128,-0.34024 45.970434,-0.70572 0,0 -11.835118,4.72261 -11.835118,4.72261 l 0,0 c -17.804033,0.35931 -27.448076,0.61854 -45.981656,0.67748 -26.18055,0.0833 -52.35521,-0.6188 -78.53451,-0.41725 0,0 11.82784,-4.7408 11.82784,-4.7408 z"
       inkscape:connector-curvature="0" />
    <text
       sodipodi:linespacing="125%"
       id="text7954"
       y="491.73123"
       x="-162.72186"
       style="font-style:normal;font-weight:normal;font-size:30px;line-height:125%;font-family:sans-serif;letter-spacing:0px;word-spacing:0px;fill:#000000;fill-opacity:1;stroke:none;stroke-width:1px;stroke-linecap:butt;stroke-linejoin:miter;stroke-opacity:1"
       xml:space="preserve"
       transform="matrix(0.99985978,0.01674588,-0.01674588,0.99985978,0,0)"><tspan
         style="font-size:15px"
         y="491.73123"
         x="-162.72186"
         id="tspan7956"
         sodipodi:role="line">GunState</tspan></text>
    <path
       inkscape:connector-curvature="0"
       d="m 243.54317,753.14472 c -22.07717,2.20829 -45.23833,2.48599 -68.07734,2.79431 -10.32671,0.0827 -20.66955,0.0871 -31.01469,-0.0866 -4.62826,-0.0777 -9.00227,-0.21908 -13.57823,-0.52121 -2.76218,-0.24766 -1.54977,-0.11807 -3.65168,-0.36449 0,0 -2.33245,-4.44694 -2.33245,-4.44694 l 0,0 c 1.98835,0.25824 0.82976,0.12289 3.49604,0.3751 4.60709,0.31983 8.7424,0.45265 13.42041,0.53287 10.31919,0.17683 20.63628,0.17352 30.93731,0.0927 22.78561,-0.30442 45.89414,-0.57623 67.9185,-2.78122 0,0 2.88213,4.40553 2.88213,4.40553 z"
       id="path7958"
       style="opacity:1;fill:#000000;fill-opacity:1;fill-rule:nonzero;stroke:#000000;stroke-width:0;stroke-linecap:butt;stroke-linejoin:miter;stroke-miterlimit:4;stroke-dasharray:none;stroke-dashoffset:0;stroke-opacity:1" />
    <path
       inkscape:connector-curvature="0"
       d="m 243.12822,753.3187 c -5.02783,-0.65549 -9.93885,-2.00349 -14.81911,-3.34464 -2.1323,-0.67668 -4.36554,-1.17087 -6.32575,-2.2876 -0.0309,-0.0175 -0.0618,-0.0351 -0.0926,-0.0526 0,0 -0.75012,-4.4423 -0.75012,-4.4423 l 0,0 c 0.0291,0.0179 0.0583,0.0357 0.0874,0.0536 0.41154,0.23791 0.80614,0.48835 1.2469,0.67543 1.60562,0.68149 3.31065,1.10312 4.96709,1.63263 4.86136,1.34226 9.75399,2.69528 14.76273,3.35608 0,0 0.92345,4.40951 0.92345,4.40951 z"
       id="path7960"
       style="opacity:1;fill:#000000;fill-opacity:1;fill-rule:nonzero;stroke:#000000;stroke-width:0;stroke-linecap:butt;stroke-linejoin:miter;stroke-miterlimit:4;stroke-dasharray:none;stroke-dashoffset:0;stroke-opacity:1" />
    <path
       style="opacity:1;fill:#000000;fill-opacity:1;fill-rule:nonzero;stroke:#000000;stroke-width:0;stroke-linecap:butt;stroke-linejoin:miter;stroke-miterlimit:4;stroke-dasharray:none;stroke-dashoffset:0;stroke-opacity:1"
       id="path7962"
       d="m 242.33758,749.51211 c -4.75749,1.75358 -9.24758,4.15653 -13.70921,6.54599 -1.92929,1.13247 -3.99744,2.10935 -5.66139,3.63277 -0.0263,0.024 -0.0525,0.0479 -0.0786,0.0719 0,0 0.25314,4.49807 0.25314,4.49807 l 0,0 c 0.0244,-0.0239 0.049,-0.0477 0.0734,-0.0716 0.34858,-0.32321 0.67785,-0.65488 1.06618,-0.935 1.41464,-1.02042 2.98381,-1.80946 4.48169,-2.69294 4.44294,-2.38637 8.914,-4.79015 13.6517,-6.54466 0,0 -0.0769,-4.50452 -0.0769,-4.50452 z"
       inkscape:connector-curvature="0" />
    <path
       inkscape:connector-curvature="0"
       d="m 846.29516,751.99473 c -22.07716,2.20829 -45.23832,2.48599 -68.07733,2.79432 -10.32672,0.0827 -20.66955,0.087 -31.01469,-0.0866 -4.62826,-0.0777 -9.00228,-0.21909 -13.57823,-0.52122 -2.76218,-0.24766 -1.54977,-0.11806 -3.65169,-0.36449 0,0 -2.33245,-4.44694 -2.33245,-4.44694 l 0,0 c 1.98836,0.25824 0.82976,0.12289 3.49604,0.37511 4.60709,0.31982 8.74241,0.45264 13.42042,0.53287 10.31919,0.17683 20.63628,0.17352 30.93731,0.0927 22.78561,-0.30441 45.89413,-0.57623 67.91849,-2.78122 0,0 2.88213,4.40553 2.88213,4.40553 z"
       id="path7964"
       style="opacity:1;fill:#000000;fill-opacity:1;fill-rule:nonzero;stroke:#000000;stroke-width:0;stroke-linecap:butt;stroke-linejoin:miter;stroke-miterlimit:4;stroke-dasharray:none;stroke-dashoffset:0;stroke-opacity:1" />
    <path
       inkscape:connector-curvature="0"
       d="m 845.88021,752.16872 c -5.02783,-0.6555 -9.93884,-2.0035 -14.81911,-3.34464 -2.13229,-0.67668 -4.36553,-1.17088 -6.32575,-2.2876 -0.0309,-0.0175 -0.0618,-0.0351 -0.0926,-0.0527 0,0 -0.75011,-4.4423 -0.75011,-4.4423 l 0,0 c 0.0291,0.0179 0.0583,0.0357 0.0874,0.0536 0.41155,0.2379 0.80615,0.48834 1.24691,0.67542 1.60562,0.68149 3.31065,1.10313 4.96708,1.63264 4.86137,1.34225 9.754,2.69528 14.76273,3.35607 0,0 0.92345,4.40952 0.92345,4.40952 z"
       id="path7966"
       style="opacity:1;fill:#000000;fill-opacity:1;fill-rule:nonzero;stroke:#000000;stroke-width:0;stroke-linecap:butt;stroke-linejoin:miter;stroke-miterlimit:4;stroke-dasharray:none;stroke-dashoffset:0;stroke-opacity:1" />
    <path
       style="opacity:1;fill:#000000;fill-opacity:1;fill-rule:nonzero;stroke:#000000;stroke-width:0;stroke-linecap:butt;stroke-linejoin:miter;stroke-miterlimit:4;stroke-dasharray:none;stroke-dashoffset:0;stroke-opacity:1"
       id="path7968"
       d="m 845.08958,748.36212 c -4.7575,1.75358 -9.24759,4.15654 -13.70921,6.546 -1.92929,1.13246 -3.99745,2.10934 -5.66139,3.63276 -0.0263,0.024 -0.0525,0.0479 -0.0786,0.0719 0,0 0.25314,4.49807 0.25314,4.49807 l 0,0 c 0.0244,-0.0239 0.049,-0.0477 0.0734,-0.0716 0.34858,-0.3232 0.67785,-0.65488 1.06619,-0.93499 1.41464,-1.02043 2.98381,-1.80947 4.48168,-2.69295 4.44295,-2.38636 8.91401,-4.79015 13.6517,-6.54466 0,0 -0.0769,-4.50452 -0.0769,-4.50452 z"
       inkscape:connector-curvature="0" />
    <path
       style="opacity:1;fill:#000000;fill-opacity:1;fill-rule:nonzero;stroke:#000000;stroke-width:0;stroke-linecap:butt;stroke-linejoin:miter;stroke-miterlimit:4;stroke-dasharray:none;stroke-dashoffset:0;stroke-opacity:1"
       id="path8006"
       d="m -284.1774,643.97656 c 30.05757,-0.71352 60.14247,-0.56458 90.21103,-0.58695 52.20297,2.9e-4 104.405933,0.0318 156.608899,0.046 5.240273,0.10191 10.483979,0.12159 15.720821,0.30574 9.723534,0.34192 14.1603035,0.82024 23.5799885,1.58621 5.586004,0.45422 13.0171095,1.1399 18.7231535,1.25957 2.361446,0.0495 4.72341,-0.0814 7.085111,-0.12204 2.650982,-0.1716 5.307494,-0.29426 7.952941,-0.51479 22.535302,-1.87859 -2.334279,-0.30618 26.825587,-2.27666 24.577033,-1.6608 49.203319,-2.9056 73.805719,-4.28919 7.1706,-0.36034 14.34098,-0.72351 21.51178,-1.08103 11.44504,-0.57062 20.78842,-1.08103 32.13205,-1.43593 13.61409,-0.42593 27.22935,-0.45076 40.85087,-0.46382 25.08326,-0.28565 50.16702,-0.43956 75.2526,-0.48457 17.06284,0.30806 33.99206,-1.60625 50.97589,-2.54312 12.03768,-0.66403 16.24401,-0.7111 28.36722,-1.0716 25.93051,-0.53718 51.8725,-0.31861 77.80754,-0.18461 8.07813,0.20158 15.99694,-1.27198 24.0287,-1.49908 2.07113,-0.0419 4.14255,-0.0235 6.21353,0.007 0,0 -14.56176,4.86234 -14.56176,4.86234 l 0,0 c -2.05922,-0.009 -4.11903,-0.0116 -6.17687,0.0641 -8.02535,0.40594 -15.98047,1.6485 -24.062,1.43444 -25.92623,-0.13149 -51.8602,-0.34378 -77.78085,0.23651 -12.4876,0.39236 -15.94973,0.42192 -28.34096,1.12203 -16.99515,0.96024 -33.94822,2.77438 -51.02362,2.45099 -25.08569,0.05 -50.16927,0.22308 -75.25293,0.48392 -13.61325,0.0263 -27.21731,0.0757 -40.82226,0.5193 -10.99347,0.35844 -21.09218,0.8987 -32.12389,1.4516 -7.16943,0.35932 -14.33827,0.72629 -21.50741,1.08944 -24.597674,1.38493 -49.220278,2.62827 -73.789732,4.31968 -43.9530005,3.02581 5.742259,-0.24467 -26.838697,2.25165 -2.657743,0.20363 -5.32678,0.29533 -7.990169,0.44299 -2.377656,0.009 -4.7568364,0.0973 -7.1329705,0.0279 -5.80087898,-0.16956 -13.041651,-0.84446 -18.7420855,-1.29743 -9.308329,-0.73966 -13.94071,-1.18458 -23.534895,-1.49661 -5.232768,-0.17019 -10.471466,-0.18604 -15.707199,-0.27905 -52.202702,-0.0145 -104.405402,-0.0467 -156.608112,-0.0445 -16.02012,0.0135 -27.87525,0.0114 -43.73448,0.0688 -13.93152,0.0505 -27.89295,0.017 -41.81909,0.42265 -1.53194,0.0446 -3.06029,0.14954 -4.59045,0.2243 0,0 14.487,-5.00633 14.487,-5.00633 z"
       inkscape:connector-curvature="0" />
    <path
       inkscape:connector-curvature="0"
       d="m 323.98798,641.6331 c 2.43407,4.95814 2.949,10.14769 3.49123,15.26526 0.18849,2.31359 0.29878,4.63032 0.23112,6.94652 -0.0303,1.03622 -0.12682,2.01514 -0.38203,3.03832 -0.21932,0.61725 -0.10217,0.34644 -0.32702,0.8158 0,0 -4.42228,0.49617 -4.42228,0.49617 l 0,0 c 0.23783,-0.44385 0.11437,-0.18513 0.33923,-0.78087 0.27257,-1.03006 0.363,-1.95555 0.39529,-3.00291 0.0711,-2.31036 -0.0379,-4.62132 -0.22427,-6.92914 -0.53779,-5.10559 -1.04628,-10.28331 -3.47652,-15.22961 0,0 4.37525,-0.61954 4.37525,-0.61954 z"
       id="path8020"
       style="opacity:1;fill:#000000;fill-opacity:1;fill-rule:nonzero;stroke:#000000;stroke-width:0;stroke-linecap:butt;stroke-linejoin:miter;stroke-miterlimit:4;stroke-dasharray:none;stroke-dashoffset:0;stroke-opacity:1" />
    <path
       inkscape:connector-curvature="0"
       d="m 321.71054,642.38925 c -0.6555,2.89999 -2.0035,5.7326 -3.34464,8.54748 -0.67668,1.22989 -1.17088,2.51799 -2.2876,3.64862 -0.0175,0.0178 -0.0351,0.0356 -0.0527,0.0534 0,0 -4.44229,0.43266 -4.44229,0.43266 l 0,0 c 0.0179,-0.0168 0.0357,-0.0336 0.0536,-0.0504 0.2379,-0.23738 0.48835,-0.46498 0.67542,-0.7192 0.6815,-0.92611 1.10313,-1.90955 1.63264,-2.86496 1.34226,-2.80397 2.69528,-5.62598 3.35608,-8.51496 0,0 4.40951,-0.53263 4.40951,-0.53263 z"
       id="path8022"
       style="opacity:1;fill:#000000;fill-opacity:1;fill-rule:nonzero;stroke:#000000;stroke-width:0;stroke-linecap:butt;stroke-linejoin:miter;stroke-miterlimit:4;stroke-dasharray:none;stroke-dashoffset:0;stroke-opacity:1" />
    <path
       inkscape:connector-curvature="0"
       d="m 334.19033,640.39847 c 0.10105,0.2449 0.23261,0.48628 0.30316,0.73472 0.33083,1.16501 0.40957,2.29905 0.47443,3.48486 0.0538,0.98462 0.0737,1.96981 0.0873,2.95489 0.0349,2.52924 -0.0164,4.39711 -0.0589,6.93435 -0.0382,2.75417 -0.0542,5.50842 -0.0858,8.26262 -0.016,1.39172 -0.0575,2.7823 -0.022,4.1739 0.0154,0.22496 0.0275,0.45002 0.0462,0.6749 0.0118,0.14286 0.0174,0.28615 0.0456,0.42824 0.0138,0.0694 0.0382,0.13889 0.08,0.20447 0.0102,0.0161 0.0995,0.028 0.0704,0.0314 -4.53603,0.51945 -4.91504,1.17727 -3.91784,0.0752 1.35824,-1.54941 3.19471,-2.93823 4.8003,-4.4014 1.02577,-0.93479 1.98548,-1.89316 2.98431,-2.83761 0.5993,-0.60818 1.25791,-1.19535 1.91196,-1.78399 0,0 4.44507,-0.42306 4.44507,-0.42306 l 0,0 c -0.65306,0.58734 -1.32784,1.16687 -1.91359,1.77835 -1.00234,0.9461 -1.95636,1.9093 -2.98157,2.8472 -1.59424,1.45848 -3.43544,2.83602 -4.80906,4.37155 -0.99832,1.16992 -0.23037,0.516 -4.84901,1.09244 -0.0799,0.01 -0.0885,-0.0804 -0.11397,-0.12517 -0.24816,-0.4359 -0.0803,-0.91518 -0.19334,-1.36013 -0.0387,-1.39342 0.004,-2.78569 0.0199,-4.17927 0.0318,-2.75453 0.0476,-5.50911 0.0855,-8.26362 0.0435,-2.54414 0.0945,-4.39193 0.0616,-6.92763 -0.0128,-0.9822 -0.032,-1.96452 -0.0839,-2.9463 -0.061,-1.15222 -0.13626,-2.29969 -0.45527,-3.43867 -0.0672,-0.2401 -0.19482,-0.47325 -0.29222,-0.70988 0,0 4.36091,-0.65232 4.36091,-0.65232 z"
       id="path8024"
       style="opacity:1;fill:#000000;fill-opacity:1;fill-rule:nonzero;stroke:#000000;stroke-width:0;stroke-linecap:butt;stroke-linejoin:miter;stroke-miterlimit:4;stroke-dasharray:none;stroke-dashoffset:0;stroke-opacity:1" />
    <path
       inkscape:connector-curvature="0"
       d="m 17.416932,615.39842 c 2.434069,5.74962 2.948999,11.76759 3.491229,17.70209 0.18849,2.68291 0.29878,5.36947 0.23112,8.05541 -0.0303,1.20163 -0.12682,2.33682 -0.38203,3.52333 -0.21932,0.71579 -0.10217,0.40175 -0.32702,0.94603 0,0 -4.422279,0.57538 -4.422279,0.57538 l 0,0 c 0.23783,-0.51471 0.11437,-0.21469 0.33923,-0.90553 0.27257,-1.19449 0.363,-2.26772 0.39529,-3.48227 0.0711,-2.67917 -0.0379,-5.35903 -0.22427,-8.03525 -0.53779,-5.92061 -1.04628,-11.92486 -3.47652,-17.66075 0,0 4.37525,-0.71844 4.37525,-0.71844 z"
       id="path8032"
       style="opacity:1;fill:#000000;fill-opacity:1;fill-rule:nonzero;stroke:#000000;stroke-width:0;stroke-linecap:butt;stroke-linejoin:miter;stroke-miterlimit:4;stroke-dasharray:none;stroke-dashoffset:0;stroke-opacity:1" />
    <path
       style="opacity:1;fill:#000000;fill-opacity:1;fill-rule:nonzero;stroke:#000000;stroke-width:0;stroke-linecap:butt;stroke-linejoin:miter;stroke-miterlimit:4;stroke-dasharray:none;stroke-dashoffset:0;stroke-opacity:1"
       id="path8038"
       d="m -136.99294,619.14623 c 2.43407,4.95814 2.949,10.14769 3.49123,15.26526 0.18849,2.31359 0.29878,4.63032 0.23112,6.94652 -0.0303,1.03622 -0.12682,2.01514 -0.38203,3.03832 -0.21932,0.61725 -0.10217,0.34644 -0.32702,0.8158 0,0 -4.42228,0.49617 -4.42228,0.49617 l 0,0 c 0.23783,-0.44385 0.11437,-0.18513 0.33923,-0.78087 0.27257,-1.03006 0.363,-1.95555 0.39529,-3.00291 0.0711,-2.31036 -0.0379,-4.62132 -0.22427,-6.92914 -0.53779,-5.10559 -1.04628,-10.28331 -3.47652,-15.22961 0,0 4.37525,-0.61954 4.37525,-0.61954 z"
       inkscape:connector-curvature="0" />
    <path
       style="opacity:1;fill:#000000;fill-opacity:1;fill-rule:nonzero;stroke:#000000;stroke-width:0;stroke-linecap:butt;stroke-linejoin:miter;stroke-miterlimit:4;stroke-dasharray:none;stroke-dashoffset:0;stroke-opacity:1"
       id="path8557"
       d="m 325.88898,610.09821 c 2.43407,5.74962 2.949,11.76759 3.49123,17.70209 0.18849,2.68291 0.29878,5.36947 0.23112,8.05541 -0.0303,1.20163 -0.12682,2.33682 -0.38203,3.52333 -0.21932,0.71579 -0.10217,0.40175 -0.32702,0.94603 0,0 -4.42228,0.57538 -4.42228,0.57538 l 0,0 c 0.23783,-0.51471 0.11437,-0.21469 0.33923,-0.90553 0.27257,-1.19449 0.363,-2.26772 0.39529,-3.48227 0.0711,-2.67917 -0.0379,-5.35903 -0.22427,-8.03525 -0.53779,-5.92061 -1.04628,-11.92486 -3.47652,-17.66075 0,0 4.37525,-0.71844 4.37525,-0.71844 z"
       inkscape:connector-curvature="0" />
    <path
       inkscape:connector-curvature="0"
       d="m 171.47911,613.84602 c 2.43407,5.55175 2.949,11.36261 3.49123,17.09288 0.18849,2.59058 0.29878,5.18468 0.23112,7.77819 -0.0303,1.16028 -0.12682,2.2564 -0.38203,3.40208 -0.21932,0.69115 -0.10217,0.38792 -0.32702,0.91347 0,0 -4.42228,0.55557 -4.42228,0.55557 l 0,0 c 0.23783,-0.49699 0.11437,-0.20729 0.33923,-0.87436 0.27257,-1.15338 0.363,-2.18967 0.39529,-3.36243 0.0711,-2.58696 -0.0379,-5.1746 -0.22427,-7.75872 -0.53779,-5.71686 -1.04628,-11.51447 -3.47652,-17.05297 0,0 4.37525,-0.69371 4.37525,-0.69371 z"
       id="path8559"
       style="opacity:1;fill:#000000;fill-opacity:1;fill-rule:nonzero;stroke:#000000;stroke-width:0;stroke-linecap:butt;stroke-linejoin:miter;stroke-miterlimit:4;stroke-dasharray:none;stroke-dashoffset:0;stroke-opacity:1" />
    <path
       style="opacity:1;fill:#000000;fill-opacity:1;fill-rule:nonzero;stroke:#000000;stroke-width:0;stroke-linecap:butt;stroke-linejoin:miter;stroke-miterlimit:4;stroke-dasharray:none;stroke-dashoffset:0;stroke-opacity:1"
       id="path8561"
       d="m 485.25137,604.30565 c 2.43407,5.55175 2.949,11.36261 3.49123,17.09288 0.18849,2.59058 0.29878,5.18468 0.23112,7.77819 -0.0303,1.16028 -0.12682,2.2564 -0.38203,3.40208 -0.21932,0.69115 -0.10217,0.38792 -0.32702,0.91347 0,0 -4.42228,0.55557 -4.42228,0.55557 l 0,0 c 0.23783,-0.49699 0.11437,-0.20729 0.33923,-0.87436 0.27257,-1.15338 0.363,-2.18967 0.39529,-3.36243 0.0711,-2.58696 -0.0379,-5.1746 -0.22427,-7.75872 -0.53779,-5.71686 -1.04628,-11.51447 -3.47652,-17.05297 0,0 4.37525,-0.69371 4.37525,-0.69371 z"
       inkscape:connector-curvature="0" />
    <path
       inkscape:connector-curvature="0"
       d="m 859.85824,982.53784 c -15.20464,-7.6128 -30.22041,-15.6549 -45.52924,-23.03864 -4.97276,-2.39843 -10.00865,-4.65139 -15.01297,-6.97711 -17.77606,-7.70411 -36.35308,-13.26999 -54.08088,-21.08708 -12.05206,-5.60816 -23.58157,-12.35553 -35.0499,-19.18328 -5.30985,-2.89337 -10.31304,-6.37955 -15.53197,-9.44738 -3.51621,-2.06697 -5.28762,-2.95873 -8.9402,-4.90484 -11.53581,-5.76725 -22.73041,-12.25678 -33.99522,-18.59018 -5.13285,-2.73672 -10.12871,-5.80063 -15.43202,-8.16911 -6.00816,-1.96787 13.3175,1.20884 7.44111,0.92003 -3.52498,-0.51927 -7.05953,-0.99439 -10.57496,-1.55785 -0.1981,-0.0318 -0.75398,-0.2526 -0.55476,-0.22604 3.1824,0.42311 6.34641,0.93534 9.51649,1.41754 0.32675,0.0496 -0.66808,-0.0192 -0.99551,-0.0655 -3.51477,-0.49727 -7.02267,-1.02725 -10.53401,-1.54086 -0.17044,-0.0731 -0.34056,-0.14709 -0.51067,-0.22101 0,0 10.404,-0.30678 10.404,-0.30678 l 0,0 c 0.1729,0.0403 0.3458,0.0806 0.51874,0.12075 -31.60122,-4.36226 24.69752,3.41774 -6.91397,-0.89389 4.15811,0.8311 8.77568,0.2159 12.59759,2.1587 5.25457,2.50454 10.30805,5.45054 15.42434,8.24961 11.25924,6.34003 22.47452,12.77942 33.99726,18.56935 3.90944,2.10628 5.19047,2.74093 8.9343,4.96451 5.20482,3.0912 10.23857,6.5147 15.53344,9.43289 11.46024,6.81137 22.99573,13.51981 35.06176,19.0586 17.76655,7.72225 36.32875,13.33551 54.07878,21.11031 5.00342,2.3352 10.037,4.60112 15.01029,7.00554 15.30183,7.39797 30.31533,15.44094 45.53001,23.03058 0,0 -10.39188,0.17122 -10.39188,0.17122 z"
       id="path23043"
       style="opacity:1;fill:#000000;fill-opacity:1;fill-rule:nonzero;stroke:#000000;stroke-width:0;stroke-linecap:butt;stroke-linejoin:miter;stroke-miterlimit:4;stroke-dasharray:none;stroke-dashoffset:0;stroke-opacity:1" />
    <path
       inkscape:transform-center-y="-11.146165"
       inkscape:transform-center-x="7.6875189"
       style="opacity:1;fill:#000000;fill-opacity:1;fill-rule:nonzero;stroke:#000000;stroke-width:0;stroke-linecap:butt;stroke-linejoin:miter;stroke-miterlimit:4;stroke-dasharray:none;stroke-dashoffset:0;stroke-opacity:1"
       id="path23045"
       d="m 773.77289,940.67476 c 4.73242,1.82016 9.6922,2.97587 14.6217,4.12294 2.19703,0.42144 4.39583,1.05143 6.65133,1.004 0.0355,-6.8e-4 0.0711,-10e-4 0.10648,-0.002 0,0 2.77676,-3.54772 2.77676,-3.54772 l 0,0 c -0.0341,0.002 -0.0683,0.004 -0.10241,0.005 -0.47518,0.013 -0.94144,0.0451 -1.41808,-5.5e-4 -1.73633,-0.16618 -3.43619,-0.60819 -5.14475,-0.9322 -4.91341,-1.13709 -9.85942,-2.27961 -14.57759,-4.08602 0,0 -2.91351,3.43628 -2.91351,3.43628 z"
       inkscape:connector-curvature="0" />
    <path
       inkscape:transform-center-y="-3.90462"
       inkscape:transform-center-x="12.257414"
       inkscape:connector-curvature="0"
       d="m 776.28228,937.70521 c 3.34653,3.80914 6.14846,8.0617 8.9318,12.28883 1.15628,1.9151 2.5088,3.75963 3.24547,5.89196 0.0117,0.0336 0.0233,0.0672 0.0349,0.1007 0,0 -2.36646,3.83362 -2.36646,3.83362 l 0,0 c -0.0101,-0.0326 -0.0204,-0.0653 -0.0304,-0.0979 -0.15239,-0.45028 -0.28376,-0.8988 -0.49164,-1.33014 -0.75725,-1.57131 -1.76063,-3.01288 -2.65632,-4.50349 -2.76841,-4.21549 -5.55322,-8.45971 -8.88189,-12.26024 0,0 2.21456,-3.92331 2.21456,-3.92331 z"
       id="path23047"
       style="opacity:1;fill:#000000;fill-opacity:1;fill-rule:nonzero;stroke:#000000;stroke-width:0;stroke-linecap:butt;stroke-linejoin:miter;stroke-miterlimit:4;stroke-dasharray:none;stroke-dashoffset:0;stroke-opacity:1" />
    <path
       inkscape:connector-curvature="0"
       d="m 882.09957,673.14696 c 26.186,-0.11256 52.366,0.55977 78.553,0.46368 18.2844,-0.0671 28.3602,-0.34024 45.97053,-0.70572 0,0 -11.83523,4.72261 -11.83523,4.72261 l 0,0 c -17.804,0.35931 -27.448,0.61853 -45.9816,0.67748 -26.1806,0.0833 -52.3552,-0.6188 -78.5345,-0.41726 0,0 11.8278,-4.74079 11.8278,-4.74079 z"
       id="path23083"
       style="opacity:1;fill:#000000;fill-opacity:1;fill-rule:nonzero;stroke:#000000;stroke-width:0;stroke-linecap:butt;stroke-linejoin:miter;stroke-miterlimit:4;stroke-dasharray:none;stroke-dashoffset:0;stroke-opacity:1" />
    <path
       inkscape:connector-curvature="0"
       d="m 883.38627,675.16347 c -0.2072,18.39 -0.8386,36.7796 -0.7802,55.17217 0.03,9.57669 0.2852,19.15136 0.4278,28.72704 0.5554,22.16539 1.618,44.3114 2.7848,66.45104 0,0 -12.419,2.85312 -12.419,2.85312 l 0,0 c -1.1703,-22.15525 -2.2351,-44.31689 -2.7955,-66.49789 -0.145,-9.58636 -0.403,-19.17167 -0.435,-28.75907 -0.061,-18.39504 0.5717,-36.78716 0.7786,-55.17963 0,0 12.4385,-2.76678 12.4385,-2.76678 z"
       id="path23085"
       style="opacity:1;fill:#000000;fill-opacity:1;fill-rule:nonzero;stroke:#000000;stroke-width:0;stroke-linecap:butt;stroke-linejoin:miter;stroke-miterlimit:4;stroke-dasharray:none;stroke-dashoffset:0;stroke-opacity:1" />
    <path
       inkscape:connector-curvature="0"
       d="m 883.59437,821.78182 c 19.7778,0.25233 39.5216,1.43753 59.3069,1.39972 7.1972,-0.0138 14.3925,-0.23209 21.5888,-0.34815 14.5522,-0.52216 29.1049,-1.25377 43.60793,-2.58642 1.7949,-0.16492 3.5864,-0.36598 5.3762,-0.57822 0.8392,-0.0995 3.3257,-0.57693 2.5099,-0.35694 -3.7551,1.01255 -7.5612,1.82562 -11.3418,2.73843 0.049,0.14088 0.097,0.28177 0.1456,0.42265 0,0 12.4927,-2.51067 12.4927,-2.51067 l 0,0 c 0.015,0.28852 0.03,0.57704 0.045,0.86556 -4.3742,1.11361 -8.7277,2.31195 -13.1227,3.34081 -0.8259,0.19334 -1.681,0.22905 -2.5241,0.32213 -1.79423,0.19808 -3.58913,0.39219 -5.38723,0.5513 -14.5162,1.2846 -29.0762,2.02612 -43.6395,2.50791 -7.2008,0.10471 -14.4008,0.31062 -21.6023,0.31413 -19.7843,0.01 -39.5304,-1.1683 -59.3085,-1.4037 0,0 11.8526,-4.67854 11.8526,-4.67854 z"
       id="path23087"
       style="opacity:1;fill:#000000;fill-opacity:1;fill-rule:nonzero;stroke:#000000;stroke-width:0;stroke-linecap:butt;stroke-linejoin:miter;stroke-miterlimit:4;stroke-dasharray:none;stroke-dashoffset:0;stroke-opacity:1" />
    <path
       style="opacity:1;fill:#000000;fill-opacity:1;fill-rule:nonzero;stroke:#000000;stroke-width:0;stroke-linecap:butt;stroke-linejoin:miter;stroke-miterlimit:4;stroke-dasharray:none;stroke-dashoffset:0;stroke-opacity:1"
       id="path23089"
       d="m 1010.1576,670.53965 c -0.2073,18.39001 -0.8386,36.77961 -0.7802,55.17218 0.03,9.57669 0.2852,19.15136 0.4278,28.72704 0.5554,22.16539 1.618,44.3114 2.7848,66.45104 0,0 -12.4191,2.85312 -12.4191,2.85312 l 0,0 c -1.17023,-22.15525 -2.23503,-44.31689 -2.79543,-66.4979 -0.145,-9.58635 -0.403,-19.17166 -0.435,-28.75906 -0.061,-18.39504 0.5717,-36.78716 0.7785,-55.17963 0,0 12.43863,-2.76679 12.43863,-2.76679 z"
       inkscape:connector-curvature="0" />
    <path
       style="opacity:1;fill:#000000;fill-opacity:1;fill-rule:nonzero;stroke:#000000;stroke-width:0;stroke-linecap:butt;stroke-linejoin:miter;stroke-miterlimit:4;stroke-dasharray:none;stroke-dashoffset:0;stroke-opacity:1"
       id="path23091"
       d="m 880.82297,704.61161 c 26.186,-0.11256 52.3659,0.55977 78.553,0.46368 18.2843,-0.0671 28.3601,-0.34024 45.97043,-0.70572 0,0 -11.83513,4.72261 -11.83513,4.72261 l 0,0 c -17.804,0.35931 -27.4481,0.61854 -45.9817,0.67748 -26.1805,0.0833 -52.3552,-0.6188 -78.5345,-0.41725 0,0 11.8279,-4.7408 11.8279,-4.7408 z"
       inkscape:connector-curvature="0" />
    <text
       transform="matrix(0.99985978,0.01674588,-0.01674588,0.99985978,0,0)"
       sodipodi:linespacing="125%"
       id="text23093"
       y="681.34473"
       x="907.64252"
       style="font-style:normal;font-weight:normal;font-size:30px;line-height:125%;font-family:sans-serif;letter-spacing:0px;word-spacing:0px;fill:#000000;fill-opacity:1;stroke:none;stroke-width:1px;stroke-linecap:butt;stroke-linejoin:miter;stroke-opacity:1"
       xml:space="preserve"><tspan
         style="font-size:15px"
         y="681.34473"
         x="907.64252"
         id="tspan23095"
         sodipodi:role="line">LootState</tspan></text>
    <path
       style="opacity:1;fill:#000000;fill-opacity:1;fill-rule:nonzero;stroke:#000000;stroke-width:0;stroke-linecap:butt;stroke-linejoin:miter;stroke-miterlimit:4;stroke-dasharray:none;stroke-dashoffset:0;stroke-opacity:1"
       id="path23117"
       d="m 724.46065,714.89328 c 22.07716,2.20829 45.23832,2.48599 68.07733,2.79432 10.32672,0.0827 20.66955,0.087 31.01469,-0.0866 4.62826,-0.0777 9.00228,-0.21909 13.57823,-0.52122 2.76218,-0.24766 1.54977,-0.11806 3.65169,-0.36449 0,0 2.33245,-4.44694 2.33245,-4.44694 l 0,0 c -1.98836,0.25824 -0.82976,0.12289 -3.49604,0.37511 -4.60709,0.31982 -8.74241,0.45264 -13.42042,0.53287 -10.31919,0.17683 -20.63628,0.17352 -30.93731,0.0927 -22.78561,-0.30441 -45.89413,-0.57623 -67.91849,-2.78122 0,0 -2.88213,4.40553 -2.88213,4.40553 z"
       inkscape:connector-curvature="0" />
    <path
       style="opacity:1;fill:#000000;fill-opacity:1;fill-rule:nonzero;stroke:#000000;stroke-width:0;stroke-linecap:butt;stroke-linejoin:miter;stroke-miterlimit:4;stroke-dasharray:none;stroke-dashoffset:0;stroke-opacity:1"
       id="path23119"
       d="m 724.8756,715.06727 c 5.02783,-0.6555 9.93884,-2.0035 14.81911,-3.34464 2.13229,-0.67668 4.36553,-1.17088 6.32575,-2.2876 0.0309,-0.0175 0.0618,-0.0351 0.0926,-0.0527 0,0 0.75011,-4.4423 0.75011,-4.4423 l 0,0 c -0.0291,0.0179 -0.0583,0.0357 -0.0874,0.0536 -0.41155,0.2379 -0.80615,0.48834 -1.24691,0.67542 -1.60562,0.68149 -3.31065,1.10313 -4.96708,1.63264 -4.86137,1.34225 -9.754,2.69528 -14.76273,3.35607 0,0 -0.92345,4.40952 -0.92345,4.40952 z"
       inkscape:connector-curvature="0" />
    <path
       inkscape:connector-curvature="0"
       d="m 725.66623,711.26067 c 4.7575,1.75358 9.24759,4.15654 13.70921,6.546 1.92929,1.13246 3.99745,2.10934 5.66139,3.63276 0.0263,0.024 0.0525,0.0479 0.0786,0.0719 0,0 -0.25314,4.49807 -0.25314,4.49807 l 0,0 c -0.0244,-0.0239 -0.049,-0.0477 -0.0734,-0.0716 -0.34858,-0.3232 -0.67785,-0.65488 -1.06619,-0.93499 -1.41464,-1.02043 -2.98381,-1.80947 -4.48168,-2.69295 -4.44295,-2.38636 -8.91401,-4.79015 -13.6517,-6.54466 0,0 0.0769,-4.50452 0.0769,-4.50452 z"
       id="path23121"
       style="opacity:1;fill:#000000;fill-opacity:1;fill-rule:nonzero;stroke:#000000;stroke-width:0;stroke-linecap:butt;stroke-linejoin:miter;stroke-miterlimit:4;stroke-dasharray:none;stroke-dashoffset:0;stroke-opacity:1" />
    <text
       xml:space="preserve"
       style="font-style:normal;font-weight:normal;font-size:30px;line-height:125%;font-family:sans-serif;letter-spacing:0px;word-spacing:0px;fill:#000000;fill-opacity:1;stroke:none;stroke-width:1px;stroke-linecap:butt;stroke-linejoin:miter;stroke-opacity:1"
       x="750.50928"
       y="708.90875"
       id="text23123"
       sodipodi:linespacing="125%"><tspan
         sodipodi:role="line"
         id="tspan23125"
         x="750.50928"
         y="708.90875">New</tspan></text>
    <path
       style="opacity:1;fill:#000000;fill-opacity:1;fill-rule:nonzero;stroke:#000000;stroke-width:0;stroke-linecap:butt;stroke-linejoin:miter;stroke-miterlimit:4;stroke-dasharray:none;stroke-dashoffset:0;stroke-opacity:1"
       id="path23127"
       d="m 870.99876,895.61447 c -11.31243,-5.49353 -22.48434,-11.29684 -33.87429,-16.62508 -3.69979,-1.73075 -7.44655,-3.35653 -11.16982,-5.0348 -13.2256,-5.55942 -27.04712,-9.57586 -40.23681,-15.2168 -8.96687,-4.04695 -17.54496,-8.91597 -26.07752,-13.84298 -3.9506,-2.08791 -7.67303,-4.60359 -11.55597,-6.8174 -2.61611,-1.49156 -3.93406,-2.13507 -6.65161,-3.53941 -8.58278,-4.16175 -16.91169,-8.84471 -25.29284,-13.415 -3.8189,-1.97486 -7.53589,-4.18584 -11.48161,-5.89497 -4.47014,-1.42005 9.90837,0.87232 5.53628,0.66391 -2.62263,-0.37472 -5.25238,-0.71757 -7.8679,-1.12417 -0.14739,-0.0229 -0.56097,-0.18228 -0.41275,-0.16312 2.36775,0.30533 4.72181,0.67496 7.08039,1.02293 0.2431,0.0358 -0.49706,-0.0138 -0.74068,-0.0473 -2.61503,-0.35884 -5.22495,-0.74128 -7.83743,-1.11191 -0.1268,-0.0528 -0.25338,-0.10614 -0.37994,-0.15948 0,0 7.7407,-0.22139 7.7407,-0.22139 l 0,0 c 0.12864,0.0291 0.25727,0.0582 0.38595,0.0872 -23.51168,-3.14788 18.37524,2.4663 -5.14408,-0.64505 3.09368,0.59974 6.52921,0.1558 9.37275,1.55776 3.90946,1.80732 7.66932,3.9332 11.4759,5.95306 8.377,4.57507 16.7213,9.22185 25.29436,13.39996 2.90866,1.51993 3.86177,1.97791 6.64721,3.58248 3.87246,2.23066 7.61762,4.70112 11.55706,6.80694 8.52656,4.9152 17.1091,9.75613 26.08636,13.75301 13.21852,5.57251 27.02901,9.62313 40.23524,15.23356 3.72261,1.68512 7.46765,3.32025 11.16784,5.05532 11.38473,5.3385 22.55495,11.14245 33.87485,16.61926 0,0 -7.73168,0.12356 -7.73168,0.12356 z"
       inkscape:connector-curvature="0" />
    <path
       inkscape:connector-curvature="0"
       d="m 804.28934,865.22021 c -4.73242,-1.82016 -9.6922,-2.97587 -14.6217,-4.12294 -2.19703,-0.42144 -4.39583,-1.05143 -6.65133,-1.004 -0.0355,6.8e-4 -0.0711,0.001 -0.10648,0.002 0,0 -2.77676,3.54772 -2.77676,3.54772 l 0,0 c 0.0341,-0.002 0.0683,-0.004 0.10241,-0.005 0.47518,-0.013 0.94144,-0.0451 1.41808,5.5e-4 1.73633,0.16618 3.43619,0.60819 5.14475,0.9322 4.91341,1.13709 9.85942,2.27961 14.57759,4.08602 0,0 2.91351,-3.43628 2.91351,-3.43628 z"
       id="path23129"
       style="opacity:1;fill:#000000;fill-opacity:1;fill-rule:nonzero;stroke:#000000;stroke-width:0;stroke-linecap:butt;stroke-linejoin:miter;stroke-miterlimit:4;stroke-dasharray:none;stroke-dashoffset:0;stroke-opacity:1"
       inkscape:transform-center-x="-7.687522"
       inkscape:transform-center-y="11.146166" />
    <path
       style="opacity:1;fill:#000000;fill-opacity:1;fill-rule:nonzero;stroke:#000000;stroke-width:0;stroke-linecap:butt;stroke-linejoin:miter;stroke-miterlimit:4;stroke-dasharray:none;stroke-dashoffset:0;stroke-opacity:1"
       id="path23131"
       d="m 801.77995,868.18976 c -3.34653,-3.80914 -6.14846,-8.0617 -8.9318,-12.28883 -1.15628,-1.9151 -2.5088,-3.75963 -3.24547,-5.89196 -0.0117,-0.0336 -0.0233,-0.0672 -0.0349,-0.1007 0,0 2.36646,-3.83362 2.36646,-3.83362 l 0,0 c 0.0101,0.0326 0.0204,0.0653 0.0304,0.0979 0.15239,0.45028 0.28376,0.8988 0.49164,1.33014 0.75725,1.57131 1.76063,3.01288 2.65632,4.50349 2.76841,4.21549 5.55322,8.45971 8.88189,12.26024 0,0 -2.21456,3.92331 -2.21456,3.92331 z"
       inkscape:connector-curvature="0"
       inkscape:transform-center-x="-12.257417"
       inkscape:transform-center-y="3.9046209" />
    <path
       style="opacity:1;fill:#000000;fill-opacity:1;fill-rule:nonzero;stroke:#000000;stroke-width:0;stroke-linecap:butt;stroke-linejoin:miter;stroke-miterlimit:4;stroke-dasharray:none;stroke-dashoffset:0;stroke-opacity:1"
       id="path23133"
       d="m 650.00573,870.17345 c 15.20464,-7.6128 30.22041,-15.6549 45.52924,-23.03864 4.97276,-2.39843 10.00865,-4.65139 15.01297,-6.97711 17.77606,-7.70411 36.35308,-13.26999 54.08088,-21.08708 12.05206,-5.60816 23.58157,-12.35553 35.0499,-19.18328 5.30985,-2.89337 10.31304,-6.37955 15.53197,-9.44738 3.51621,-2.06697 5.28762,-2.95873 8.9402,-4.90484 11.53581,-5.76725 22.73041,-12.25678 33.99522,-18.59018 5.13285,-2.73672 10.12871,-5.80063 15.43202,-8.16911 6.00816,-1.96787 -13.3175,1.20884 -7.44111,0.92003 3.52498,-0.51927 7.05953,-0.99439 10.57496,-1.55785 0.1981,-0.0318 0.75398,-0.2526 0.55476,-0.22604 -3.1824,0.42311 -6.34641,0.93534 -9.51649,1.41754 -0.32675,0.0496 0.66808,-0.0192 0.99551,-0.0655 3.51477,-0.49727 7.02267,-1.02725 10.53401,-1.54086 0.17044,-0.0731 0.34056,-0.14709 0.51067,-0.22101 0,0 -10.404,-0.30678 -10.404,-0.30678 l 0,0 c -0.1729,0.0403 -0.3458,0.0806 -0.51874,0.12075 31.60122,-4.36226 -24.69752,3.41774 6.91397,-0.89389 -4.15811,0.8311 -8.77568,0.2159 -12.59759,2.1587 -5.25457,2.50454 -10.30805,5.45054 -15.42434,8.24961 -11.25924,6.34003 -22.47452,12.77942 -33.99726,18.56935 -3.90944,2.10628 -5.19047,2.74093 -8.9343,4.96451 -5.20482,3.0912 -10.23857,6.5147 -15.53344,9.43289 -11.46024,6.81137 -22.99573,13.51981 -35.06176,19.0586 -17.76655,7.72225 -36.32875,13.33551 -54.07878,21.11031 -5.00342,2.3352 -10.037,4.60112 -15.01029,7.00554 -15.30183,7.39797 -30.31533,15.44094 -45.53001,23.03058 0,0 10.39188,0.17122 10.39188,0.17122 z"
       inkscape:connector-curvature="0" />
    <path
       inkscape:transform-center-y="11.14617"
       inkscape:transform-center-x="7.6875251"
       style="opacity:1;fill:#000000;fill-opacity:1;fill-rule:nonzero;stroke:#000000;stroke-width:0;stroke-linecap:butt;stroke-linejoin:miter;stroke-miterlimit:4;stroke-dasharray:none;stroke-dashoffset:0;stroke-opacity:1"
       id="path23135"
       d="m 780.13314,805.85789 c 4.73242,-1.82016 9.6922,-2.97587 14.6217,-4.12294 2.19703,-0.42144 4.39583,-1.05143 6.65133,-1.004 0.0355,6.8e-4 0.0711,10e-4 0.10648,0.002 0,0 2.77676,3.54772 2.77676,3.54772 l 0,0 c -0.0341,-0.002 -0.0683,-0.004 -0.10241,-0.005 -0.47518,-0.013 -0.94144,-0.0451 -1.41808,5.5e-4 -1.73633,0.16618 -3.43619,0.60819 -5.14475,0.9322 -4.91341,1.13709 -9.85942,2.27961 -14.57759,4.08602 0,0 -2.91351,-3.43628 -2.91351,-3.43628 z"
       inkscape:connector-curvature="0" />
    <path
       inkscape:transform-center-y="3.9046251"
       inkscape:transform-center-x="12.25742"
       inkscape:connector-curvature="0"
       d="m 782.64253,808.82744 c 3.34653,-3.80914 6.14846,-8.0617 8.9318,-12.28883 1.15628,-1.9151 2.5088,-3.75963 3.24547,-5.89196 0.0117,-0.0336 0.0233,-0.0672 0.0349,-0.1007 0,0 -2.36646,-3.83362 -2.36646,-3.83362 l 0,0 c -0.0101,0.0326 -0.0204,0.0653 -0.0304,0.0979 -0.15239,0.45028 -0.28376,0.8988 -0.49164,1.33014 -0.75725,1.57131 -1.76063,3.01288 -2.65632,4.50349 -2.76841,4.21549 -5.55322,8.45971 -8.88189,12.26024 0,0 2.21456,3.92331 2.21456,3.92331 z"
       id="path23137"
       style="opacity:1;fill:#000000;fill-opacity:1;fill-rule:nonzero;stroke:#000000;stroke-width:0;stroke-linecap:butt;stroke-linejoin:miter;stroke-miterlimit:4;stroke-dasharray:none;stroke-dashoffset:0;stroke-opacity:1" />
    <path
       style="opacity:1;fill:#000000;fill-opacity:1;fill-rule:nonzero;stroke:#000000;stroke-width:0;stroke-linecap:butt;stroke-linejoin:miter;stroke-miterlimit:4;stroke-dasharray:none;stroke-dashoffset:0;stroke-opacity:1"
       id="path23225"
       d="m -342.34947,468.11038 c 26.18603,-0.11256 52.36594,0.55977 78.55301,0.46368 18.28433,-0.0671 28.36013,-0.34024 45.97044,-0.70572 0,0 -11.83512,4.72261 -11.83512,4.72261 l 0,0 c -17.80404,0.35931 -27.44807,0.61853 -45.98166,0.67748 -26.18055,0.0833 -52.35521,-0.6188 -78.53451,-0.41726 0,0 11.82784,-4.74079 11.82784,-4.74079 z"
       inkscape:connector-curvature="0" />
    <path
       style="opacity:1;fill:#000000;fill-opacity:1;fill-rule:nonzero;stroke:#000000;stroke-width:0;stroke-linecap:butt;stroke-linejoin:miter;stroke-miterlimit:4;stroke-dasharray:none;stroke-dashoffset:0;stroke-opacity:1"
       id="path23227"
       d="m -341.06276,470.12689 c -0.20725,18.39 -0.8386,36.7796 -0.7802,55.17217 0.0304,9.57669 0.28518,19.15136 0.42777,28.72704 0.5554,22.16539 1.618,44.3114 2.78481,66.45108 0,0 -12.41904,2.85313 -12.41904,2.85313 l 0,0 c -1.17022,-22.1553 -2.23508,-44.31694 -2.79548,-66.49795 -0.14499,-9.58635 -0.40294,-19.17167 -0.43496,-28.75906 -0.0614,-18.39504 0.57171,-36.78716 0.77854,-55.17963 0,0 12.43856,-2.76678 12.43856,-2.76678 z"
       inkscape:connector-curvature="0" />
    <path
       style="opacity:1;fill:#000000;fill-opacity:1;fill-rule:nonzero;stroke:#000000;stroke-width:0;stroke-linecap:butt;stroke-linejoin:miter;stroke-miterlimit:4;stroke-dasharray:none;stroke-dashoffset:0;stroke-opacity:1"
       id="path23229"
       d="m -340.85473,616.74524 c 19.77786,0.25233 39.52167,1.43752 59.30696,1.39972 7.19719,-0.0138 14.39253,-0.2321 21.58879,-0.34815 14.55222,-0.52216 29.10488,-1.25377 43.60794,-2.58642 1.79484,-0.16492 3.58634,-0.36598 5.37621,-0.57823 0.83914,-0.0995 3.3257,-0.57692 2.50981,-0.35693 -3.75509,1.01255 -7.56116,1.82562 -11.34173,2.73843 0.0486,0.14088 0.097,0.28176 0.14554,0.42265 0,0 12.49278,-2.51067 12.49278,-2.51067 l 0,0 c 0.0152,0.28852 0.0303,0.57704 0.0455,0.86556 -4.37426,1.11361 -8.72779,2.31195 -13.12274,3.34081 -0.82587,0.19333 -1.68104,0.22905 -2.52412,0.32212 -1.7942,0.19809 -3.58909,0.39225 -5.38717,0.55136 -14.51623,1.28459 -29.0762,2.02608 -43.63951,2.50787 -7.20077,0.10473 -14.40078,0.31059 -21.6023,0.31409 -19.78435,0.01 -39.53046,-1.16823 -59.30853,-1.40367 0,0 11.8526,-4.67854 11.8526,-4.67854 z"
       inkscape:connector-curvature="0" />
    <path
       inkscape:connector-curvature="0"
       d="m -214.29148,465.50307 c -0.20726,18.39001 -0.83861,36.77961 -0.78021,55.17217 0.0304,9.5767 0.28519,19.15137 0.42777,28.72705 0.5554,22.16538 1.61801,44.31139 2.78481,66.45104 0,0 -12.41904,2.85312 -12.41904,2.85312 l 0,0 c -1.17021,-22.15525 -2.23507,-44.31689 -2.79547,-66.4979 -0.14499,-9.58635 -0.40294,-19.17166 -0.43497,-28.75906 -0.0614,-18.39504 0.57172,-36.78716 0.77854,-55.17963 0,0 12.43857,-2.76679 12.43857,-2.76679 z"
       id="path23231"
       style="opacity:1;fill:#000000;fill-opacity:1;fill-rule:nonzero;stroke:#000000;stroke-width:0;stroke-linecap:butt;stroke-linejoin:miter;stroke-miterlimit:4;stroke-dasharray:none;stroke-dashoffset:0;stroke-opacity:1" />
    <path
       inkscape:connector-curvature="0"
       d="m -343.62611,499.57503 c 26.18603,-0.11256 52.36594,0.55977 78.55301,0.46368 18.28433,-0.0671 28.36013,-0.34024 45.97043,-0.70572 0,0 -11.83512,4.72261 -11.83512,4.72261 l 0,0 c -17.80403,0.35931 -27.44807,0.61854 -45.98165,0.67748 -26.18055,0.0833 -52.35521,-0.6188 -78.53451,-0.41725 0,0 11.82784,-4.7408 11.82784,-4.7408 z"
       id="path23233"
       style="opacity:1;fill:#000000;fill-opacity:1;fill-rule:nonzero;stroke:#000000;stroke-width:0;stroke-linecap:butt;stroke-linejoin:miter;stroke-miterlimit:4;stroke-dasharray:none;stroke-dashoffset:0;stroke-opacity:1" />
    <text
       transform="matrix(0.99985978,0.01674588,-0.01674588,0.99985978,0,0)"
       xml:space="preserve"
       style="font-style:normal;font-weight:normal;font-size:30px;line-height:125%;font-family:sans-serif;letter-spacing:0px;word-spacing:0px;fill:#000000;fill-opacity:1;stroke:none;stroke-width:1px;stroke-linecap:butt;stroke-linejoin:miter;stroke-opacity:1"
       x="-333.56049"
       y="496.84149"
       id="text23235"
       sodipodi:linespacing="125%"><tspan
         sodipodi:role="line"
         id="tspan23237"
         x="-333.56049"
         y="496.84149"
         style="font-size:15px">CharacterState</tspan></text>
    <path
       inkscape:connector-curvature="0"
       d="m -291.40281,620.64535 c 2.43407,4.95814 2.949,10.14769 3.49123,15.26526 0.18849,2.31359 0.29878,4.63032 0.23112,6.94652 -0.0303,1.03622 -0.12682,2.01514 -0.38203,3.03832 -0.21932,0.61725 -0.10217,0.34644 -0.32702,0.8158 0,0 -4.42228,0.49617 -4.42228,0.49617 l 0,0 c 0.23783,-0.44385 0.11437,-0.18513 0.33923,-0.78087 0.27257,-1.03006 0.363,-1.95555 0.39529,-3.00291 0.0711,-2.31036 -0.0379,-4.62132 -0.22427,-6.92914 -0.53779,-5.10559 -1.04628,-10.28331 -3.47652,-15.22961 0,0 4.37525,-0.61954 4.37525,-0.61954 z"
       id="path23239"
       style="opacity:1;fill:#000000;fill-opacity:1;fill-rule:nonzero;stroke:#000000;stroke-width:0;stroke-linecap:butt;stroke-linejoin:miter;stroke-miterlimit:4;stroke-dasharray:none;stroke-dashoffset:0;stroke-opacity:1" />
  </g>
</svg>
